<svg width="45" height="45" viewBox="0 0 45 45" fill="none" xmlns="http://www.w3.org/2000/svg">
<rect width="45" height="45" rx="5" fill="#F5E8E3"/>
<path d="M13 33H33" stroke="#C6785A" stroke-width="1.5" stroke-miterlimit="10" stroke-linecap="round" stroke-linejoin="round"/>
<path d="M20.75 15V33H25.25V15C25.25 13.9 24.8 13 23.45 13H22.55C21.2 13 20.75 13.9 20.75 15Z" stroke="#C6785A" stroke-width="1.5" stroke-linecap="round" stroke-linejoin="round"/>
<path d="M14 21V33H18V21C18 19.9 17.6 19 16.4 19H15.6C14.4 19 14 19.9 14 21Z" stroke="#C6785A" stroke-width="1.5" stroke-linecap="round" stroke-linejoin="round"/>
<path d="M28 26V33H32V26C32 24.9 31.6 24 30.4 24H29.6C28.4 24 28 24.9 28 26Z" stroke="#C6785A" stroke-width="1.5" stroke-linecap="round" stroke-linejoin="round"/>
</svg>
