<svg width="45" height="45" viewBox="0 0 45 45" fill="none" xmlns="http://www.w3.org/2000/svg">
<rect width="45" height="45" rx="5" fill="#D0BDFA"/>
<path d="M23.92 13.26L30.43 16.77C31.19 17.18 31.19 18.35 30.43 18.76L23.92 22.27C23.34 22.58 22.66 22.58 22.08 22.27L15.57 18.76C14.81 18.35 14.81 17.18 15.57 16.77L22.08 13.26C22.66 12.95 23.34 12.95 23.92 13.26Z" stroke="#745EA3" stroke-width="1.5" stroke-linecap="round" stroke-linejoin="round"/>
<path d="M14.61 21.13L20.66 24.16C21.41 24.54 21.89 25.31 21.89 26.15V31.8701C21.89 32.7001 21.02 33.2301 20.28 32.8601L14.23 29.83C13.48 29.45 13 28.68 13 27.84V22.12C13 21.29 13.87 20.76 14.61 21.13Z" stroke="#745EA3" stroke-width="1.5" stroke-linecap="round" stroke-linejoin="round"/>
<path d="M31.3894 21.13L25.3394 24.16C24.5894 24.54 24.1094 25.31 24.1094 26.15V31.8701C24.1094 32.7001 24.9794 33.2301 25.7194 32.8601L31.7694 29.83C32.5194 29.45 32.9994 28.68 32.9994 27.84V22.12C32.9994 21.29 32.1294 20.76 31.3894 21.13Z" stroke="#745EA3" stroke-width="1.5" stroke-linecap="round" stroke-linejoin="round"/>
</svg>
