<svg width="45" height="45" viewBox="0 0 45 45" fill="none" xmlns="http://www.w3.org/2000/svg">
<rect width="45" height="45" rx="5" fill="#FFE91F"/>
<path d="M24.0095 13.9199L29.9095 16.5399C31.6095 17.2899 31.6095 18.5299 29.9095 19.2799L24.0095 21.8999C23.3395 22.1999 22.2395 22.1999 21.5695 21.8999L15.6695 19.2799C13.9695 18.5299 13.9695 17.2899 15.6695 16.5399L21.5695 13.9199C22.2395 13.6199 23.3395 13.6199 24.0095 13.9199Z" stroke="#8F852C" stroke-width="1.5" stroke-linecap="round" stroke-linejoin="round"/>
<path d="M14 22C14 22.84 14.63 23.81 15.4 24.15L22.19 27.17C22.71 27.4 23.3 27.4 23.81 27.17L30.6 24.15C31.37 23.81 32 22.84 32 22" stroke="#8F852C" stroke-width="1.5" stroke-linecap="round" stroke-linejoin="round"/>
<path d="M14 27C14 27.93 14.55 28.77 15.4 29.15L22.19 32.17C22.71 32.4 23.3 32.4 23.81 32.17L30.6 29.15C31.45 28.77 32 27.93 32 27" stroke="#8F852C" stroke-width="1.5" stroke-linecap="round" stroke-linejoin="round"/>
</svg>
