<svg width="45" height="45" viewBox="0 0 45 45" fill="none" xmlns="http://www.w3.org/2000/svg">
<rect width="45" height="45" rx="5" fill="#9C73F3"/>
<path d="M31 25C32.1046 25 33 24.1046 33 23C33 21.8954 32.1046 21 31 21C29.8954 21 29 21.8954 29 23C29 24.1046 29.8954 25 31 25Z" stroke="#503784" stroke-width="1.5" stroke-linecap="round" stroke-linejoin="round"/>
<path d="M31 17C32.1046 17 33 16.1046 33 15C33 13.8954 32.1046 13 31 13C29.8954 13 29 13.8954 29 15C29 16.1046 29.8954 17 31 17Z" stroke="#503784" stroke-width="1.5" stroke-linecap="round" stroke-linejoin="round"/>
<path d="M31 33C32.1046 33 33 32.1046 33 31C33 29.8954 32.1046 29 31 29C29.8954 29 29 29.8954 29 31C29 32.1046 29.8954 33 31 33Z" stroke="#503784" stroke-width="1.5" stroke-linecap="round" stroke-linejoin="round"/>
<path d="M15 25C16.1046 25 17 24.1046 17 23C17 21.8954 16.1046 21 15 21C13.8954 21 13 21.8954 13 23C13 24.1046 13.8954 25 15 25Z" stroke="#503784" stroke-width="1.5" stroke-linecap="round" stroke-linejoin="round"/>
<path d="M17 23H29" stroke="#503784" stroke-width="1.5" stroke-linecap="round" stroke-linejoin="round"/>
<path d="M29 15H25C23 15 22 16 22 18V28C22 30 23 31 25 31H29" stroke="#503784" stroke-width="1.5" stroke-linecap="round" stroke-linejoin="round"/>
</svg>
