<svg width="200" height="200" viewBox="0 0 200 200" fill="none" xmlns="http://www.w3.org/2000/svg">
<rect width="200" height="200" rx="25" fill="#0E0D18"/>
<path d="M54.2653 145.585C50.892 148.961 50.8651 154.485 54.6486 157.394C66.2584 166.321 80.5582 171.234 95.3631 171.227C113.065 171.22 130.04 164.18 142.552 151.657C155.064 139.134 162.089 122.154 162.081 104.452C162.074 86.7491 155.034 69.7748 142.511 57.2626L54.2653 145.585Z" fill="#D0BDFA"/>
<path d="M39.832 107.633L73.0698 74.1844C88.6624 58.4931 112.991 55.5655 131.861 67.1095L58.0106 141.339C45.5886 129.826 40.7157 114.071 39.832 107.633Z" fill="#F5E8E3"/>
<path opacity="0.9" d="M145.834 53.6604C149.209 50.2856 149.238 44.7616 145.456 41.8507C133.85 32.9186 119.552 28 104.747 28C87.0446 28 70.0673 35.0323 57.5498 47.5498C45.0323 60.0673 38 77.0446 38 94.747C38 112.449 45.0323 129.427 57.5498 141.944L145.834 53.6604Z" fill="#5B0AFF"/>
</svg>
