<svg width="340" height="190" viewBox="0 0 390 240" fill="none" xmlns="http://www.w3.org/2000/svg">
<rect x="0.5" y="0.5" width="389" height="239" rx="14.5" fill="#0E0D18" stroke="#43424B"/>
<path d="M36.7833 142.35H30.6833V146.317H35.7833V147.683H30.6833V151.65H36.7833V153H29.3333V141H36.7833V142.35ZM45.3313 144.533C46.5646 145.483 46.7812 146.917 46.7646 148.567V153H45.3979V148.567C45.3979 147.283 45.2646 146.217 44.3979 145.567C43.9479 145.233 43.3646 145.067 42.6979 145.1C42.1479 145.117 41.6146 145.3 41.2146 145.65C40.7979 146.017 40.5313 146.55 40.4146 147.15C40.3313 147.517 40.3146 147.95 40.3146 148.383V153H38.9479V144H40.1646V145.017C40.2479 144.917 40.3479 144.817 40.4479 144.717C41.1146 144.117 41.9979 143.817 42.8146 143.783C43.6979 143.733 44.6146 144 45.3313 144.533ZM56.326 146L55.0594 146.55C54.976 146.367 54.8594 146.2 54.7594 146.05C54.2594 145.367 53.4427 145.033 52.5594 145.033C51.7094 145.033 50.876 145.367 50.3927 146.05C49.876 146.717 49.726 147.617 49.7094 148.5C49.726 149.383 49.876 150.283 50.3927 150.95C50.876 151.617 51.7094 151.95 52.5594 151.95C53.4427 151.95 54.2594 151.617 54.7594 150.95C54.8594 150.8 54.9594 150.633 55.0427 150.467L56.326 151.033C56.176 151.283 56.026 151.533 55.8427 151.767C55.0594 152.75 53.8594 153.25 52.5594 153.25C51.276 153.25 50.076 152.767 49.2927 151.767C48.5427 150.833 48.2927 149.65 48.276 148.5C48.2927 147.333 48.5427 146.167 49.2927 145.217C50.1094 144.2 51.276 143.75 52.5594 143.75C53.8594 143.75 55.0427 144.233 55.8427 145.217C56.026 145.467 56.1927 145.717 56.326 146ZM62.1063 143.75C62.5396 143.75 62.9563 143.8 63.3563 143.933V145.217C62.9729 145.083 62.5063 145 62.0063 145.033C61.3063 145.05 60.6896 145.283 60.2729 145.7C59.4729 146.45 59.4396 147.433 59.4396 148.65V153H58.0729V144H59.2896V145.333C59.4729 145.017 59.7229 144.733 60.0563 144.467C60.6396 143.983 61.3896 143.767 62.1063 143.75ZM71.4323 144.017H72.799L68.699 154.7C68.3656 155.6 67.9656 156.233 67.4656 156.583C66.9823 156.95 66.4323 157 65.8156 157L65.599 156.983V155.683L65.8823 155.717C66.2156 155.733 66.5656 155.7 66.799 155.517C67.149 155.283 67.3823 154.733 67.949 153.25L64.099 144H65.499L68.5823 151.517L71.4323 144.017ZM81.5188 145.2C82.2354 146.117 82.5021 147.317 82.5021 148.483C82.5021 149.667 82.2688 150.85 81.5188 151.8C80.7688 152.75 79.6354 153.25 78.4021 153.25C77.2354 153.25 76.2188 152.833 75.5021 152.05V157H74.1354V144H75.3521V145.133C76.0688 144.25 77.2188 143.75 78.4188 143.75C79.6521 143.75 80.7854 144.267 81.5188 145.2ZM80.4188 150.95C80.9021 150.317 81.0688 149.417 81.0688 148.483C81.0688 147.567 80.8854 146.667 80.4188 146.017C79.9188 145.317 79.1021 145 78.2021 145C77.3521 145 76.5688 145.3 76.0688 145.95C75.5521 146.6 75.3521 147.55 75.3521 148.483C75.3521 149.433 75.5521 150.383 76.0688 151.033C76.5688 151.667 77.3854 152 78.2354 152C79.0854 152 79.9188 151.65 80.4188 150.95ZM86.7052 145.133V149.6C86.7052 150.35 86.6885 150.8 86.9052 151.183C87.0885 151.583 87.5052 151.817 87.9552 151.85C88.4219 151.9 88.9719 151.883 89.4385 151.8V153C88.8385 153.15 88.0052 153.183 87.4219 153.067C86.6219 152.917 86.0052 152.55 85.6719 151.867C85.3552 151.233 85.3552 150.533 85.3552 149.667V145.133H83.3385V144H85.3552V141.5H86.7052V144H89.4385V145.133H86.7052ZM91.599 141H92.949V142.45H91.599V141ZM91.599 144H92.949V153H91.599V144ZM99.2479 153.25C97.9479 153.25 96.7479 152.767 95.9646 151.783C95.2146 150.833 94.9479 149.667 94.9479 148.483C94.9479 147.317 95.2313 146.133 95.9646 145.217C96.7313 144.267 97.9479 143.75 99.2479 143.75C100.531 143.75 101.748 144.233 102.515 145.217C103.298 146.167 103.548 147.333 103.548 148.483C103.548 149.7 103.281 150.817 102.515 151.783C101.731 152.783 100.565 153.25 99.2479 153.25ZM101.448 150.95C101.948 150.283 102.115 149.383 102.115 148.483C102.115 147.617 101.948 146.7 101.448 146.033C100.948 145.367 100.115 145.033 99.2479 145.033C98.3813 145.033 97.5479 145.367 97.0646 146.033C96.5479 146.7 96.3813 147.617 96.3813 148.483C96.3813 149.383 96.5479 150.283 97.0646 150.95C97.5479 151.617 98.3813 151.967 99.2479 151.967C100.115 151.967 100.948 151.617 101.448 150.95ZM111.769 144.533C113.002 145.483 113.219 146.917 113.202 148.567V153H111.835V148.567C111.835 147.283 111.702 146.217 110.835 145.567C110.385 145.233 109.802 145.067 109.135 145.1C108.585 145.117 108.052 145.3 107.652 145.65C107.235 146.017 106.969 146.55 106.852 147.15C106.769 147.517 106.752 147.95 106.752 148.383V153H105.385V144H106.602V145.017C106.685 144.917 106.785 144.817 106.885 144.717C107.552 144.117 108.435 143.817 109.252 143.783C110.135 143.733 111.052 144 111.769 144.533ZM116.58 153.3C116.58 154.35 116.064 154.983 115.047 154.8L115.13 154.15C115.814 154.2 115.897 153.65 115.847 153H115.047V151.183H116.58V153.3ZM124.597 146.267L123.347 145.683C123.414 145.567 123.514 145.4 123.614 145.283C124.397 144.233 125.564 143.767 126.914 143.767C128.564 143.767 129.914 144.367 130.564 145.767C130.814 146.283 130.914 146.85 130.914 147.367V153H129.714V151.217C129.38 151.867 128.747 152.417 128.13 152.717C127.397 153.083 126.614 153.267 125.814 153.217C124.914 153.183 123.98 152.717 123.497 152.017C123.147 151.483 122.964 151 122.964 150.367C122.964 149.417 123.464 148.583 124.28 148.083C125.264 147.55 126.247 147.467 127.647 147.25L129.514 147C129.43 146.433 129.18 145.933 128.747 145.6C128.264 145.2 127.58 145.05 126.897 145.05C126.064 145.05 125.28 145.333 124.814 145.967C124.73 146.067 124.664 146.167 124.597 146.267ZM129.564 148.15C128.897 148.25 128.297 148.35 127.38 148.5C125.93 148.717 124.347 148.983 124.33 150.3C124.314 151.133 125.047 151.883 125.997 151.967C127.18 152.083 128.68 151.4 129.214 150.217C129.564 149.483 129.564 148.9 129.564 148.15ZM140.623 146L139.356 146.55C139.273 146.367 139.156 146.2 139.056 146.05C138.556 145.367 137.74 145.033 136.856 145.033C136.006 145.033 135.173 145.367 134.69 146.05C134.173 146.717 134.023 147.617 134.006 148.5C134.023 149.383 134.173 150.283 134.69 150.95C135.173 151.617 136.006 151.95 136.856 151.95C137.74 151.95 138.556 151.617 139.056 150.95C139.156 150.8 139.256 150.633 139.34 150.467L140.623 151.033C140.473 151.283 140.323 151.533 140.14 151.767C139.356 152.75 138.156 153.25 136.856 153.25C135.573 153.25 134.373 152.767 133.59 151.767C132.84 150.833 132.59 149.65 132.573 148.5C132.59 147.333 132.84 146.167 133.59 145.217C134.406 144.2 135.573 143.75 136.856 143.75C138.156 143.75 139.34 144.233 140.14 145.217C140.323 145.467 140.49 145.717 140.623 146ZM149.67 146L148.403 146.55C148.32 146.367 148.203 146.2 148.103 146.05C147.603 145.367 146.786 145.033 145.903 145.033C145.053 145.033 144.22 145.367 143.736 146.05C143.22 146.717 143.07 147.617 143.053 148.5C143.07 149.383 143.22 150.283 143.736 150.95C144.22 151.617 145.053 151.95 145.903 151.95C146.786 151.95 147.603 151.617 148.103 150.95C148.203 150.8 148.303 150.633 148.386 150.467L149.67 151.033C149.52 151.283 149.37 151.533 149.186 151.767C148.403 152.75 147.203 153.25 145.903 153.25C144.62 153.25 143.42 152.767 142.636 151.767C141.886 150.833 141.636 149.65 141.62 148.5C141.636 147.333 141.886 146.167 142.636 145.217C143.453 144.2 144.62 143.75 145.903 143.75C147.203 143.75 148.386 144.233 149.186 145.217C149.37 145.467 149.536 145.717 149.67 146ZM152.133 148.867C152.167 149.633 152.35 150.383 152.783 150.95C153.267 151.617 154.1 151.967 154.967 151.967C155.833 151.967 156.65 151.617 157.15 150.95C157.267 150.783 157.35 150.633 157.433 150.467L158.767 151.05C158.633 151.3 158.467 151.567 158.267 151.8C157.483 152.767 156.233 153.283 154.967 153.25C153.683 153.217 152.467 152.75 151.683 151.783C150.933 150.833 150.667 149.65 150.667 148.5C150.683 147.317 150.933 146.167 151.683 145.217C152.483 144.233 153.667 143.75 154.967 143.75C156.267 143.75 157.45 144.233 158.233 145.217C158.983 146.167 159.25 147.333 159.25 148.5C159.25 148.617 159.25 148.75 159.233 148.867H152.133ZM154.967 145.033C154.1 145.033 153.267 145.383 152.783 146.05C152.433 146.517 152.233 147.117 152.167 147.733H157.767C157.7 147.117 157.5 146.517 157.15 146.05C156.65 145.383 155.833 145.033 154.967 145.033ZM167.888 146.367L166.554 146.683C166.354 146.133 165.938 145.617 165.421 145.35C165.038 145.15 164.571 145.05 164.088 145.05C163.604 145.033 163.138 145.117 162.754 145.3C162.354 145.517 162.088 145.867 162.088 146.233C162.088 146.5 162.171 146.717 162.371 146.917C162.588 147.133 162.904 147.283 163.504 147.45C163.954 147.583 164.521 147.733 165.221 147.917C165.888 148.1 166.438 148.3 166.971 148.75C167.654 149.3 167.971 149.967 167.904 150.767C167.838 151.533 167.404 152.233 166.754 152.65C166.054 153.1 165.138 153.233 164.238 153.233C163.054 153.233 161.988 152.9 161.221 152.083C160.704 151.5 160.388 150.667 160.271 150.05L161.588 149.733C161.654 150.233 161.854 150.8 162.204 151.2C162.721 151.767 163.488 151.95 164.221 151.95C164.838 151.95 165.588 151.817 166.004 151.533C166.321 151.3 166.471 151 166.521 150.65C166.554 150.3 166.421 149.983 166.138 149.75C165.854 149.483 165.504 149.35 164.838 149.15C164.388 149.017 163.888 148.883 163.271 148.717C162.588 148.533 162.021 148.35 161.504 147.933C160.938 147.5 160.688 146.85 160.688 146.25C160.688 145.3 161.354 144.483 162.188 144.1C162.838 143.817 163.488 143.733 164.121 143.75C164.738 143.75 165.421 143.883 166.021 144.183C166.871 144.633 167.621 145.483 167.888 146.367ZM176.7 146.367L175.367 146.683C175.167 146.133 174.75 145.617 174.233 145.35C173.85 145.15 173.383 145.05 172.9 145.05C172.417 145.033 171.95 145.117 171.567 145.3C171.167 145.517 170.9 145.867 170.9 146.233C170.9 146.5 170.983 146.717 171.183 146.917C171.4 147.133 171.717 147.283 172.317 147.45C172.767 147.583 173.333 147.733 174.033 147.917C174.7 148.1 175.25 148.3 175.783 148.75C176.467 149.3 176.783 149.967 176.717 150.767C176.65 151.533 176.217 152.233 175.567 152.65C174.867 153.1 173.95 153.233 173.05 153.233C171.867 153.233 170.8 152.9 170.033 152.083C169.517 151.5 169.2 150.667 169.083 150.05L170.4 149.733C170.467 150.233 170.667 150.8 171.017 151.2C171.533 151.767 172.3 151.95 173.033 151.95C173.65 151.95 174.4 151.817 174.817 151.533C175.133 151.3 175.283 151 175.333 150.65C175.367 150.3 175.233 149.983 174.95 149.75C174.667 149.483 174.317 149.35 173.65 149.15C173.2 149.017 172.7 148.883 172.083 148.717C171.4 148.533 170.833 148.35 170.317 147.933C169.75 147.5 169.5 146.85 169.5 146.25C169.5 145.3 170.167 144.483 171 144.1C171.65 143.817 172.3 143.733 172.933 143.75C173.55 143.75 174.233 143.883 174.833 144.183C175.683 144.633 176.433 145.483 176.7 146.367ZM189.748 146L188.481 146.55C188.398 146.367 188.281 146.2 188.181 146.05C187.681 145.367 186.865 145.033 185.981 145.033C185.131 145.033 184.298 145.367 183.815 146.05C183.298 146.717 183.148 147.617 183.131 148.5C183.148 149.383 183.298 150.283 183.815 150.95C184.298 151.617 185.131 151.95 185.981 151.95C186.865 151.95 187.681 151.617 188.181 150.95C188.281 150.8 188.381 150.633 188.465 150.467L189.748 151.033C189.598 151.283 189.448 151.533 189.265 151.767C188.481 152.75 187.281 153.25 185.981 153.25C184.698 153.25 183.498 152.767 182.715 151.767C181.965 150.833 181.715 149.65 181.698 148.5C181.715 147.333 181.965 146.167 182.715 145.217C183.531 144.2 184.698 143.75 185.981 143.75C187.281 143.75 188.465 144.233 189.265 145.217C189.448 145.467 189.615 145.717 189.748 146ZM195.045 153.25C193.745 153.25 192.545 152.767 191.761 151.783C191.011 150.833 190.745 149.667 190.745 148.483C190.745 147.317 191.028 146.133 191.761 145.217C192.528 144.267 193.745 143.75 195.045 143.75C196.328 143.75 197.545 144.233 198.311 145.217C199.095 146.167 199.345 147.333 199.345 148.483C199.345 149.7 199.078 150.817 198.311 151.783C197.528 152.783 196.361 153.25 195.045 153.25ZM197.245 150.95C197.745 150.283 197.911 149.383 197.911 148.483C197.911 147.617 197.745 146.7 197.245 146.033C196.745 145.367 195.911 145.033 195.045 145.033C194.178 145.033 193.345 145.367 192.861 146.033C192.345 146.7 192.178 147.617 192.178 148.483C192.178 149.383 192.345 150.283 192.861 150.95C193.345 151.617 194.178 151.967 195.045 151.967C195.911 151.967 196.745 151.617 197.245 150.95ZM207.566 144.533C208.799 145.483 209.016 146.917 208.999 148.567V153H207.632V148.567C207.632 147.283 207.499 146.217 206.632 145.567C206.182 145.233 205.599 145.067 204.932 145.1C204.382 145.117 203.849 145.3 203.449 145.65C203.032 146.017 202.766 146.55 202.649 147.15C202.566 147.517 202.549 147.95 202.549 148.383V153H201.182V144H202.399V145.017C202.482 144.917 202.582 144.817 202.682 144.717C203.349 144.117 204.232 143.817 205.049 143.783C205.932 143.733 206.849 144 207.566 144.533ZM213.377 145.133V149.6C213.377 150.35 213.36 150.8 213.577 151.183C213.76 151.583 214.177 151.817 214.627 151.85C215.094 151.9 215.644 151.883 216.11 151.8V153C215.51 153.15 214.677 153.183 214.094 153.067C213.294 152.917 212.677 152.55 212.344 151.867C212.027 151.233 212.027 150.533 212.027 149.667V145.133H210.01V144H212.027V141.5H213.377V144H216.11V145.133H213.377ZM222.138 143.75C222.571 143.75 222.988 143.8 223.388 143.933V145.217C223.004 145.083 222.538 145 222.038 145.033C221.338 145.05 220.721 145.283 220.304 145.7C219.504 146.45 219.471 147.433 219.471 148.65V153H218.104V144H219.321V145.333C219.504 145.017 219.754 144.733 220.088 144.467C220.671 143.983 221.421 143.767 222.138 143.75ZM228.514 153.25C227.214 153.25 226.014 152.767 225.23 151.783C224.48 150.833 224.214 149.667 224.214 148.483C224.214 147.317 224.497 146.133 225.23 145.217C225.997 144.267 227.214 143.75 228.514 143.75C229.797 143.75 231.014 144.233 231.78 145.217C232.564 146.167 232.814 147.333 232.814 148.483C232.814 149.7 232.547 150.817 231.78 151.783C230.997 152.783 229.83 153.25 228.514 153.25ZM230.714 150.95C231.214 150.283 231.38 149.383 231.38 148.483C231.38 147.617 231.214 146.7 230.714 146.033C230.214 145.367 229.38 145.033 228.514 145.033C227.647 145.033 226.814 145.367 226.33 146.033C225.814 146.7 225.647 147.617 225.647 148.483C225.647 149.383 225.814 150.283 226.33 150.95C226.814 151.617 227.647 151.967 228.514 151.967C229.38 151.967 230.214 151.617 230.714 150.95ZM234.651 153V140.75H236.001V153H234.651ZM245.372 146.367L244.039 146.683C243.839 146.133 243.422 145.617 242.905 145.35C242.522 145.15 242.055 145.05 241.572 145.05C241.089 145.033 240.622 145.117 240.239 145.3C239.839 145.517 239.572 145.867 239.572 146.233C239.572 146.5 239.655 146.717 239.855 146.917C240.072 147.133 240.389 147.283 240.989 147.45C241.439 147.583 242.005 147.733 242.705 147.917C243.372 148.1 243.922 148.3 244.455 148.75C245.139 149.3 245.455 149.967 245.389 150.767C245.322 151.533 244.889 152.233 244.239 152.65C243.539 153.1 242.622 153.233 241.722 153.233C240.539 153.233 239.472 152.9 238.705 152.083C238.189 151.5 237.872 150.667 237.755 150.05L239.072 149.733C239.139 150.233 239.339 150.8 239.689 151.2C240.205 151.767 240.972 151.95 241.705 151.95C242.322 151.95 243.072 151.817 243.489 151.533C243.805 151.3 243.955 151 244.005 150.65C244.039 150.3 243.905 149.983 243.622 149.75C243.339 149.483 242.989 149.35 242.322 149.15C241.872 149.017 241.372 148.883 240.755 148.717C240.072 148.533 239.505 148.35 238.989 147.933C238.422 147.5 238.172 146.85 238.172 146.25C238.172 145.3 238.839 144.483 239.672 144.1C240.322 143.817 240.972 143.733 241.605 143.75C242.222 143.75 242.905 143.883 243.505 144.183C244.355 144.633 245.105 145.483 245.372 146.367ZM248.518 153.3C248.518 154.35 248.001 154.983 246.984 154.8L247.068 154.15C247.751 154.2 247.834 153.65 247.784 153H246.984V151.183H248.518V153.3ZM256.534 146.267L255.284 145.683C255.351 145.567 255.451 145.4 255.551 145.283C256.334 144.233 257.501 143.767 258.851 143.767C260.501 143.767 261.851 144.367 262.501 145.767C262.751 146.283 262.851 146.85 262.851 147.367V153H261.651V151.217C261.318 151.867 260.684 152.417 260.068 152.717C259.334 153.083 258.551 153.267 257.751 153.217C256.851 153.183 255.918 152.717 255.434 152.017C255.084 151.483 254.901 151 254.901 150.367C254.901 149.417 255.401 148.583 256.218 148.083C257.201 147.55 258.184 147.467 259.584 147.25L261.451 147C261.368 146.433 261.118 145.933 260.684 145.6C260.201 145.2 259.518 145.05 258.834 145.05C258.001 145.05 257.218 145.333 256.751 145.967C256.668 146.067 256.601 146.167 256.534 146.267ZM261.501 148.15C260.834 148.25 260.234 148.35 259.318 148.5C257.868 148.717 256.284 148.983 256.268 150.3C256.251 151.133 256.984 151.883 257.934 151.967C259.118 152.083 260.618 151.4 261.151 150.217C261.501 149.483 261.501 148.9 261.501 148.15ZM271.394 144.533C272.627 145.483 272.844 146.917 272.827 148.567V153H271.46V148.567C271.46 147.283 271.327 146.217 270.46 145.567C270.01 145.233 269.427 145.067 268.76 145.1C268.21 145.117 267.677 145.3 267.277 145.65C266.86 146.017 266.594 146.55 266.477 147.15C266.394 147.517 266.377 147.95 266.377 148.383V153H265.01V144H266.227V145.017C266.31 144.917 266.41 144.817 266.51 144.717C267.177 144.117 268.06 143.817 268.877 143.783C269.76 143.733 270.677 144 271.394 144.533ZM281.355 141H282.705V153H281.505V151.85C280.805 152.767 279.705 153.25 278.455 153.25C277.222 153.25 276.089 152.75 275.339 151.8C274.589 150.85 274.339 149.667 274.339 148.483C274.339 147.317 274.605 146.117 275.339 145.2C276.055 144.267 277.205 143.75 278.422 143.75C279.555 143.75 280.622 144.183 281.355 144.967V141ZM280.772 151.033C281.305 150.383 281.505 149.433 281.505 148.483C281.505 147.55 281.305 146.6 280.772 145.95C280.289 145.3 279.489 145 278.639 145C277.739 145 276.939 145.317 276.439 146.017C275.955 146.667 275.772 147.567 275.772 148.483C275.772 149.417 275.939 150.317 276.422 150.95C276.922 151.65 277.755 152 278.605 152C279.472 152 280.272 151.667 280.772 151.033ZM289.909 146.267L288.659 145.683C288.726 145.567 288.826 145.4 288.926 145.283C289.709 144.233 290.876 143.767 292.226 143.767C293.876 143.767 295.226 144.367 295.876 145.767C296.126 146.283 296.226 146.85 296.226 147.367V153H295.026V151.217C294.693 151.867 294.059 152.417 293.443 152.717C292.709 153.083 291.926 153.267 291.126 153.217C290.226 153.183 289.293 152.717 288.809 152.017C288.459 151.483 288.276 151 288.276 150.367C288.276 149.417 288.776 148.583 289.593 148.083C290.576 147.55 291.559 147.467 292.959 147.25L294.826 147C294.743 146.433 294.493 145.933 294.059 145.6C293.576 145.2 292.893 145.05 292.209 145.05C291.376 145.05 290.593 145.333 290.126 145.967C290.043 146.067 289.976 146.167 289.909 146.267ZM294.876 148.15C294.209 148.25 293.609 148.35 292.693 148.5C291.243 148.717 289.659 148.983 289.643 150.3C289.626 151.133 290.359 151.883 291.309 151.967C292.493 152.083 293.993 151.4 294.526 150.217C294.876 149.483 294.876 148.9 294.876 148.15ZM304.519 144H305.869V153H304.669V151.967C304.585 152.067 304.485 152.183 304.369 152.283C303.719 152.883 302.835 153.183 302.002 153.217C301.135 153.267 300.202 153 299.485 152.467C298.252 151.517 298.035 150.083 298.052 148.433V144H299.419V148.433C299.419 149.717 299.569 150.783 300.419 151.417C300.869 151.767 301.452 151.917 302.119 151.9C302.685 151.883 303.202 151.7 303.602 151.333C304.019 150.983 304.302 150.45 304.402 149.85C304.519 149.3 304.519 148.633 304.519 147.95V147.933V144ZM314.715 141H316.065V153H314.865V151.85C314.165 152.767 313.065 153.25 311.815 153.25C310.581 153.25 309.448 152.75 308.698 151.8C307.948 150.85 307.698 149.667 307.698 148.483C307.698 147.317 307.965 146.117 308.698 145.2C309.415 144.267 310.565 143.75 311.781 143.75C312.915 143.75 313.981 144.183 314.715 144.967V141ZM314.131 151.033C314.665 150.383 314.865 149.433 314.865 148.483C314.865 147.55 314.665 146.6 314.131 145.95C313.648 145.3 312.848 145 311.998 145C311.098 145 310.298 145.317 309.798 146.017C309.315 146.667 309.131 147.567 309.131 148.483C309.131 149.417 309.298 150.317 309.781 150.95C310.281 151.65 311.115 152 311.965 152C312.831 152 313.631 151.667 314.131 151.033ZM318.583 141H319.933V142.45H318.583V141ZM318.583 144H319.933V153H318.583V144ZM324.799 145.133V149.6C324.799 150.35 324.782 150.8 324.999 151.183C325.182 151.583 325.599 151.817 326.049 151.85C326.516 151.9 327.066 151.883 327.532 151.8V153C326.932 153.15 326.099 153.183 325.516 153.067C324.716 152.917 324.099 152.55 323.766 151.867C323.449 151.233 323.449 150.533 323.449 149.667V145.133H321.432V144H323.449V141.5H324.799V144H327.532V145.133H324.799ZM29.1667 179V166.75H30.5167V179H29.1667ZM36.6542 179.25C35.3542 179.25 34.1542 178.767 33.3708 177.783C32.6208 176.833 32.3542 175.667 32.3542 174.483C32.3542 173.317 32.6375 172.133 33.3708 171.217C34.1375 170.267 35.3542 169.75 36.6542 169.75C37.9375 169.75 39.1542 170.233 39.9208 171.217C40.7042 172.167 40.9542 173.333 40.9542 174.483C40.9542 175.7 40.6875 176.817 39.9208 177.783C39.1375 178.783 37.9708 179.25 36.6542 179.25ZM38.8542 176.95C39.3542 176.283 39.5208 175.383 39.5208 174.483C39.5208 173.617 39.3542 172.7 38.8542 172.033C38.3542 171.367 37.5208 171.033 36.6542 171.033C35.7875 171.033 34.9542 171.367 34.4708 172.033C33.9542 172.7 33.7875 173.617 33.7875 174.483C33.7875 175.383 33.9542 176.283 34.4708 176.95C34.9542 177.617 35.7875 177.967 36.6542 177.967C37.5208 177.967 38.3542 177.617 38.8542 176.95ZM49.4583 170H50.6583V178.967C50.6583 180.667 50.2917 181.633 49.2583 182.4C48.3917 183.033 47.3917 183.25 46.475 183.25C45.475 183.25 44.475 182.9 43.825 182.217C43.475 181.983 43.125 181.65 42.9083 181.267L44.1583 180.667C44.2583 180.833 44.375 180.983 44.5083 181.117C44.9917 181.667 45.7583 181.933 46.475 181.933C47.225 181.933 47.9917 181.733 48.525 181.3C49.1583 180.75 49.3083 180.167 49.2917 178.95V178.05C48.5917 178.85 47.5583 179.25 46.4083 179.25C45.175 179.25 44.0417 178.75 43.2917 177.8C42.5417 176.85 42.2917 175.667 42.2917 174.483C42.2917 173.317 42.5583 172.117 43.2917 171.2C44.0083 170.267 45.1583 169.75 46.375 169.75C47.575 169.75 48.725 170.25 49.4583 171.133V170ZM48.725 177.033C49.2583 176.383 49.4583 175.433 49.4583 174.483C49.4583 173.55 49.2583 172.6 48.725 171.95C48.2417 171.3 47.4417 171 46.5917 171C45.6917 171 44.8917 171.317 44.3917 172.017C43.9083 172.667 43.725 173.567 43.725 174.483C43.725 175.417 43.8917 176.317 44.375 176.95C44.875 177.65 45.7083 178 46.5583 178C47.425 178 48.225 177.667 48.725 177.033ZM59.6615 170H60.8615V178.967C60.8615 180.667 60.4948 181.633 59.4615 182.4C58.5948 183.033 57.5948 183.25 56.6781 183.25C55.6781 183.25 54.6781 182.9 54.0281 182.217C53.6781 181.983 53.3281 181.65 53.1115 181.267L54.3615 180.667C54.4615 180.833 54.5781 180.983 54.7115 181.117C55.1948 181.667 55.9615 181.933 56.6781 181.933C57.4281 181.933 58.1948 181.733 58.7281 181.3C59.3615 180.75 59.5115 180.167 59.4948 178.95V178.05C58.7948 178.85 57.7615 179.25 56.6115 179.25C55.3781 179.25 54.2448 178.75 53.4948 177.8C52.7448 176.85 52.4948 175.667 52.4948 174.483C52.4948 173.317 52.7615 172.117 53.4948 171.2C54.2115 170.267 55.3615 169.75 56.5781 169.75C57.7781 169.75 58.9281 170.25 59.6615 171.133V170ZM58.9281 177.033C59.4615 176.383 59.6615 175.433 59.6615 174.483C59.6615 173.55 59.4615 172.6 58.9281 171.95C58.4448 171.3 57.6448 171 56.7948 171C55.8948 171 55.0948 171.317 54.5948 172.017C54.1115 172.667 53.9281 173.567 53.9281 174.483C53.9281 175.417 54.0948 176.317 54.5781 176.95C55.0781 177.65 55.9115 178 56.7615 178C57.6281 178 58.4281 177.667 58.9281 177.033ZM63.3646 167H64.7146V168.45H63.3646V167ZM63.3646 170H64.7146V179H63.3646V170ZM73.5969 170.533C74.8302 171.483 75.0469 172.917 75.0302 174.567V179H73.6635V174.567C73.6635 173.283 73.5302 172.217 72.6635 171.567C72.2135 171.233 71.6302 171.067 70.9635 171.1C70.4135 171.117 69.8802 171.3 69.4802 171.65C69.0635 172.017 68.7969 172.55 68.6802 173.15C68.5969 173.517 68.5802 173.95 68.5802 174.383V179H67.2135V170H68.4302V171.017C68.5135 170.917 68.6135 170.817 68.7135 170.717C69.3802 170.117 70.2635 169.817 71.0802 169.783C71.9635 169.733 72.8802 170 73.5969 170.533ZM83.7083 170H84.9083V178.967C84.9083 180.667 84.5417 181.633 83.5083 182.4C82.6417 183.033 81.6417 183.25 80.725 183.25C79.725 183.25 78.725 182.9 78.075 182.217C77.725 181.983 77.375 181.65 77.1583 181.267L78.4083 180.667C78.5083 180.833 78.625 180.983 78.7583 181.117C79.2417 181.667 80.0083 181.933 80.725 181.933C81.475 181.933 82.2417 181.733 82.775 181.3C83.4083 180.75 83.5583 180.167 83.5417 178.95V178.05C82.8417 178.85 81.8083 179.25 80.6583 179.25C79.425 179.25 78.2917 178.75 77.5417 177.8C76.7917 176.85 76.5417 175.667 76.5417 174.483C76.5417 173.317 76.8083 172.117 77.5417 171.2C78.2583 170.267 79.4083 169.75 80.625 169.75C81.825 169.75 82.975 170.25 83.7083 171.133V170ZM82.975 177.033C83.5083 176.383 83.7083 175.433 83.7083 174.483C83.7083 173.55 83.5083 172.6 82.975 171.95C82.4917 171.3 81.6917 171 80.8417 171C79.9417 171 79.1417 171.317 78.6417 172.017C78.1583 172.667 77.975 173.567 77.975 174.483C77.975 175.417 78.1417 176.317 78.625 176.95C79.125 177.65 79.9583 178 80.8083 178C81.675 178 82.475 177.667 82.975 177.033ZM98.3469 171.2C99.0635 172.117 99.3302 173.317 99.3302 174.483C99.3302 175.667 99.0969 176.85 98.3469 177.8C97.5969 178.75 96.4635 179.25 95.2302 179.25C93.9802 179.25 92.8969 178.783 92.1802 177.867V179H90.9635V167H92.3302V170.95C93.0469 170.183 94.1302 169.75 95.2469 169.75C96.4802 169.75 97.6135 170.267 98.3469 171.2ZM97.2469 176.95C97.7302 176.317 97.8969 175.417 97.8969 174.483C97.8969 173.567 97.7135 172.667 97.2469 172.017C96.7469 171.317 95.9302 171 95.0302 171C94.1802 171 93.3969 171.3 92.8969 171.95C92.3802 172.6 92.1802 173.55 92.1802 174.483C92.1802 175.433 92.3802 176.383 92.8969 177.033C93.3969 177.667 94.2135 178 95.0635 178C95.9135 178 96.7469 177.65 97.2469 176.95ZM107.3 170H108.65V179H107.45V177.967C107.367 178.067 107.267 178.183 107.15 178.283C106.5 178.883 105.617 179.183 104.783 179.217C103.917 179.267 102.983 179 102.267 178.467C101.033 177.517 100.817 176.083 100.833 174.433V170H102.2V174.433C102.2 175.717 102.35 176.783 103.2 177.417C103.65 177.767 104.233 177.917 104.9 177.9C105.467 177.883 105.983 177.7 106.383 177.333C106.8 176.983 107.083 176.45 107.183 175.85C107.3 175.3 107.3 174.633 107.3 173.95V173.933V170ZM111.146 167H112.496V168.45H111.146V167ZM111.146 170H112.496V179H111.146V170ZM114.995 179V166.75H116.345V179H114.995ZM121.049 171.133V175.6C121.049 176.35 121.032 176.8 121.249 177.183C121.432 177.583 121.849 177.817 122.299 177.85C122.766 177.9 123.316 177.883 123.782 177.8V179C123.182 179.15 122.349 179.183 121.766 179.067C120.966 178.917 120.349 178.55 120.016 177.867C119.699 177.233 119.699 176.533 119.699 175.667V171.133H117.682V170H119.699V167.5H121.049V170H123.782V171.133H121.049ZM129.661 167H131.011V168.45H129.661V167ZM129.661 170H131.011V179H129.661V170ZM139.894 170.533C141.127 171.483 141.344 172.917 141.327 174.567V179H139.96V174.567C139.96 173.283 139.827 172.217 138.96 171.567C138.51 171.233 137.927 171.067 137.26 171.1C136.71 171.117 136.177 171.3 135.777 171.65C135.36 172.017 135.094 172.55 134.977 173.15C134.894 173.517 134.877 173.95 134.877 174.383V179H133.51V170H134.727V171.017C134.81 170.917 134.91 170.817 135.01 170.717C135.677 170.117 136.56 169.817 137.377 169.783C138.26 169.733 139.177 170 139.894 170.533ZM145.705 171.133V175.6C145.705 176.35 145.689 176.8 145.905 177.183C146.089 177.583 146.505 177.817 146.955 177.85C147.422 177.9 147.972 177.883 148.439 177.8V179C147.839 179.15 147.005 179.183 146.422 179.067C145.622 178.917 145.005 178.55 144.672 177.867C144.355 177.233 144.355 176.533 144.355 175.667V171.133H142.339V170H144.355V167.5H145.705V170H148.439V171.133H145.705ZM154.232 179.25C152.932 179.25 151.732 178.767 150.949 177.783C150.199 176.833 149.932 175.667 149.932 174.483C149.932 173.317 150.216 172.133 150.949 171.217C151.716 170.267 152.932 169.75 154.232 169.75C155.516 169.75 156.732 170.233 157.499 171.217C158.282 172.167 158.532 173.333 158.532 174.483C158.532 175.7 158.266 176.817 157.499 177.783C156.716 178.783 155.549 179.25 154.232 179.25ZM156.432 176.95C156.932 176.283 157.099 175.383 157.099 174.483C157.099 173.617 156.932 172.7 156.432 172.033C155.932 171.367 155.099 171.033 154.232 171.033C153.366 171.033 152.532 171.367 152.049 172.033C151.532 172.7 151.366 173.617 151.366 174.483C151.366 175.383 151.532 176.283 152.049 176.95C152.532 177.617 153.366 177.967 154.232 177.967C155.099 177.967 155.932 177.617 156.432 176.95ZM166.455 171.133V175.6C166.455 176.35 166.439 176.8 166.655 177.183C166.839 177.583 167.255 177.817 167.705 177.85C168.172 177.9 168.722 177.883 169.189 177.8V179C168.589 179.15 167.755 179.183 167.172 179.067C166.372 178.917 165.755 178.55 165.422 177.867C165.105 177.233 165.105 176.533 165.105 175.667V171.133H163.089V170H165.105V167.5H166.455V170H169.189V171.133H166.455ZM177.566 170.533C178.799 171.483 179.016 172.917 178.999 174.567V179H177.632V174.567C177.632 173.283 177.499 172.217 176.632 171.567C176.182 171.233 175.599 171.067 174.932 171.1C174.382 171.117 173.849 171.3 173.449 171.65C173.032 172.017 172.766 172.55 172.649 173.15C172.566 173.517 172.549 173.95 172.549 174.383V179H171.182V167H172.399V171.017C172.482 170.917 172.582 170.817 172.682 170.717C173.349 170.117 174.232 169.817 175.049 169.783C175.932 169.733 176.849 170 177.566 170.533ZM181.961 174.867C181.995 175.633 182.178 176.383 182.611 176.95C183.095 177.617 183.928 177.967 184.795 177.967C185.661 177.967 186.478 177.617 186.978 176.95C187.095 176.783 187.178 176.633 187.261 176.467L188.595 177.05C188.461 177.3 188.295 177.567 188.095 177.8C187.311 178.767 186.061 179.283 184.795 179.25C183.511 179.217 182.295 178.75 181.511 177.783C180.761 176.833 180.495 175.65 180.495 174.5C180.511 173.317 180.761 172.167 181.511 171.217C182.311 170.233 183.495 169.75 184.795 169.75C186.095 169.75 187.278 170.233 188.061 171.217C188.811 172.167 189.078 173.333 189.078 174.5C189.078 174.617 189.078 174.75 189.061 174.867H181.961ZM184.795 171.033C183.928 171.033 183.095 171.383 182.611 172.05C182.261 172.517 182.061 173.117 181.995 173.733H187.595C187.528 173.117 187.328 172.517 186.978 172.05C186.478 171.383 185.661 171.033 184.795 171.033ZM202.019 171.2C202.735 172.117 203.002 173.317 203.002 174.483C203.002 175.667 202.769 176.85 202.019 177.8C201.269 178.75 200.135 179.25 198.902 179.25C197.735 179.25 196.719 178.833 196.002 178.05V183H194.635V170H195.852V171.133C196.569 170.25 197.719 169.75 198.919 169.75C200.152 169.75 201.285 170.267 202.019 171.2ZM200.919 176.95C201.402 176.317 201.569 175.417 201.569 174.483C201.569 173.567 201.385 172.667 200.919 172.017C200.419 171.317 199.602 171 198.702 171C197.852 171 197.069 171.3 196.569 171.95C196.052 172.6 195.852 173.55 195.852 174.483C195.852 175.433 196.052 176.383 196.569 177.033C197.069 177.667 197.885 178 198.735 178C199.585 178 200.419 177.65 200.919 176.95ZM204.839 179V166.75H206.189V179H204.839ZM209.659 172.267L208.409 171.683C208.476 171.567 208.576 171.4 208.676 171.283C209.459 170.233 210.626 169.767 211.976 169.767C213.626 169.767 214.976 170.367 215.626 171.767C215.876 172.283 215.976 172.85 215.976 173.367V179H214.776V177.217C214.443 177.867 213.809 178.417 213.193 178.717C212.459 179.083 211.676 179.267 210.876 179.217C209.976 179.183 209.043 178.717 208.559 178.017C208.209 177.483 208.026 177 208.026 176.367C208.026 175.417 208.526 174.583 209.343 174.083C210.326 173.55 211.309 173.467 212.709 173.25L214.576 173C214.493 172.433 214.243 171.933 213.809 171.6C213.326 171.2 212.643 171.05 211.959 171.05C211.126 171.05 210.343 171.333 209.876 171.967C209.793 172.067 209.726 172.167 209.659 172.267ZM214.626 174.15C213.959 174.25 213.359 174.35 212.443 174.5C210.993 174.717 209.409 174.983 209.393 176.3C209.376 177.133 210.109 177.883 211.059 177.967C212.243 178.083 213.743 177.4 214.276 176.217C214.626 175.483 214.626 174.9 214.626 174.15ZM220.502 171.133V175.6C220.502 176.35 220.485 176.8 220.702 177.183C220.885 177.583 221.302 177.817 221.752 177.85C222.219 177.9 222.769 177.883 223.235 177.8V179C222.635 179.15 221.802 179.183 221.219 179.067C220.419 178.917 219.802 178.55 219.469 177.867C219.152 177.233 219.152 176.533 219.152 175.667V171.133H217.135V170H219.152V167.5H220.502V170H223.235V171.133H220.502ZM228.763 168C227.913 168.167 227.613 168.667 227.613 169.483V170H230.146V171.133H227.613V179H226.246V171.133H224.229V170H226.246V169.567C226.246 168.833 226.429 168.017 227.079 167.433C227.913 166.733 229.013 166.683 230.146 166.8V167.983C229.679 167.917 229.196 167.917 228.763 168ZM235.279 179.25C233.979 179.25 232.779 178.767 231.996 177.783C231.246 176.833 230.979 175.667 230.979 174.483C230.979 173.317 231.263 172.133 231.996 171.217C232.763 170.267 233.979 169.75 235.279 169.75C236.563 169.75 237.779 170.233 238.546 171.217C239.329 172.167 239.579 173.333 239.579 174.483C239.579 175.7 239.312 176.817 238.546 177.783C237.763 178.783 236.596 179.25 235.279 179.25ZM237.479 176.95C237.979 176.283 238.146 175.383 238.146 174.483C238.146 173.617 237.979 172.7 237.479 172.033C236.979 171.367 236.146 171.033 235.279 171.033C234.413 171.033 233.579 171.367 233.096 172.033C232.579 172.7 232.413 173.617 232.413 174.483C232.413 175.383 232.579 176.283 233.096 176.95C233.579 177.617 234.413 177.967 235.279 177.967C236.146 177.967 236.979 177.617 237.479 176.95ZM245.45 169.75C245.883 169.75 246.3 169.8 246.7 169.933V171.217C246.317 171.083 245.85 171 245.35 171.033C244.65 171.05 244.033 171.283 243.617 171.7C242.817 172.45 242.783 173.433 242.783 174.65V179H241.417V170H242.633V171.333C242.817 171.017 243.067 170.733 243.4 170.467C243.983 169.983 244.733 169.767 245.45 169.75ZM259.326 170.683C260.293 171.467 260.376 172.4 260.376 173.683V179H259.026V173.683C259.026 172.767 258.976 172.233 258.343 171.683C257.993 171.367 257.526 171.2 257.059 171.2C256.426 171.2 255.859 171.45 255.476 171.917C255.076 172.417 255.009 172.9 255.009 173.467V173.683L254.993 179H253.659V173.683C253.659 172.767 253.609 172.233 252.959 171.683C252.626 171.367 252.159 171.2 251.676 171.2C251.059 171.2 250.476 171.45 250.109 171.917C249.709 172.417 249.643 172.9 249.643 173.467V179H248.276V170H249.493V171.2C250.076 170.417 251.026 169.983 252.009 169.983C252.676 169.983 253.409 170.233 253.959 170.683C254.276 170.95 254.493 171.233 254.659 171.533C254.693 171.45 254.743 171.383 254.793 171.317C255.359 170.467 256.343 169.983 257.376 169.983C258.059 169.983 258.776 170.233 259.326 170.683ZM269.622 168C268.772 168.167 268.472 168.667 268.472 169.483V170H271.005V171.133H268.472V179H267.105V171.133H265.089V170H267.105V169.567C267.105 168.833 267.289 168.017 267.939 167.433C268.772 166.733 269.872 166.683 271.005 166.8V167.983C270.539 167.917 270.055 167.917 269.622 168ZM276.372 169.75C276.805 169.75 277.222 169.8 277.622 169.933V171.217C277.239 171.083 276.772 171 276.272 171.033C275.572 171.05 274.955 171.283 274.539 171.7C273.739 172.45 273.705 173.433 273.705 174.65V179H272.339V170H273.555V171.333C273.739 171.017 273.989 170.733 274.322 170.467C274.905 169.983 275.655 169.767 276.372 169.75ZM282.748 179.25C281.448 179.25 280.248 178.767 279.465 177.783C278.715 176.833 278.448 175.667 278.448 174.483C278.448 173.317 278.731 172.133 279.465 171.217C280.231 170.267 281.448 169.75 282.748 169.75C284.031 169.75 285.248 170.233 286.015 171.217C286.798 172.167 287.048 173.333 287.048 174.483C287.048 175.7 286.781 176.817 286.015 177.783C285.231 178.783 284.065 179.25 282.748 179.25ZM284.948 176.95C285.448 176.283 285.615 175.383 285.615 174.483C285.615 173.617 285.448 172.7 284.948 172.033C284.448 171.367 283.615 171.033 282.748 171.033C281.881 171.033 281.048 171.367 280.565 172.033C280.048 172.7 279.881 173.617 279.881 174.483C279.881 175.383 280.048 176.283 280.565 176.95C281.048 177.617 281.881 177.967 282.748 177.967C283.615 177.967 284.448 177.617 284.948 176.95ZM299.935 170.683C300.902 171.467 300.985 172.4 300.985 173.683V179H299.635V173.683C299.635 172.767 299.585 172.233 298.952 171.683C298.602 171.367 298.135 171.2 297.669 171.2C297.035 171.2 296.469 171.45 296.085 171.917C295.685 172.417 295.619 172.9 295.619 173.467V173.683L295.602 179H294.269V173.683C294.269 172.767 294.219 172.233 293.569 171.683C293.235 171.367 292.769 171.2 292.285 171.2C291.669 171.2 291.085 171.45 290.719 171.917C290.319 172.417 290.252 172.9 290.252 173.467V179H288.885V170H290.102V171.2C290.685 170.417 291.635 169.983 292.619 169.983C293.285 169.983 294.019 170.233 294.569 170.683C294.885 170.95 295.102 171.233 295.269 171.533C295.302 171.45 295.352 171.383 295.402 171.317C295.969 170.467 296.952 169.983 297.985 169.983C298.669 169.983 299.385 170.233 299.935 170.683ZM35.6833 193H37.0333V205H35.8333V203.85C35.1333 204.767 34.0333 205.25 32.7833 205.25C31.55 205.25 30.4167 204.75 29.6667 203.8C28.9167 202.85 28.6667 201.667 28.6667 200.483C28.6667 199.317 28.9333 198.117 29.6667 197.2C30.3833 196.267 31.5333 195.75 32.75 195.75C33.8833 195.75 34.95 196.183 35.6833 196.967V193ZM35.1 203.033C35.6333 202.383 35.8333 201.433 35.8333 200.483C35.8333 199.55 35.6333 198.6 35.1 197.95C34.6167 197.3 33.8167 197 32.9667 197C32.0667 197 31.2667 197.317 30.7667 198.017C30.2833 198.667 30.1 199.567 30.1 200.483C30.1 201.417 30.2667 202.317 30.75 202.95C31.25 203.65 32.0833 204 32.9333 204C33.8 204 34.6 203.667 35.1 203.033ZM40.5188 198.267L39.2688 197.683C39.3354 197.567 39.4354 197.4 39.5354 197.283C40.3188 196.233 41.4854 195.767 42.8354 195.767C44.4854 195.767 45.8354 196.367 46.4854 197.767C46.7354 198.283 46.8354 198.85 46.8354 199.367V205H45.6354V203.217C45.3021 203.867 44.6688 204.417 44.0521 204.717C43.3188 205.083 42.5354 205.267 41.7354 205.217C40.8354 205.183 39.9021 204.717 39.4188 204.017C39.0688 203.483 38.8854 203 38.8854 202.367C38.8854 201.417 39.3854 200.583 40.2021 200.083C41.1854 199.55 42.1688 199.467 43.5688 199.25L45.4354 199C45.3521 198.433 45.1021 197.933 44.6688 197.6C44.1854 197.2 43.5021 197.05 42.8188 197.05C41.9854 197.05 41.2021 197.333 40.7354 197.967C40.6521 198.067 40.5854 198.167 40.5188 198.267ZM45.4854 200.15C44.8188 200.25 44.2188 200.35 43.3021 200.5C41.8521 200.717 40.2688 200.983 40.2521 202.3C40.2354 203.133 40.9688 203.883 41.9188 203.967C43.1021 204.083 44.6021 203.4 45.1354 202.217C45.4854 201.483 45.4854 200.9 45.4854 200.15ZM55.1667 196.017H56.5333L52.4333 206.7C52.1 207.6 51.7 208.233 51.2 208.583C50.7167 208.95 50.1667 209 49.55 209L49.3333 208.983V207.683L49.6167 207.717C49.95 207.733 50.3 207.7 50.5333 207.517C50.8833 207.283 51.1167 206.733 51.6833 205.25L47.8333 196H49.2333L52.3167 203.517L55.1667 196.017ZM65.3885 205.25C64.0885 205.25 62.8885 204.767 62.1052 203.783C61.3552 202.833 61.0885 201.667 61.0885 200.483C61.0885 199.317 61.3719 198.133 62.1052 197.217C62.8719 196.267 64.0885 195.75 65.3885 195.75C66.6719 195.75 67.8885 196.233 68.6552 197.217C69.4385 198.167 69.6885 199.333 69.6885 200.483C69.6885 201.7 69.4219 202.817 68.6552 203.783C67.8719 204.783 66.7052 205.25 65.3885 205.25ZM67.5885 202.95C68.0885 202.283 68.2552 201.383 68.2552 200.483C68.2552 199.617 68.0885 198.7 67.5885 198.033C67.0885 197.367 66.2552 197.033 65.3885 197.033C64.5219 197.033 63.6885 197.367 63.2052 198.033C62.6885 198.7 62.5219 199.617 62.5219 200.483C62.5219 201.383 62.6885 202.283 63.2052 202.95C63.6885 203.617 64.5219 203.967 65.3885 203.967C66.2552 203.967 67.0885 203.617 67.5885 202.95ZM77.9094 196.533C79.1427 197.483 79.3594 198.917 79.3427 200.567V205H77.976V200.567C77.976 199.283 77.8427 198.217 76.976 197.567C76.526 197.233 75.9427 197.067 75.276 197.1C74.726 197.117 74.1927 197.3 73.7927 197.65C73.376 198.017 73.1094 198.55 72.9927 199.15C72.9094 199.517 72.8927 199.95 72.8927 200.383V205H71.526V196H72.7427V197.017C72.826 196.917 72.926 196.817 73.026 196.717C73.6927 196.117 74.576 195.817 75.3927 195.783C76.276 195.733 77.1927 196 77.9094 196.533ZM82.3208 200.867C82.3542 201.633 82.5375 202.383 82.9708 202.95C83.4542 203.617 84.2875 203.967 85.1542 203.967C86.0208 203.967 86.8375 203.617 87.3375 202.95C87.4542 202.783 87.5375 202.633 87.6208 202.467L88.9542 203.05C88.8208 203.3 88.6542 203.567 88.4542 203.8C87.6708 204.767 86.4208 205.283 85.1542 205.25C83.8708 205.217 82.6542 204.75 81.8708 203.783C81.1208 202.833 80.8542 201.65 80.8542 200.5C80.8708 199.317 81.1208 198.167 81.8708 197.217C82.6708 196.233 83.8542 195.75 85.1542 195.75C86.4542 195.75 87.6375 196.233 88.4208 197.217C89.1708 198.167 89.4375 199.333 89.4375 200.5C89.4375 200.617 89.4375 200.75 89.4208 200.867H82.3208ZM85.1542 197.033C84.2875 197.033 83.4542 197.383 82.9708 198.05C82.6208 198.517 82.4208 199.117 82.3542 199.733H87.9542C87.8875 199.117 87.6875 198.517 87.3375 198.05C86.8375 197.383 86.0208 197.033 85.1542 197.033ZM91.1979 203.467H92.7313V205H91.1979V203.467Z" fill="white"/>
<path d="M41.575 101H44.4V119H41.575V112.7H32.825V119H30V101H32.825V109.9H41.575V101ZM48.1484 101H50.9734V119H48.1484V101ZM68.5516 106.8C68.5766 108.075 68.0766 109.375 67.3016 110.35C66.2516 111.725 64.5266 112.6 62.6766 112.6H57.5516V119H54.7266V101H62.6766C63.3016 101 63.9516 101.1 64.5266 101.3C65.6016 101.65 66.5516 102.3 67.2266 103.2C68.0516 104.2 68.5266 105.5 68.5516 106.8ZM65.0016 108.75C65.4266 108.2 65.7016 107.525 65.6766 106.8C65.6516 106.025 65.3766 105.25 64.8516 104.7C64.3266 104.1 63.4516 103.65 62.6516 103.65H57.5516V109.95H62.6516C63.4766 109.95 64.4266 109.5 65.0016 108.75ZM80.7625 119L79.7625 115.925H71.9375L70.9625 119H68.0625L73.8375 101H77.9125L83.6875 119H80.7625ZM72.7875 113.275H78.9125L75.8375 103.775L72.7875 113.275ZM97.45 119L96.45 115.925H88.625L87.65 119H84.75L90.525 101H94.6L100.375 119H97.45ZM89.475 113.275H95.6L92.525 103.775L89.475 113.275ZM100.984 110.775H108.484V113.025H100.984V110.775ZM118.209 105.15C118.909 105.1 119.609 105.225 120.309 105.475V108.1C119.659 107.85 118.834 107.725 117.959 107.775C116.934 107.825 116.134 108.175 115.609 108.725C114.759 109.575 114.559 110.725 114.559 112.1V119H111.734V105.5H114.234V107.425C114.559 106.875 114.984 106.4 115.559 106C116.334 105.425 117.284 105.175 118.209 105.15ZM124.58 113.025C124.68 113.9 124.905 114.775 125.405 115.425C126.055 116.275 127.105 116.725 128.23 116.725C129.355 116.725 130.38 116.275 131.03 115.425C131.18 115.225 131.255 115.05 131.355 114.875L134.155 116.075C133.93 116.475 133.68 116.85 133.38 117.2C132.105 118.675 130.18 119.45 128.23 119.375C126.255 119.3 124.38 118.625 123.155 117.15C122.005 115.725 121.53 114 121.555 112.25C121.605 110.425 122.03 108.725 123.155 107.35C124.38 105.875 126.255 105.125 128.23 105.125C130.205 105.125 132.055 105.85 133.28 107.35C134.405 108.725 134.88 110.475 134.88 112.25C134.88 112.5 134.855 112.775 134.83 113.025H124.58ZM128.23 107.775C127.105 107.75 126.055 108.2 125.405 109.075C125.03 109.55 124.805 110.15 124.68 110.775H131.755C131.63 110.15 131.405 109.55 131.03 109.075C130.38 108.2 129.355 107.75 128.23 107.775ZM139.675 109.225L137.1 108C137.2 107.875 137.3 107.675 137.425 107.525C138.625 105.875 140.45 105.15 142.575 105.15C145.05 105.15 147.075 106 148.125 107.95C148.575 108.8 148.75 109.725 148.75 110.525V119H146.275V116.525C145.925 117.375 145.05 118.15 144.3 118.55C143.3 119.125 142.125 119.375 141.025 119.35C139.675 119.325 138.3 118.65 137.575 117.7C136.95 116.8 136.625 116.1 136.625 115.025C136.625 113.6 137.45 112.25 138.725 111.5C140.2 110.7 141.45 110.625 143.45 110.325L145.875 109.975C145.75 109.325 145.375 108.75 144.825 108.375C144.2 107.925 143.375 107.75 142.525 107.775C141.5 107.775 140.575 108.075 139.975 108.825C139.875 108.95 139.75 109.1 139.675 109.225ZM145.95 112.275C145.45 112.35 144.6 112.5 143.125 112.775C141.35 113.075 139.475 113.4 139.425 114.85C139.4 115.85 140.275 116.75 141.525 116.775C143.1 116.8 145.05 115.975 145.625 114.275C145.95 113.5 145.95 112.825 145.95 112.275ZM161.3 101H164.125V119H161.65V117.85C160.575 118.85 159.1 119.375 157.45 119.375C155.65 119.375 153.9 118.6 152.8 117.2C151.65 115.8 151.25 114.05 151.25 112.25C151.25 110.425 151.725 108.625 152.8 107.275C153.925 105.875 155.675 105.125 157.525 105.125C158.925 105.125 160.275 105.575 161.3 106.375V101ZM160.625 115.675C161.35 114.85 161.65 113.55 161.65 112.25C161.65 110.925 161.35 109.65 160.625 108.8C160 108.025 159.025 107.65 157.95 107.65C156.75 107.65 155.725 108.05 155.075 109C154.5 109.8 154.225 111 154.225 112.25C154.225 113.5 154.45 114.675 155.025 115.475C155.675 116.425 156.775 116.85 157.875 116.85C158.975 116.85 159.975 116.45 160.625 115.675ZM176.956 105.5H179.756L173.831 121.15C173.331 122.525 172.681 123.625 171.806 124.25C170.956 124.925 170.006 125 168.906 125H168.656V122.3L169.056 122.35C169.506 122.4 170.081 122.35 170.381 122.15C170.806 121.875 171.256 121.025 171.856 119.4L166.406 105.5H169.256L173.156 115.8L176.956 105.5ZM189.316 109.225L186.741 108C186.841 107.875 186.941 107.675 187.066 107.525C188.266 105.875 190.091 105.15 192.216 105.15C194.691 105.15 196.716 106 197.766 107.95C198.216 108.8 198.391 109.725 198.391 110.525V119H195.916V116.525C195.566 117.375 194.691 118.15 193.941 118.55C192.941 119.125 191.766 119.375 190.666 119.35C189.316 119.325 187.941 118.65 187.216 117.7C186.591 116.8 186.266 116.1 186.266 115.025C186.266 113.6 187.091 112.25 188.366 111.5C189.841 110.7 191.091 110.625 193.091 110.325L195.516 109.975C195.391 109.325 195.016 108.75 194.466 108.375C193.841 107.925 193.016 107.75 192.166 107.775C191.141 107.775 190.216 108.075 189.616 108.825C189.516 108.95 189.391 109.1 189.316 109.225ZM195.591 112.275C195.091 112.35 194.241 112.5 192.766 112.775C190.991 113.075 189.116 113.4 189.066 114.85C189.041 115.85 189.916 116.75 191.166 116.775C192.741 116.8 194.691 115.975 195.266 114.275C195.591 113.5 195.591 112.825 195.591 112.275ZM208.116 105.15C208.816 105.1 209.516 105.225 210.216 105.475V108.1C209.566 107.85 208.741 107.725 207.866 107.775C206.841 107.825 206.041 108.175 205.516 108.725C204.666 109.575 204.466 110.725 204.466 112.1V119H201.641V105.5H204.141V107.425C204.466 106.875 204.891 106.4 205.466 106C206.241 105.425 207.191 105.175 208.116 105.15ZM223.911 108.5L221.286 109.65C221.186 109.45 221.061 109.25 220.936 109.075C220.286 108.2 219.236 107.75 218.111 107.775C216.986 107.75 215.936 108.2 215.311 109.075C214.661 109.925 214.461 111.1 214.436 112.25C214.461 113.4 214.661 114.575 215.311 115.425C215.936 116.275 216.986 116.7 218.111 116.7C219.236 116.7 220.286 116.275 220.936 115.425C221.061 115.25 221.161 115.075 221.261 114.875L223.911 116.025C223.686 116.4 223.461 116.775 223.161 117.125C221.961 118.6 220.061 119.4 218.111 119.35C216.161 119.4 214.286 118.625 213.061 117.125C211.936 115.75 211.461 114.025 211.461 112.25C211.461 110.45 211.936 108.75 213.061 107.35C214.336 105.825 216.186 105.125 218.111 105.125C220.086 105.125 221.936 105.875 223.161 107.35C223.461 107.725 223.711 108.1 223.911 108.5ZM236.831 106.475C238.531 107.95 238.806 109.9 238.781 112.3V119H235.931V112.3C235.931 110.775 235.731 109.425 234.781 108.6C234.231 108.1 233.431 107.85 232.481 107.875C231.756 107.9 231.131 108.125 230.606 108.525C230.056 108.975 229.681 109.675 229.531 110.475C229.381 111.175 229.356 112.15 229.356 113.1V119H226.531V101H229.031V106.65L229.106 106.575C230.156 105.65 231.556 105.2 232.831 105.15C234.231 105.075 235.756 105.575 236.831 106.475ZM242.039 100.775H244.864V103.425H242.039V100.775ZM242.039 105.5H244.864V119H242.039V105.5ZM256.809 107.725H252.809V113.4C252.809 114.475 252.809 115.225 253.134 115.725C253.434 116.25 254.009 116.575 254.584 116.625C255.259 116.7 256.084 116.675 256.809 116.55V119C255.809 119.275 254.209 119.325 253.259 119.1C252.034 118.775 251.109 118.2 250.584 117.2C250.059 116.175 250.009 114.975 250.009 113.575V107.725H247.109V105.5H250.009V101.75H252.809V105.5H256.809V107.725ZM262.088 113.025C262.188 113.9 262.413 114.775 262.913 115.425C263.563 116.275 264.613 116.725 265.738 116.725C266.863 116.725 267.888 116.275 268.538 115.425C268.688 115.225 268.763 115.05 268.863 114.875L271.663 116.075C271.438 116.475 271.188 116.85 270.888 117.2C269.613 118.675 267.688 119.45 265.738 119.375C263.763 119.3 261.888 118.625 260.663 117.15C259.513 115.725 259.038 114 259.063 112.25C259.113 110.425 259.538 108.725 260.663 107.35C261.888 105.875 263.763 105.125 265.738 105.125C267.713 105.125 269.563 105.85 270.788 107.35C271.913 108.725 272.388 110.475 272.388 112.25C272.388 112.5 272.363 112.775 272.338 113.025H262.088ZM265.738 107.775C264.613 107.75 263.563 108.2 262.913 109.075C262.538 109.55 262.313 110.15 262.188 110.775H269.263C269.138 110.15 268.913 109.55 268.538 109.075C267.888 108.2 266.863 107.75 265.738 107.775ZM286.841 108.5L284.216 109.65C284.116 109.45 283.991 109.25 283.866 109.075C283.216 108.2 282.166 107.75 281.041 107.775C279.916 107.75 278.866 108.2 278.241 109.075C277.591 109.925 277.391 111.1 277.366 112.25C277.391 113.4 277.591 114.575 278.241 115.425C278.866 116.275 279.916 116.7 281.041 116.7C282.166 116.7 283.216 116.275 283.866 115.425C283.991 115.25 284.091 115.075 284.191 114.875L286.841 116.025C286.616 116.4 286.391 116.775 286.091 117.125C284.891 118.6 282.991 119.4 281.041 119.35C279.091 119.4 277.216 118.625 275.991 117.125C274.866 115.75 274.391 114.025 274.391 112.25C274.391 110.45 274.866 108.75 275.991 107.35C277.266 105.825 279.116 105.125 281.041 105.125C283.016 105.125 284.866 105.875 286.091 107.35C286.391 107.725 286.641 108.1 286.841 108.5ZM297.661 107.725H293.661V113.4C293.661 114.475 293.661 115.225 293.986 115.725C294.286 116.25 294.861 116.575 295.436 116.625C296.111 116.7 296.936 116.675 297.661 116.55V119C296.661 119.275 295.061 119.325 294.111 119.1C292.886 118.775 291.961 118.2 291.436 117.2C290.911 116.175 290.861 114.975 290.861 113.575V107.725H287.961V105.5H290.861V101.75H293.661V105.5H297.661V107.725ZM309.589 105.5H312.414V119H309.939V117.825L309.864 117.9C308.814 118.85 307.414 119.3 306.139 119.35C304.714 119.425 303.214 118.925 302.139 118C300.414 116.55 300.164 114.6 300.164 112.2V105.5H303.014V112.2C303.014 113.725 303.214 115.075 304.164 115.875C304.739 116.4 305.539 116.625 306.489 116.625C307.189 116.6 307.839 116.375 308.339 115.95C308.914 115.525 309.289 114.825 309.439 114.025C309.589 113.325 309.589 112.375 309.589 111.4V111.375V105.5ZM322.397 105.15C323.097 105.1 323.797 105.225 324.497 105.475V108.1C323.847 107.85 323.022 107.725 322.147 107.775C321.122 107.825 320.322 108.175 319.797 108.725C318.947 109.575 318.747 110.725 318.747 112.1V119H315.922V105.5H318.422V107.425C318.747 106.875 319.172 106.4 319.747 106C320.522 105.425 321.472 105.175 322.397 105.15ZM328.767 113.025C328.867 113.9 329.092 114.775 329.592 115.425C330.242 116.275 331.292 116.725 332.417 116.725C333.542 116.725 334.567 116.275 335.217 115.425C335.367 115.225 335.442 115.05 335.542 114.875L338.342 116.075C338.117 116.475 337.867 116.85 337.567 117.2C336.292 118.675 334.367 119.45 332.417 119.375C330.442 119.3 328.567 118.625 327.342 117.15C326.192 115.725 325.717 114 325.742 112.25C325.792 110.425 326.217 108.725 327.342 107.35C328.567 105.875 330.442 105.125 332.417 105.125C334.392 105.125 336.242 105.85 337.467 107.35C338.592 108.725 339.067 110.475 339.067 112.25C339.067 112.5 339.042 112.775 339.017 113.025H328.767ZM332.417 107.775C331.292 107.75 330.242 108.2 329.592 109.075C329.217 109.55 328.992 110.15 328.867 110.775H335.942C335.817 110.15 335.592 109.55 335.217 109.075C334.567 108.2 333.542 107.75 332.417 107.775Z" fill="white"/>
<rect x="28" y="35" width="52" height="52" rx="5" fill="#14131F"/>
<path d="M52.9611 71.5332C52.6532 71.4492 52.273 71.2183 52.1214 71.1133C51.5335 71.3932 51.5965 72.6295 51.7015 73.2127C51.7948 73.7959 52.0654 75.2141 52.4013 76.2218C52.7372 77.2295 53.381 77.3882 53.6609 77.3415C53.346 77.2715 53.0311 76.8167 52.8912 76.5018C52.7792 76.2498 52.6112 74.7173 52.5413 73.9825C52.5179 73.5159 52.4713 72.4989 52.4713 72.163C52.4713 71.8271 52.7979 71.6031 52.9611 71.5332Z" fill="#515155"/>
<path d="M51.2786 67.0547C51.6705 67.2226 52.2816 67.4046 52.5382 67.4746C52.3866 67.5679 52.0484 67.9294 51.9084 68.6292C51.7685 69.329 52.3866 69.8306 52.7132 69.9939C52.9348 70.1222 53.6649 70.3997 54.8126 70.4837C55.9603 70.5677 56.4571 71.2885 56.5621 71.6384C56.6741 72.2262 56.5621 73.1196 56.4921 73.4929L56.1072 75.4173C56.0256 75.7206 55.7993 76.446 55.5474 76.9219C55.2955 77.3978 54.7659 77.4001 54.5327 77.3418C55.1485 77.1458 55.3958 76.2804 55.4424 75.8722C55.4774 75.6039 55.5824 74.7525 55.7223 73.4929C55.8623 72.2332 55.7107 71.825 55.6174 71.7783C55.4774 71.6151 54.9735 71.2885 54.0778 71.2885C53.1821 71.2885 52.3749 70.9852 52.0834 70.8336C51.6285 70.577 50.7188 69.8119 50.7188 68.8042C50.7188 67.7965 51.092 67.218 51.2786 67.0547Z" fill="#515155"/>
<path d="M50.3728 62.5039C50.8487 62.8118 51.7375 63.0054 52.1223 63.0637V63.2037C51.9611 63.2471 51.8256 63.3199 51.712 63.4111C51.0317 63.9573 51.0422 65.2351 51.8424 65.583C52.3672 65.793 52.7521 65.9679 54.2917 65.9679C55.5233 65.9679 56.3211 66.4111 56.566 66.6327C56.9276 66.901 57.6507 67.6964 57.6507 68.7321C57.6507 69.7678 56.741 70.5633 56.2861 70.8315C55.8102 70.4397 55.2014 70.2717 54.9565 70.2367C55.5396 70.0851 56.657 69.5299 56.461 68.5222C56.2651 67.5145 55.3297 67.2159 54.8865 67.1926H52.4022C51.8962 67.1337 51.4425 66.9533 51.0667 66.737C50.2812 66.2849 49.7023 65.4742 49.673 64.5683C49.645 63.7006 50.1279 62.8305 50.3728 62.5039Z" fill="#515155"/>
<path d="M49.4625 57.1855C49.9663 57.5494 51.1653 57.8037 51.7018 57.8853C51.142 58.037 50.0433 58.5852 50.1273 59.5649C50.2113 60.5446 51.7019 61.0461 52.4367 61.1744L55.2359 61.3494C56.099 61.3727 57.9721 61.8672 58.5599 63.6587C59.1478 65.4502 57.9884 66.3879 57.3353 66.6329C56.8594 66.185 56.1806 65.9097 55.9007 65.8281C57.1043 65.6042 57.2886 64.8017 57.2303 64.4285C57.1183 63.3088 55.9473 62.9356 55.3758 62.8889C55.1659 62.8889 54.3681 62.8749 52.8566 62.8189C51.345 62.763 50.0107 62.0725 49.5325 61.7343C49.1942 61.501 48.4967 60.7545 48.4128 59.6349C48.3288 58.5152 49.0776 57.5354 49.4625 57.1855Z" fill="#515155"/>
<path d="M54.4264 71.6719H53.7965L53.8665 78.1101C53.8199 78.1917 53.7266 78.432 53.7266 78.7399C53.7266 79.0478 53.9132 79.4747 54.0065 79.6496C54.0415 79.7079 54.1115 79.8596 54.1115 79.9995C54.1115 79.8596 54.1814 79.7079 54.2164 79.6496C54.3097 79.498 54.4963 79.1038 54.4963 78.7399C54.4963 78.376 54.403 78.1684 54.3564 78.1101L54.4264 71.6719Z" fill="#515155"/>
<path d="M54.4967 67.4746H53.7266L53.7966 70.0649H54.4266L54.4967 67.4746Z" fill="#515155"/>
<path d="M54.5664 63.1348H53.6562L53.7263 65.6551H54.4963L54.5664 63.1348Z" fill="#515155"/>
<path d="M54.6975 57.8867H53.5078L53.5778 60.8959H54.6275L54.6975 57.8867Z" fill="#515155"/>
<path d="M54.7749 55.3674H53.4453V52.1484L53.6553 51.3086H54.565L54.7749 52.1484V55.3674Z" fill="#515155"/>
<path d="M59.3276 53.8265C59.1877 54.9462 57.2632 55.4827 56.3185 55.611C57.1862 55.779 58.4762 56.4507 59.0128 56.7656C60.3285 56.2058 60.9606 55.2027 61.1122 54.7712C61.5041 53.9314 61.3922 52.835 61.2872 52.3918C61.1822 52.0069 60.7483 51.1042 59.8526 50.5724C58.7329 49.9075 57.4733 49.7676 56.5985 49.7676C55.7238 49.7676 54.7439 50.4324 54.674 50.9223C54.604 51.4121 56.3185 51.972 56.7734 51.6921C57.2282 51.4122 58.103 51.2372 58.3129 51.3772C58.4809 51.4891 58.6628 51.6571 58.7328 51.7271C58.9894 51.9603 59.4676 52.7068 59.3276 53.8265Z" fill="#515155"/>
<ellipse cx="55.9327" cy="50.3646" rx="0.245157" ry="0.175112" fill="white"/>
<path d="M51.702 51.7289C52.7657 51.8688 53.4515 51.2973 53.6615 50.9941C53.6263 50.5042 52.8919 50.0143 52.0871 49.8044C51.4433 49.6364 50.6059 49.8277 50.2677 49.9444C48.7561 50.0843 47.7484 51.0757 47.4335 51.5539C47.2003 51.9155 46.7967 52.9535 47.0487 54.2131C47.3006 55.4728 48.5532 56.4408 49.1481 56.7674C49.9038 57.2713 51.6557 57.4672 52.4371 57.5372C52.9503 57.5605 54.1936 57.6142 55.0614 57.6422C55.9291 57.6702 56.6593 57.8871 56.9159 57.9921C57.1141 58.0854 57.5947 58.37 57.9306 58.7619C58.2665 59.1537 58.2338 59.7183 58.1755 59.9515C57.8956 60.4274 56.7292 60.9429 56.1811 61.1412C56.7969 61.2252 57.7673 61.8293 58.1755 62.1209C58.7237 61.8993 59.834 61.0922 59.89 59.6366C59.96 57.8171 58.4904 56.7324 57.4407 56.3126C56.391 55.8927 54.6765 55.8577 52.4371 55.6827C50.6456 55.5428 49.5679 54.7847 49.2529 54.4231C48.5531 52.9675 49.416 51.7872 49.9525 51.379C50.2324 51.344 50.8483 51.309 51.0722 51.4489C51.2961 51.5889 51.5854 51.6939 51.702 51.7289Z" fill="#515155"/>
<ellipse cx="52.292" cy="50.3646" rx="0.245157" ry="0.175112" fill="white"/>
<path d="M54.4637 49.4495L55.0926 50.0485C55.1742 49.9085 55.5054 49.5936 56.1773 49.4537C56.8491 49.3137 57.8568 48.7189 58.2767 48.439C59.2097 47.9491 61.1948 46.9204 61.6707 46.7244C62.2655 46.4795 63.0703 46.6195 63.5951 46.6545C64.12 46.6895 65.6946 46.5145 65.7646 45.9197C65.8206 45.4438 63.6418 44.4617 62.5455 44.0302C61.9623 43.7386 60.5231 43.1764 59.4314 43.2604C58.3397 43.3444 57.7868 44.0652 57.6469 44.4151L57.5769 45.8847C57.4929 46.8364 56.6088 47.7042 56.1773 48.0191L54.5372 48.9022C54.4267 48.9617 54.3578 49.077 54.3578 49.2025C54.3578 49.2959 54.3961 49.3851 54.4637 49.4495Z" fill="#515155"/>
<path d="M62.8558 49.3151C64.9272 50.3788 67.0546 50.6681 67.8594 50.6797C67.2995 51.1346 65.627 51.8694 63.4156 51.1696C61.2043 50.4698 59.1585 49.3151 58.4121 48.8253C58.8879 48.3214 59.8933 47.9388 60.3365 47.8105C60.3132 47.8689 60.7844 48.2514 62.8558 49.3151Z" fill="#515155"/>
<path d="M66.2649 48.4045C68.7003 49.4122 71.5718 49.6408 72.7031 49.6292C72.0733 50.294 69.484 50.8538 66.2649 50.084C63.6897 49.4682 61.553 48.2179 60.8065 47.6697C61.3383 46.8859 62.3577 46.8766 62.8009 46.9699C62.9409 47.0282 63.8296 47.3968 66.2649 48.4045Z" fill="#515155"/>
<path d="M69.824 46.8298C72.2594 47.3896 75.2009 47.7628 76.3672 47.8795C76.0989 48.276 75.4924 49.209 73.1131 49.209C71.1505 49.209 68.6111 48.7192 67.5847 48.4043L63.3859 46.9697C63.9177 47.0257 64.4939 46.993 64.7155 46.9697C65.8352 46.7737 66.1617 46.1883 66.1851 45.92C66.381 45.836 67.0832 46.0716 67.4097 46.1999L69.824 46.8298Z" fill="#515155"/>
<path d="M53.8957 49.4495L53.2668 50.0485C53.1852 49.9085 52.8539 49.5936 52.1821 49.4537C51.5103 49.3137 50.5026 48.7189 50.0827 48.439C49.1497 47.9491 47.1645 46.9204 46.6887 46.7244C46.0939 46.4795 45.2891 46.6195 44.7642 46.6545C44.2394 46.6895 42.6648 46.5145 42.5948 45.9197C42.5388 45.4438 44.7175 44.4617 45.8139 44.0302C46.3971 43.7386 47.8363 43.1764 48.928 43.2604C50.0197 43.3444 50.5725 44.0652 50.7125 44.4151L50.7825 45.8847C50.8665 46.8364 51.7505 47.7042 52.1821 48.0191L53.8222 48.9022C53.9327 48.9617 54.0016 49.077 54.0016 49.2025C54.0016 49.2959 53.9633 49.3851 53.8957 49.4495Z" fill="#515155"/>
<path d="M45.5114 49.3151C43.44 50.3788 41.3126 50.6681 40.5078 50.6797C41.0677 51.1346 42.7402 51.8694 44.9516 51.1696C47.1629 50.4698 49.2087 49.3151 49.9551 48.8253C49.4793 48.3214 48.4739 47.9388 48.0307 47.8105C48.054 47.8689 47.5828 48.2514 45.5114 49.3151Z" fill="#515155"/>
<path d="M42.1022 48.4045C39.6669 49.4122 36.7954 49.6408 35.6641 49.6292C36.2939 50.294 38.8832 50.8538 42.1022 50.084C44.6775 49.4682 46.8142 48.2179 47.5607 47.6697C47.0288 46.8859 46.0095 46.8766 45.5663 46.9699C45.4263 47.0282 44.5375 47.3968 42.1022 48.4045Z" fill="#515155"/>
<path d="M38.5431 46.8298C36.1078 47.3896 33.1663 47.7628 32 47.8795C32.2683 48.276 32.8748 49.209 35.2541 49.209C37.2167 49.209 39.7561 48.7192 40.7825 48.4043L44.9813 46.9697C44.4495 47.0257 43.8733 46.993 43.6517 46.9697C42.532 46.7737 42.2054 46.1883 42.1821 45.92C41.9862 45.836 41.284 46.0716 40.9575 46.1999L38.5431 46.8298Z" fill="#515155"/>
<path d="M54.572 48.5092H53.6619L53.7319 46.689H53.4519C53.2973 46.689 53.1719 46.5636 53.1719 46.4089C53.1719 46.2543 53.2973 46.1289 53.4519 46.1289H54.7821C54.9367 46.1289 55.0621 46.2543 55.0621 46.4089C55.0621 46.5636 54.9367 46.689 54.7821 46.689H54.502L54.572 48.5092Z" fill="#515155"/>
<circle cx="54.1198" cy="43.9245" r="1.92445" fill="#515155"/>
</svg>
