<svg width="340" height="190" viewBox="0 0 390 240" fill="none" xmlns="http://www.w3.org/2000/svg">
<rect x="0.5" y="0.5" width="389" height="239" rx="14.5" fill="#0E0D18" stroke="#43424B"/>
<path d="M37.6833 144.017L36.3333 144.383C36.0167 143.617 35.6 142.967 34.9 142.55C34.4 142.25 33.7333 142.05 33.0833 142.05C32.45 142.033 31.8333 142.167 31.35 142.433C30.7833 142.75 30.4167 143.35 30.4167 143.95C30.4167 144.35 30.5667 144.733 30.8333 145C31.1833 145.367 31.8333 145.617 32.4833 145.817L34.6333 146.45C35.5 146.7 36.2167 147.05 36.8 147.6C37.4 148.183 37.7833 149 37.7667 149.867C37.7667 150.85 37.2333 151.883 36.3833 152.467C35.55 153.067 34.4333 153.25 33.2833 153.25C31.7333 153.25 30.3667 152.767 29.4833 151.583C28.9667 150.917 28.6667 150.133 28.5 149.383L29.8667 149.017C29.9833 149.65 30.2 150.267 30.5667 150.733C31.2 151.617 32.2833 151.967 33.3333 151.967C34.1167 151.967 35.0333 151.75 35.5833 151.35C36.1167 150.967 36.3333 150.367 36.3333 149.817C36.3333 149.35 36.15 148.917 35.8 148.583C35.4167 148.2 34.9167 147.95 34.3 147.783L32.1 147.133C31.3 146.883 30.5 146.583 29.8667 146.017C29.2667 145.467 28.9833 144.633 28.9833 143.9C28.9833 142.783 29.7333 141.733 30.7167 141.25C31.5 140.85 32.3167 140.75 33.0833 140.75C33.9333 140.75 34.85 140.933 35.5833 141.367C36.55 141.933 37.2667 142.867 37.6833 144.017ZM41.799 145.133V149.6C41.799 150.35 41.7823 150.8 41.999 151.183C42.1823 151.583 42.599 151.817 43.049 151.85C43.5156 151.9 44.0656 151.883 44.5323 151.8V153C43.9323 153.15 43.099 153.183 42.5156 153.067C41.7156 152.917 41.099 152.55 40.7656 151.867C40.449 151.233 40.449 150.533 40.449 149.667V145.133H38.4323V144H40.449V141.5H41.799V144H44.5323V145.133H41.799ZM47.6594 146.267L46.4094 145.683C46.476 145.567 46.576 145.4 46.676 145.283C47.4594 144.233 48.626 143.767 49.976 143.767C51.626 143.767 52.976 144.367 53.626 145.767C53.876 146.283 53.976 146.85 53.976 147.367V153H52.776V151.217C52.4427 151.867 51.8094 152.417 51.1927 152.717C50.4594 153.083 49.676 153.267 48.876 153.217C47.976 153.183 47.0427 152.717 46.5594 152.017C46.2094 151.483 46.026 151 46.026 150.367C46.026 149.417 46.526 148.583 47.3427 148.083C48.326 147.55 49.3094 147.467 50.7094 147.25L52.576 147C52.4927 146.433 52.2427 145.933 51.8094 145.6C51.326 145.2 50.6427 145.05 49.9594 145.05C49.126 145.05 48.3427 145.333 47.876 145.967C47.7927 146.067 47.726 146.167 47.6594 146.267ZM52.626 148.15C51.9594 148.25 51.3594 148.35 50.4427 148.5C48.9927 148.717 47.4094 148.983 47.3927 150.3C47.376 151.133 48.1094 151.883 49.0594 151.967C50.2427 152.083 51.7427 151.4 52.276 150.217C52.626 149.483 52.626 148.9 52.626 148.15ZM64.9188 142C64.0688 142.167 63.7688 142.667 63.7688 143.483V144H66.3188V145.133H63.7688V153H62.4188V145.133H58.5188V153H57.1521V145.133H55.1354V144H57.1521V143.567C57.1521 142.833 57.3354 142.017 57.9854 141.433C58.8188 140.733 59.9188 140.683 61.0521 140.8V141.983C60.5854 141.917 60.1021 141.917 59.6688 142C58.8188 142.167 58.5188 142.667 58.5188 143.483V144H62.4188V143.567C62.4188 142.833 62.6021 142.017 63.2354 141.433C64.0688 140.733 65.1688 140.683 66.3188 140.8V141.983C65.8521 141.917 65.3521 141.917 64.9188 142ZM75.1698 153.25C73.8698 153.25 72.6698 152.767 71.8865 151.783C71.1365 150.833 70.8698 149.667 70.8698 148.483C70.8698 147.317 71.1531 146.133 71.8865 145.217C72.6531 144.267 73.8698 143.75 75.1698 143.75C76.4531 143.75 77.6698 144.233 78.4365 145.217C79.2198 146.167 79.4698 147.333 79.4698 148.483C79.4698 149.7 79.2031 150.817 78.4365 151.783C77.6531 152.783 76.4865 153.25 75.1698 153.25ZM77.3698 150.95C77.8698 150.283 78.0365 149.383 78.0365 148.483C78.0365 147.617 77.8698 146.7 77.3698 146.033C76.8698 145.367 76.0365 145.033 75.1698 145.033C74.3031 145.033 73.4698 145.367 72.9865 146.033C72.4698 146.7 72.3031 147.617 72.3031 148.483C72.3031 149.383 72.4698 150.283 72.9865 150.95C73.4698 151.617 74.3031 151.967 75.1698 151.967C76.0365 151.967 76.8698 151.617 77.3698 150.95ZM87.6906 144.533C88.924 145.483 89.1406 146.917 89.124 148.567V153H87.7573V148.567C87.7573 147.283 87.624 146.217 86.7573 145.567C86.3073 145.233 85.724 145.067 85.0573 145.1C84.5073 145.117 83.974 145.3 83.574 145.65C83.1573 146.017 82.8906 146.55 82.774 147.15C82.6906 147.517 82.674 147.95 82.674 148.383V153H81.3073V144H82.524V145.017C82.6073 144.917 82.7073 144.817 82.8073 144.717C83.474 144.117 84.3573 143.817 85.174 143.783C86.0573 143.733 86.974 144 87.6906 144.533ZM91.1354 153V140.75H92.4854V153H91.1354ZM101.323 144.017H102.69L98.5896 154.7C98.2563 155.6 97.8563 156.233 97.3563 156.583C96.8729 156.95 96.3229 157 95.7063 157L95.4896 156.983V155.683L95.7729 155.717C96.1063 155.733 96.4563 155.7 96.6896 155.517C97.0396 155.283 97.2729 154.733 97.8396 153.25L93.9896 144H95.3896L98.4729 151.517L101.323 144.017ZM114.778 146.367L113.445 146.683C113.245 146.133 112.828 145.617 112.311 145.35C111.928 145.15 111.461 145.05 110.978 145.05C110.495 145.033 110.028 145.117 109.645 145.3C109.245 145.517 108.978 145.867 108.978 146.233C108.978 146.5 109.061 146.717 109.261 146.917C109.478 147.133 109.795 147.283 110.395 147.45C110.845 147.583 111.411 147.733 112.111 147.917C112.778 148.1 113.328 148.3 113.861 148.75C114.545 149.3 114.861 149.967 114.795 150.767C114.728 151.533 114.295 152.233 113.645 152.65C112.945 153.1 112.028 153.233 111.128 153.233C109.945 153.233 108.878 152.9 108.111 152.083C107.595 151.5 107.278 150.667 107.161 150.05L108.478 149.733C108.545 150.233 108.745 150.8 109.095 151.2C109.611 151.767 110.378 151.95 111.111 151.95C111.728 151.95 112.478 151.817 112.895 151.533C113.211 151.3 113.361 151 113.411 150.65C113.445 150.3 113.311 149.983 113.028 149.75C112.745 149.483 112.395 149.35 111.728 149.15C111.278 149.017 110.778 148.883 110.161 148.717C109.478 148.533 108.911 148.35 108.395 147.933C107.828 147.5 107.578 146.85 107.578 146.25C107.578 145.3 108.245 144.483 109.078 144.1C109.728 143.817 110.378 143.733 111.011 143.75C111.628 143.75 112.311 143.883 112.911 144.183C113.761 144.633 114.511 145.483 114.778 146.367ZM117.524 148.867C117.557 149.633 117.741 150.383 118.174 150.95C118.657 151.617 119.491 151.967 120.357 151.967C121.224 151.967 122.041 151.617 122.541 150.95C122.657 150.783 122.741 150.633 122.824 150.467L124.157 151.05C124.024 151.3 123.857 151.567 123.657 151.8C122.874 152.767 121.624 153.283 120.357 153.25C119.074 153.217 117.857 152.75 117.074 151.783C116.324 150.833 116.057 149.65 116.057 148.5C116.074 147.317 116.324 146.167 117.074 145.217C117.874 144.233 119.057 143.75 120.357 143.75C121.657 143.75 122.841 144.233 123.624 145.217C124.374 146.167 124.641 147.333 124.641 148.5C124.641 148.617 124.641 148.75 124.624 148.867H117.524ZM120.357 145.033C119.491 145.033 118.657 145.383 118.174 146.05C117.824 146.517 117.624 147.117 117.557 147.733H123.157C123.091 147.117 122.891 146.517 122.541 146.05C122.041 145.383 121.224 145.033 120.357 145.033ZM127.446 148.867C127.479 149.633 127.663 150.383 128.096 150.95C128.579 151.617 129.413 151.967 130.279 151.967C131.146 151.967 131.963 151.617 132.463 150.95C132.579 150.783 132.663 150.633 132.746 150.467L134.079 151.05C133.946 151.3 133.779 151.567 133.579 151.8C132.796 152.767 131.546 153.283 130.279 153.25C128.996 153.217 127.779 152.75 126.996 151.783C126.246 150.833 125.979 149.65 125.979 148.5C125.996 147.317 126.246 146.167 126.996 145.217C127.796 144.233 128.979 143.75 130.279 143.75C131.579 143.75 132.763 144.233 133.546 145.217C134.296 146.167 134.563 147.333 134.563 148.5C134.563 148.617 134.563 148.75 134.546 148.867H127.446ZM130.279 145.033C129.413 145.033 128.579 145.383 128.096 146.05C127.746 146.517 127.546 147.117 127.479 147.733H133.079C133.013 147.117 132.813 146.517 132.463 146.05C131.963 145.383 131.146 145.033 130.279 145.033ZM150.003 144H151.336L148.586 153H147.236L145.236 146.2L143.153 153H141.87L139.12 144H140.486L142.553 150.783L144.62 144H145.836L147.92 150.783L150.003 144ZM159.05 144.533C160.283 145.483 160.5 146.917 160.483 148.567V153H159.117V148.567C159.117 147.283 158.983 146.217 158.117 145.567C157.667 145.233 157.083 145.067 156.417 145.1C155.867 145.117 155.333 145.3 154.933 145.65C154.517 146.017 154.25 146.55 154.133 147.15C154.05 147.517 154.033 147.95 154.033 148.383V153H152.667V141H153.883V145.017C153.967 144.917 154.067 144.817 154.167 144.717C154.833 144.117 155.717 143.817 156.533 143.783C157.417 143.733 158.333 144 159.05 144.533ZM163.613 146.267L162.363 145.683C162.429 145.567 162.529 145.4 162.629 145.283C163.413 144.233 164.579 143.767 165.929 143.767C167.579 143.767 168.929 144.367 169.579 145.767C169.829 146.283 169.929 146.85 169.929 147.367V153H168.729V151.217C168.396 151.867 167.763 152.417 167.146 152.717C166.413 153.083 165.629 153.267 164.829 153.217C163.929 153.183 162.996 152.717 162.513 152.017C162.163 151.483 161.979 151 161.979 150.367C161.979 149.417 162.479 148.583 163.296 148.083C164.279 147.55 165.263 147.467 166.663 147.25L168.529 147C168.446 146.433 168.196 145.933 167.763 145.6C167.279 145.2 166.596 145.05 165.913 145.05C165.079 145.05 164.296 145.333 163.829 145.967C163.746 146.067 163.679 146.167 163.613 146.267ZM168.579 148.15C167.913 148.25 167.313 148.35 166.396 148.5C164.946 148.717 163.363 148.983 163.346 150.3C163.329 151.133 164.063 151.883 165.013 151.967C166.196 152.083 167.696 151.4 168.229 150.217C168.579 149.483 168.579 148.9 168.579 148.15ZM174.455 145.133V149.6C174.455 150.35 174.439 150.8 174.655 151.183C174.839 151.583 175.255 151.817 175.705 151.85C176.172 151.9 176.722 151.883 177.189 151.8V153C176.589 153.15 175.755 153.183 175.172 153.067C174.372 152.917 173.755 152.55 173.422 151.867C173.105 151.233 173.105 150.533 173.105 149.667V145.133H171.089V144H173.105V141.5H174.455V144H177.189V145.133H174.455ZM185.268 145.133V149.6C185.268 150.35 185.251 150.8 185.468 151.183C185.651 151.583 186.068 151.817 186.518 151.85C186.984 151.9 187.534 151.883 188.001 151.8V153C187.401 153.15 186.568 153.183 185.984 153.067C185.184 152.917 184.568 152.55 184.234 151.867C183.918 151.233 183.918 150.533 183.918 149.667V145.133H181.901V144H183.918V141.5H185.268V144H188.001V145.133H185.268ZM196.378 144.533C197.611 145.483 197.828 146.917 197.811 148.567V153H196.445V148.567C196.445 147.283 196.311 146.217 195.445 145.567C194.995 145.233 194.411 145.067 193.745 145.1C193.195 145.117 192.661 145.3 192.261 145.65C191.845 146.017 191.578 146.55 191.461 147.15C191.378 147.517 191.361 147.95 191.361 148.383V153H189.995V141H191.211V145.017C191.295 144.917 191.395 144.817 191.495 144.717C192.161 144.117 193.045 143.817 193.861 143.783C194.745 143.733 195.661 144 196.378 144.533ZM200.774 148.867C200.807 149.633 200.991 150.383 201.424 150.95C201.907 151.617 202.741 151.967 203.607 151.967C204.474 151.967 205.291 151.617 205.791 150.95C205.907 150.783 205.991 150.633 206.074 150.467L207.407 151.05C207.274 151.3 207.107 151.567 206.907 151.8C206.124 152.767 204.874 153.283 203.607 153.25C202.324 153.217 201.107 152.75 200.324 151.783C199.574 150.833 199.307 149.65 199.307 148.5C199.324 147.317 199.574 146.167 200.324 145.217C201.124 144.233 202.307 143.75 203.607 143.75C204.907 143.75 206.091 144.233 206.874 145.217C207.624 146.167 207.891 147.333 207.891 148.5C207.891 148.617 207.891 148.75 207.874 148.867H200.774ZM203.607 145.033C202.741 145.033 201.907 145.383 201.424 146.05C201.074 146.517 200.874 147.117 200.807 147.733H206.407C206.341 147.117 206.141 146.517 205.791 146.05C205.291 145.383 204.474 145.033 203.607 145.033ZM209.896 141H211.246V142.45H209.896V141ZM209.896 144H211.246V153H209.896V144ZM217.778 143.75C218.211 143.75 218.628 143.8 219.028 143.933V145.217C218.645 145.083 218.178 145 217.678 145.033C216.978 145.05 216.361 145.283 215.945 145.7C215.145 146.45 215.111 147.433 215.111 148.65V153H213.745V144H214.961V145.333C215.145 145.017 215.395 144.733 215.728 144.467C216.311 143.983 217.061 143.767 217.778 143.75ZM228.356 143.75C228.79 143.75 229.206 143.8 229.606 143.933V145.217C229.223 145.083 228.756 145 228.256 145.033C227.556 145.05 226.94 145.283 226.523 145.7C225.723 146.45 225.69 147.433 225.69 148.65V153H224.323V144H225.54V145.333C225.723 145.017 225.973 144.733 226.306 144.467C226.89 143.983 227.64 143.767 228.356 143.75ZM234.732 153.25C233.432 153.25 232.232 152.767 231.449 151.783C230.699 150.833 230.432 149.667 230.432 148.483C230.432 147.317 230.716 146.133 231.449 145.217C232.216 144.267 233.432 143.75 234.732 143.75C236.016 143.75 237.232 144.233 237.999 145.217C238.782 146.167 239.032 147.333 239.032 148.483C239.032 149.7 238.766 150.817 237.999 151.783C237.216 152.783 236.049 153.25 234.732 153.25ZM236.932 150.95C237.432 150.283 237.599 149.383 237.599 148.483C237.599 147.617 237.432 146.7 236.932 146.033C236.432 145.367 235.599 145.033 234.732 145.033C233.866 145.033 233.032 145.367 232.549 146.033C232.032 146.7 231.866 147.617 231.866 148.483C231.866 149.383 232.032 150.283 232.549 150.95C233.032 151.617 233.866 151.967 234.732 151.967C235.599 151.967 236.432 151.617 236.932 150.95ZM240.87 153V140.75H242.22V153H240.87ZM245.524 148.867C245.557 149.633 245.741 150.383 246.174 150.95C246.657 151.617 247.491 151.967 248.357 151.967C249.224 151.967 250.041 151.617 250.541 150.95C250.657 150.783 250.741 150.633 250.824 150.467L252.157 151.05C252.024 151.3 251.857 151.567 251.657 151.8C250.874 152.767 249.624 153.283 248.357 153.25C247.074 153.217 245.857 152.75 245.074 151.783C244.324 150.833 244.057 149.65 244.057 148.5C244.074 147.317 244.324 146.167 245.074 145.217C245.874 144.233 247.057 143.75 248.357 143.75C249.657 143.75 250.841 144.233 251.624 145.217C252.374 146.167 252.641 147.333 252.641 148.5C252.641 148.617 252.641 148.75 252.624 148.867H245.524ZM248.357 145.033C247.491 145.033 246.657 145.383 246.174 146.05C245.824 146.517 245.624 147.117 245.557 147.733H251.157C251.091 147.117 250.891 146.517 250.541 146.05C250.041 145.383 249.224 145.033 248.357 145.033ZM262.231 143.75C262.665 143.75 263.081 143.8 263.481 143.933V145.217C263.098 145.083 262.631 145 262.131 145.033C261.431 145.05 260.815 145.283 260.398 145.7C259.598 146.45 259.565 147.433 259.565 148.65V153H258.198V144H259.415V145.333C259.598 145.017 259.848 144.733 260.181 144.467C260.765 143.983 261.515 143.767 262.231 143.75ZM265.774 148.867C265.807 149.633 265.991 150.383 266.424 150.95C266.907 151.617 267.741 151.967 268.607 151.967C269.474 151.967 270.291 151.617 270.791 150.95C270.907 150.783 270.991 150.633 271.074 150.467L272.407 151.05C272.274 151.3 272.107 151.567 271.907 151.8C271.124 152.767 269.874 153.283 268.607 153.25C267.324 153.217 266.107 152.75 265.324 151.783C264.574 150.833 264.307 149.65 264.307 148.5C264.324 147.317 264.574 146.167 265.324 145.217C266.124 144.233 267.307 143.75 268.607 143.75C269.907 143.75 271.091 144.233 271.874 145.217C272.624 146.167 272.891 147.333 272.891 148.5C272.891 148.617 272.891 148.75 272.874 148.867H265.774ZM268.607 145.033C267.741 145.033 266.907 145.383 266.424 146.05C266.074 146.517 265.874 147.117 265.807 147.733H271.407C271.341 147.117 271.141 146.517 270.791 146.05C270.291 145.383 269.474 145.033 268.607 145.033ZM281.396 144H282.596V157H281.246V152.033C280.546 152.833 279.513 153.25 278.346 153.25C277.113 153.25 275.979 152.75 275.229 151.8C274.479 150.85 274.229 149.667 274.229 148.483C274.229 147.317 274.496 146.117 275.229 145.2C275.946 144.267 277.096 143.75 278.313 143.75C279.513 143.75 280.663 144.25 281.396 145.133V144ZM280.663 151.033C281.196 150.383 281.396 149.433 281.396 148.483C281.396 147.55 281.196 146.6 280.663 145.95C280.179 145.3 279.379 145 278.529 145C277.629 145 276.829 145.317 276.329 146.017C275.846 146.667 275.663 147.567 275.663 148.483C275.663 149.417 275.829 150.317 276.313 150.95C276.813 151.65 277.646 152 278.496 152C279.363 152 280.163 151.667 280.663 151.033ZM291.081 144H292.431V153H291.231V151.967C291.148 152.067 291.048 152.183 290.931 152.283C290.281 152.883 289.398 153.183 288.565 153.217C287.698 153.267 286.765 153 286.048 152.467C284.815 151.517 284.598 150.083 284.615 148.433V144H285.981V148.433C285.981 149.717 286.131 150.783 286.981 151.417C287.431 151.767 288.015 151.917 288.681 151.9C289.248 151.883 289.765 151.7 290.165 151.333C290.581 150.983 290.865 150.45 290.965 149.85C291.081 149.3 291.081 148.633 291.081 147.95V147.933V144ZM294.927 141H296.277V142.45H294.927V141ZM294.927 144H296.277V153H294.927V144ZM302.809 143.75C303.243 143.75 303.659 143.8 304.059 143.933V145.217C303.676 145.083 303.209 145 302.709 145.033C302.009 145.05 301.393 145.283 300.976 145.7C300.176 146.45 300.143 147.433 300.143 148.65V153H298.776V144H299.993V145.333C300.176 145.017 300.426 144.733 300.759 144.467C301.343 143.983 302.093 143.767 302.809 143.75ZM306.352 148.867C306.385 149.633 306.569 150.383 307.002 150.95C307.485 151.617 308.319 151.967 309.185 151.967C310.052 151.967 310.869 151.617 311.369 150.95C311.485 150.783 311.569 150.633 311.652 150.467L312.985 151.05C312.852 151.3 312.685 151.567 312.485 151.8C311.702 152.767 310.452 153.283 309.185 153.25C307.902 153.217 306.685 152.75 305.902 151.783C305.152 150.833 304.885 149.65 304.885 148.5C304.902 147.317 305.152 146.167 305.902 145.217C306.702 144.233 307.885 143.75 309.185 143.75C310.485 143.75 311.669 144.233 312.452 145.217C313.202 146.167 313.469 147.333 313.469 148.5C313.469 148.617 313.469 148.75 313.452 148.867H306.352ZM309.185 145.033C308.319 145.033 307.485 145.383 307.002 146.05C306.652 146.517 306.452 147.117 306.385 147.733H311.985C311.919 147.117 311.719 146.517 311.369 146.05C310.869 145.383 310.052 145.033 309.185 145.033ZM322.106 146.367L320.773 146.683C320.573 146.133 320.156 145.617 319.64 145.35C319.256 145.15 318.79 145.05 318.306 145.05C317.823 145.033 317.356 145.117 316.973 145.3C316.573 145.517 316.306 145.867 316.306 146.233C316.306 146.5 316.39 146.717 316.59 146.917C316.806 147.133 317.123 147.283 317.723 147.45C318.173 147.583 318.74 147.733 319.44 147.917C320.106 148.1 320.656 148.3 321.19 148.75C321.873 149.3 322.19 149.967 322.123 150.767C322.056 151.533 321.623 152.233 320.973 152.65C320.273 153.1 319.356 153.233 318.456 153.233C317.273 153.233 316.206 152.9 315.44 152.083C314.923 151.5 314.606 150.667 314.49 150.05L315.806 149.733C315.873 150.233 316.073 150.8 316.423 151.2C316.94 151.767 317.706 151.95 318.44 151.95C319.056 151.95 319.806 151.817 320.223 151.533C320.54 151.3 320.69 151 320.74 150.65C320.773 150.3 320.64 149.983 320.356 149.75C320.073 149.483 319.723 149.35 319.056 149.15C318.606 149.017 318.106 148.883 317.49 148.717C316.806 148.533 316.24 148.35 315.723 147.933C315.156 147.5 314.906 146.85 314.906 146.25C314.906 145.3 315.573 144.483 316.406 144.1C317.056 143.817 317.706 143.733 318.34 143.75C318.956 143.75 319.64 143.883 320.24 144.183C321.09 144.633 321.84 145.483 322.106 146.367ZM324.119 144H325.635V145.533H324.119V144ZM325.035 153.3C325.035 154.35 324.519 154.983 323.519 154.8L323.602 154.15C324.269 154.2 324.369 153.65 324.319 153H323.519V151.183H325.035V153.3ZM32.7 168C31.85 168.167 31.55 168.667 31.55 169.483V170H34.0833V171.133H31.55V179H30.1833V171.133H28.1667V170H30.1833V169.567C30.1833 168.833 30.3667 168.017 31.0167 167.433C31.85 166.733 32.95 166.683 34.0833 166.8V167.983C33.6167 167.917 33.1333 167.917 32.7 168ZM39.45 169.75C39.8833 169.75 40.3 169.8 40.7 169.933V171.217C40.3167 171.083 39.85 171 39.35 171.033C38.65 171.05 38.0333 171.283 37.6167 171.7C36.8167 172.45 36.7833 173.433 36.7833 174.65V179H35.4167V170H36.6333V171.333C36.8167 171.017 37.0667 170.733 37.4 170.467C37.9833 169.983 38.7333 169.767 39.45 169.75ZM45.826 179.25C44.526 179.25 43.326 178.767 42.5427 177.783C41.7927 176.833 41.526 175.667 41.526 174.483C41.526 173.317 41.8094 172.133 42.5427 171.217C43.3094 170.267 44.526 169.75 45.826 169.75C47.1094 169.75 48.326 170.233 49.0927 171.217C49.876 172.167 50.126 173.333 50.126 174.483C50.126 175.7 49.8594 176.817 49.0927 177.783C48.3094 178.783 47.1427 179.25 45.826 179.25ZM48.026 176.95C48.526 176.283 48.6927 175.383 48.6927 174.483C48.6927 173.617 48.526 172.7 48.026 172.033C47.526 171.367 46.6927 171.033 45.826 171.033C44.9594 171.033 44.126 171.367 43.6427 172.033C43.126 172.7 42.9594 173.617 42.9594 174.483C42.9594 175.383 43.126 176.283 43.6427 176.95C44.126 177.617 44.9594 177.967 45.826 177.967C46.6927 177.967 47.526 177.617 48.026 176.95ZM58.3469 170.533C59.5802 171.483 59.7969 172.917 59.7802 174.567V179H58.4135V174.567C58.4135 173.283 58.2802 172.217 57.4135 171.567C56.9635 171.233 56.3802 171.067 55.7135 171.1C55.1635 171.117 54.6302 171.3 54.2302 171.65C53.8135 172.017 53.5469 172.55 53.4302 173.15C53.3469 173.517 53.3302 173.95 53.3302 174.383V179H51.9635V170H53.1802V171.017C53.2635 170.917 53.3635 170.817 53.4635 170.717C54.1302 170.117 55.0135 169.817 55.8302 169.783C56.7135 169.733 57.6302 170 58.3469 170.533ZM64.1583 171.133V175.6C64.1583 176.35 64.1417 176.8 64.3583 177.183C64.5417 177.583 64.9583 177.817 65.4083 177.85C65.875 177.9 66.425 177.883 66.8917 177.8V179C66.2917 179.15 65.4583 179.183 64.875 179.067C64.075 178.917 63.4583 178.55 63.125 177.867C62.8083 177.233 62.8083 176.533 62.8083 175.667V171.133H60.7917V170H62.8083V167.5H64.1583V170H66.8917V171.133H64.1583ZM79.1208 167H80.4708V179H79.2708V177.85C78.5708 178.767 77.4708 179.25 76.2208 179.25C74.9875 179.25 73.8542 178.75 73.1042 177.8C72.3542 176.85 72.1042 175.667 72.1042 174.483C72.1042 173.317 72.3708 172.117 73.1042 171.2C73.8208 170.267 74.9708 169.75 76.1875 169.75C77.3208 169.75 78.3875 170.183 79.1208 170.967V167ZM78.5375 177.033C79.0708 176.383 79.2708 175.433 79.2708 174.483C79.2708 173.55 79.0708 172.6 78.5375 171.95C78.0542 171.3 77.2542 171 76.4042 171C75.5042 171 74.7042 171.317 74.2042 172.017C73.7208 172.667 73.5375 173.567 73.5375 174.483C73.5375 175.417 73.7042 176.317 74.1875 176.95C74.6875 177.65 75.5208 178 76.3708 178C77.2375 178 78.0375 177.667 78.5375 177.033ZM83.7896 174.867C83.8229 175.633 84.0063 176.383 84.4396 176.95C84.9229 177.617 85.7563 177.967 86.6229 177.967C87.4896 177.967 88.3063 177.617 88.8063 176.95C88.9229 176.783 89.0063 176.633 89.0896 176.467L90.4229 177.05C90.2896 177.3 90.1229 177.567 89.9229 177.8C89.1396 178.767 87.8896 179.283 86.6229 179.25C85.3396 179.217 84.1229 178.75 83.3396 177.783C82.5896 176.833 82.3229 175.65 82.3229 174.5C82.3396 173.317 82.5896 172.167 83.3396 171.217C84.1396 170.233 85.3229 169.75 86.6229 169.75C87.9229 169.75 89.1063 170.233 89.8896 171.217C90.6396 172.167 90.9063 173.333 90.9063 174.5C90.9063 174.617 90.9063 174.75 90.8896 174.867H83.7896ZM86.6229 171.033C85.7563 171.033 84.9229 171.383 84.4396 172.05C84.0896 172.517 83.8896 173.117 83.8229 173.733H89.4229C89.3563 173.117 89.1563 172.517 88.8063 172.05C88.3063 171.383 87.4896 171.033 86.6229 171.033ZM99.5438 172.367L98.2104 172.683C98.0104 172.133 97.5938 171.617 97.0771 171.35C96.6938 171.15 96.2271 171.05 95.7438 171.05C95.2604 171.033 94.7938 171.117 94.4104 171.3C94.0104 171.517 93.7438 171.867 93.7438 172.233C93.7438 172.5 93.8271 172.717 94.0271 172.917C94.2438 173.133 94.5604 173.283 95.1604 173.45C95.6104 173.583 96.1771 173.733 96.8771 173.917C97.5438 174.1 98.0938 174.3 98.6271 174.75C99.3104 175.3 99.6271 175.967 99.5604 176.767C99.4938 177.533 99.0604 178.233 98.4104 178.65C97.7104 179.1 96.7938 179.233 95.8938 179.233C94.7104 179.233 93.6438 178.9 92.8771 178.083C92.3604 177.5 92.0438 176.667 91.9271 176.05L93.2438 175.733C93.3104 176.233 93.5104 176.8 93.8604 177.2C94.3771 177.767 95.1438 177.95 95.8771 177.95C96.4938 177.95 97.2438 177.817 97.6604 177.533C97.9771 177.3 98.1271 177 98.1771 176.65C98.2104 176.3 98.0771 175.983 97.7938 175.75C97.5104 175.483 97.1604 175.35 96.4938 175.15C96.0438 175.017 95.5438 174.883 94.9271 174.717C94.2438 174.533 93.6771 174.35 93.1604 173.933C92.5938 173.5 92.3438 172.85 92.3438 172.25C92.3438 171.3 93.0104 170.483 93.8438 170.1C94.4938 169.817 95.1438 169.733 95.7771 169.75C96.3938 169.75 97.0771 169.883 97.6771 170.183C98.5271 170.633 99.2771 171.483 99.5438 172.367ZM102.706 174.667V179H101.34L101.323 167H102.706V173.533H104.406L106.806 170H108.373L105.573 174.1L108.79 179H107.256L104.406 174.667H102.706ZM111.33 179.3C111.33 180.35 110.814 180.983 109.797 180.8L109.88 180.15C110.564 180.2 110.647 179.65 110.597 179H109.797V177.183H111.33V179.3ZM125.764 172L124.497 172.55C124.414 172.367 124.297 172.2 124.197 172.05C123.697 171.367 122.88 171.033 121.997 171.033C121.147 171.033 120.314 171.367 119.83 172.05C119.314 172.717 119.164 173.617 119.147 174.5C119.164 175.383 119.314 176.283 119.83 176.95C120.314 177.617 121.147 177.95 121.997 177.95C122.88 177.95 123.697 177.617 124.197 176.95C124.297 176.8 124.397 176.633 124.48 176.467L125.764 177.033C125.614 177.283 125.464 177.533 125.28 177.767C124.497 178.75 123.297 179.25 121.997 179.25C120.714 179.25 119.514 178.767 118.73 177.767C117.98 176.833 117.73 175.65 117.714 174.5C117.73 173.333 117.98 172.167 118.73 171.217C119.547 170.2 120.714 169.75 121.997 169.75C123.297 169.75 124.48 170.233 125.28 171.217C125.464 171.467 125.63 171.717 125.764 172ZM127.51 179V166.75H128.86V179H127.51ZM131.365 167H132.715V168.45H131.365V167ZM131.365 170H132.715V179H131.365V170ZM141.597 170.533C142.83 171.483 143.047 172.917 143.03 174.567V179H141.664V174.567C141.664 173.283 141.53 172.217 140.664 171.567C140.214 171.233 139.63 171.067 138.964 171.1C138.414 171.117 137.88 171.3 137.48 171.65C137.064 172.017 136.797 172.55 136.68 173.15C136.597 173.517 136.58 173.95 136.58 174.383V179H135.214V170H136.43V171.017C136.514 170.917 136.614 170.817 136.714 170.717C137.38 170.117 138.264 169.817 139.08 169.783C139.964 169.733 140.88 170 141.597 170.533ZM145.208 167H146.558V168.45H145.208V167ZM145.208 170H146.558V179H145.208V170ZM156.607 172L155.341 172.55C155.257 172.367 155.141 172.2 155.041 172.05C154.541 171.367 153.724 171.033 152.841 171.033C151.991 171.033 151.157 171.367 150.674 172.05C150.157 172.717 150.007 173.617 149.991 174.5C150.007 175.383 150.157 176.283 150.674 176.95C151.157 177.617 151.991 177.95 152.841 177.95C153.724 177.95 154.541 177.617 155.041 176.95C155.141 176.8 155.241 176.633 155.324 176.467L156.607 177.033C156.457 177.283 156.307 177.533 156.124 177.767C155.341 178.75 154.141 179.25 152.841 179.25C151.557 179.25 150.357 178.767 149.574 177.767C148.824 176.833 148.574 175.65 148.557 174.5C148.574 173.333 148.824 172.167 149.574 171.217C150.391 170.2 151.557 169.75 152.841 169.75C154.141 169.75 155.324 170.233 156.124 171.217C156.307 171.467 156.474 171.717 156.607 172ZM159.488 172.267L158.238 171.683C158.304 171.567 158.404 171.4 158.504 171.283C159.288 170.233 160.454 169.767 161.804 169.767C163.454 169.767 164.804 170.367 165.454 171.767C165.704 172.283 165.804 172.85 165.804 173.367V179H164.604V177.217C164.271 177.867 163.638 178.417 163.021 178.717C162.288 179.083 161.504 179.267 160.704 179.217C159.804 179.183 158.871 178.717 158.388 178.017C158.038 177.483 157.854 177 157.854 176.367C157.854 175.417 158.354 174.583 159.171 174.083C160.154 173.55 161.138 173.467 162.538 173.25L164.404 173C164.321 172.433 164.071 171.933 163.638 171.6C163.154 171.2 162.471 171.05 161.788 171.05C160.954 171.05 160.171 171.333 159.704 171.967C159.621 172.067 159.554 172.167 159.488 172.267ZM164.454 174.15C163.788 174.25 163.188 174.35 162.271 174.5C160.821 174.717 159.238 174.983 159.221 176.3C159.204 177.133 159.938 177.883 160.888 177.967C162.071 178.083 163.571 177.4 164.104 176.217C164.454 175.483 164.454 174.9 164.454 174.15ZM167.964 179V166.75H169.314V179H167.964ZM173.018 179.3C173.018 180.35 172.501 180.983 171.484 180.8L171.568 180.15C172.251 180.2 172.334 179.65 172.284 179H171.484V177.183H173.018V179.3ZM181.034 172.267L179.784 171.683C179.851 171.567 179.951 171.4 180.051 171.283C180.834 170.233 182.001 169.767 183.351 169.767C185.001 169.767 186.351 170.367 187.001 171.767C187.251 172.283 187.351 172.85 187.351 173.367V179H186.151V177.217C185.818 177.867 185.184 178.417 184.568 178.717C183.834 179.083 183.051 179.267 182.251 179.217C181.351 179.183 180.418 178.717 179.934 178.017C179.584 177.483 179.401 177 179.401 176.367C179.401 175.417 179.901 174.583 180.718 174.083C181.701 173.55 182.684 173.467 184.084 173.25L185.951 173C185.868 172.433 185.618 171.933 185.184 171.6C184.701 171.2 184.018 171.05 183.334 171.05C182.501 171.05 181.718 171.333 181.251 171.967C181.168 172.067 181.101 172.167 181.034 172.267ZM186.001 174.15C185.334 174.25 184.734 174.35 183.818 174.5C182.368 174.717 180.784 174.983 180.768 176.3C180.751 177.133 181.484 177.883 182.434 177.967C183.618 178.083 185.118 177.4 185.651 176.217C186.001 175.483 186.001 174.9 186.001 174.15ZM195.894 170.533C197.127 171.483 197.344 172.917 197.327 174.567V179H195.96V174.567C195.96 173.283 195.827 172.217 194.96 171.567C194.51 171.233 193.927 171.067 193.26 171.1C192.71 171.117 192.177 171.3 191.777 171.65C191.36 172.017 191.094 172.55 190.977 173.15C190.894 173.517 190.877 173.95 190.877 174.383V179H189.51V170H190.727V171.017C190.81 170.917 190.91 170.817 191.01 170.717C191.677 170.117 192.56 169.817 193.377 169.783C194.26 169.733 195.177 170 195.894 170.533ZM205.855 167H207.205V179H206.005V177.85C205.305 178.767 204.205 179.25 202.955 179.25C201.722 179.25 200.589 178.75 199.839 177.8C199.089 176.85 198.839 175.667 198.839 174.483C198.839 173.317 199.105 172.117 199.839 171.2C200.555 170.267 201.705 169.75 202.922 169.75C204.055 169.75 205.122 170.183 205.855 170.967V167ZM205.272 177.033C205.805 176.383 206.005 175.433 206.005 174.483C206.005 173.55 205.805 172.6 205.272 171.95C204.789 171.3 203.989 171 203.139 171C202.239 171 201.439 171.317 200.939 172.017C200.455 172.667 200.272 173.567 200.272 174.483C200.272 175.417 200.439 176.317 200.922 176.95C201.422 177.65 202.255 178 203.105 178C203.972 178 204.772 177.667 205.272 177.033ZM214.409 172.267L213.159 171.683C213.226 171.567 213.326 171.4 213.426 171.283C214.209 170.233 215.376 169.767 216.726 169.767C218.376 169.767 219.726 170.367 220.376 171.767C220.626 172.283 220.726 172.85 220.726 173.367V179H219.526V177.217C219.193 177.867 218.559 178.417 217.943 178.717C217.209 179.083 216.426 179.267 215.626 179.217C214.726 179.183 213.793 178.717 213.309 178.017C212.959 177.483 212.776 177 212.776 176.367C212.776 175.417 213.276 174.583 214.093 174.083C215.076 173.55 216.059 173.467 217.459 173.25L219.326 173C219.243 172.433 218.993 171.933 218.559 171.6C218.076 171.2 217.393 171.05 216.709 171.05C215.876 171.05 215.093 171.333 214.626 171.967C214.543 172.067 214.476 172.167 214.409 172.267ZM219.376 174.15C218.709 174.25 218.109 174.35 217.193 174.5C215.743 174.717 214.159 174.983 214.143 176.3C214.126 177.133 214.859 177.883 215.809 177.967C216.993 178.083 218.493 177.4 219.026 176.217C219.376 175.483 219.376 174.9 219.376 174.15ZM229.402 167H230.752V179H229.552V177.85C228.852 178.767 227.752 179.25 226.502 179.25C225.269 179.25 224.135 178.75 223.385 177.8C222.635 176.85 222.385 175.667 222.385 174.483C222.385 173.317 222.652 172.117 223.385 171.2C224.102 170.267 225.252 169.75 226.469 169.75C227.602 169.75 228.669 170.183 229.402 170.967V167ZM228.819 177.033C229.352 176.383 229.552 175.433 229.552 174.483C229.552 173.55 229.352 172.6 228.819 171.95C228.335 171.3 227.535 171 226.685 171C225.785 171 224.985 171.317 224.485 172.017C224.002 172.667 223.819 173.567 223.819 174.483C223.819 175.417 223.985 176.317 224.469 176.95C224.969 177.65 225.802 178 226.652 178C227.519 178 228.319 177.667 228.819 177.033ZM244.482 170.683C245.449 171.467 245.532 172.4 245.532 173.683V179H244.182V173.683C244.182 172.767 244.132 172.233 243.499 171.683C243.149 171.367 242.682 171.2 242.216 171.2C241.582 171.2 241.016 171.45 240.632 171.917C240.232 172.417 240.166 172.9 240.166 173.467V173.683L240.149 179H238.816V173.683C238.816 172.767 238.766 172.233 238.116 171.683C237.782 171.367 237.316 171.2 236.832 171.2C236.216 171.2 235.632 171.45 235.266 171.917C234.866 172.417 234.799 172.9 234.799 173.467V179H233.432V170H234.649V171.2C235.232 170.417 236.182 169.983 237.166 169.983C237.832 169.983 238.566 170.233 239.116 170.683C239.432 170.95 239.649 171.233 239.816 171.533C239.849 171.45 239.899 171.383 239.949 171.317C240.516 170.467 241.499 169.983 242.532 169.983C243.216 169.983 243.932 170.233 244.482 170.683ZM247.693 167H249.043V168.45H247.693V167ZM247.693 170H249.043V179H247.693V170ZM257.925 170.533C259.158 171.483 259.375 172.917 259.358 174.567V179H257.992V174.567C257.992 173.283 257.858 172.217 256.992 171.567C256.542 171.233 255.958 171.067 255.292 171.1C254.742 171.117 254.208 171.3 253.808 171.65C253.392 172.017 253.125 172.55 253.008 173.15C252.925 173.517 252.908 173.95 252.908 174.383V179H251.542V170H252.758V171.017C252.842 170.917 252.942 170.817 253.042 170.717C253.708 170.117 254.592 169.817 255.408 169.783C256.292 169.733 257.208 170 257.925 170.533ZM270.739 170H272.122L268.839 179H267.455L264.189 170H265.555L268.155 177.25L270.739 170ZM273.724 167H275.074V168.45H273.724V167ZM273.724 170H275.074V179H273.724V170ZM278.54 174.867C278.573 175.633 278.756 176.383 279.19 176.95C279.673 177.617 280.506 177.967 281.373 177.967C282.24 177.967 283.056 177.617 283.556 176.95C283.673 176.783 283.756 176.633 283.84 176.467L285.173 177.05C285.04 177.3 284.873 177.567 284.673 177.8C283.89 178.767 282.64 179.283 281.373 179.25C280.09 179.217 278.873 178.75 278.09 177.783C277.34 176.833 277.073 175.65 277.073 174.5C277.09 173.317 277.34 172.167 278.09 171.217C278.89 170.233 280.073 169.75 281.373 169.75C282.673 169.75 283.856 170.233 284.64 171.217C285.39 172.167 285.656 173.333 285.656 174.5C285.656 174.617 285.656 174.75 285.64 174.867H278.54ZM281.373 171.033C280.506 171.033 279.673 171.383 279.19 172.05C278.84 172.517 278.64 173.117 278.573 173.733H284.173C284.106 173.117 283.906 172.517 283.556 172.05C283.056 171.383 282.24 171.033 281.373 171.033ZM297.128 170H298.461L295.711 179H294.361L292.361 172.2L290.278 179H288.995L286.245 170H287.611L289.678 176.783L291.745 170H292.961L295.045 176.783L297.128 170ZM306.653 172.367L305.32 172.683C305.12 172.133 304.703 171.617 304.186 171.35C303.803 171.15 303.336 171.05 302.853 171.05C302.37 171.033 301.903 171.117 301.52 171.3C301.12 171.517 300.853 171.867 300.853 172.233C300.853 172.5 300.936 172.717 301.136 172.917C301.353 173.133 301.67 173.283 302.27 173.45C302.72 173.583 303.286 173.733 303.986 173.917C304.653 174.1 305.203 174.3 305.736 174.75C306.42 175.3 306.736 175.967 306.67 176.767C306.603 177.533 306.17 178.233 305.52 178.65C304.82 179.1 303.903 179.233 303.003 179.233C301.82 179.233 300.753 178.9 299.986 178.083C299.47 177.5 299.153 176.667 299.036 176.05L300.353 175.733C300.42 176.233 300.62 176.8 300.97 177.2C301.486 177.767 302.253 177.95 302.986 177.95C303.603 177.95 304.353 177.817 304.77 177.533C305.086 177.3 305.236 177 305.286 176.65C305.32 176.3 305.186 175.983 304.903 175.75C304.62 175.483 304.27 175.35 303.603 175.15C303.153 175.017 302.653 174.883 302.036 174.717C301.353 174.533 300.786 174.35 300.27 173.933C299.703 173.5 299.453 172.85 299.453 172.25C299.453 171.3 300.12 170.483 300.953 170.1C301.603 169.817 302.253 169.733 302.886 169.75C303.503 169.75 304.186 169.883 304.786 170.183C305.636 170.633 306.386 171.483 306.653 172.367ZM313.284 172.267L312.034 171.683C312.101 171.567 312.201 171.4 312.301 171.283C313.084 170.233 314.251 169.767 315.601 169.767C317.251 169.767 318.601 170.367 319.251 171.767C319.501 172.283 319.601 172.85 319.601 173.367V179H318.401V177.217C318.068 177.867 317.434 178.417 316.818 178.717C316.084 179.083 315.301 179.267 314.501 179.217C313.601 179.183 312.668 178.717 312.184 178.017C311.834 177.483 311.651 177 311.651 176.367C311.651 175.417 312.151 174.583 312.968 174.083C313.951 173.55 314.934 173.467 316.334 173.25L318.201 173C318.118 172.433 317.868 171.933 317.434 171.6C316.951 171.2 316.268 171.05 315.584 171.05C314.751 171.05 313.968 171.333 313.501 171.967C313.418 172.067 313.351 172.167 313.284 172.267ZM318.251 174.15C317.584 174.25 316.984 174.35 316.068 174.5C314.618 174.717 313.034 174.983 313.018 176.3C313.001 177.133 313.734 177.883 314.684 177.967C315.868 178.083 317.368 177.4 317.901 176.217C318.251 175.483 318.251 174.9 318.251 174.15ZM325.794 169.75C326.227 169.75 326.644 169.8 327.044 169.933V171.217C326.66 171.083 326.194 171 325.694 171.033C324.994 171.05 324.377 171.283 323.96 171.7C323.16 172.45 323.127 173.433 323.127 174.65V179H321.76V170H322.977V171.333C323.16 171.017 323.41 170.733 323.744 170.467C324.327 169.983 325.077 169.767 325.794 169.75ZM329.336 174.867C329.37 175.633 329.553 176.383 329.986 176.95C330.47 177.617 331.303 177.967 332.17 177.967C333.036 177.967 333.853 177.617 334.353 176.95C334.47 176.783 334.553 176.633 334.636 176.467L335.97 177.05C335.836 177.3 335.67 177.567 335.47 177.8C334.686 178.767 333.436 179.283 332.17 179.25C330.886 179.217 329.67 178.75 328.886 177.783C328.136 176.833 327.87 175.65 327.87 174.5C327.886 173.317 328.136 172.167 328.886 171.217C329.686 170.233 330.87 169.75 332.17 169.75C333.47 169.75 334.653 170.233 335.436 171.217C336.186 172.167 336.453 173.333 336.453 174.5C336.453 174.617 336.453 174.75 336.436 174.867H329.336ZM332.17 171.033C331.303 171.033 330.47 171.383 329.986 172.05C329.636 172.517 329.436 173.117 329.37 173.733H334.97C334.903 173.117 334.703 172.517 334.353 172.05C333.853 171.383 333.036 171.033 332.17 171.033ZM36.2 198.367L34.8667 198.683C34.6667 198.133 34.25 197.617 33.7333 197.35C33.35 197.15 32.8833 197.05 32.4 197.05C31.9167 197.033 31.45 197.117 31.0667 197.3C30.6667 197.517 30.4 197.867 30.4 198.233C30.4 198.5 30.4833 198.717 30.6833 198.917C30.9 199.133 31.2167 199.283 31.8167 199.45C32.2667 199.583 32.8333 199.733 33.5333 199.917C34.2 200.1 34.75 200.3 35.2833 200.75C35.9667 201.3 36.2833 201.967 36.2167 202.767C36.15 203.533 35.7167 204.233 35.0667 204.65C34.3667 205.1 33.45 205.233 32.55 205.233C31.3667 205.233 30.3 204.9 29.5333 204.083C29.0167 203.5 28.7 202.667 28.5833 202.05L29.9 201.733C29.9667 202.233 30.1667 202.8 30.5167 203.2C31.0333 203.767 31.8 203.95 32.5333 203.95C33.15 203.95 33.9 203.817 34.3167 203.533C34.6333 203.3 34.7833 203 34.8333 202.65C34.8667 202.3 34.7333 201.983 34.45 201.75C34.1667 201.483 33.8167 201.35 33.15 201.15C32.7 201.017 32.2 200.883 31.5833 200.717C30.9 200.533 30.3333 200.35 29.8167 199.933C29.25 199.5 29 198.85 29 198.25C29 197.3 29.6667 196.483 30.5 196.1C31.15 195.817 31.8 195.733 32.4333 195.75C33.05 195.75 33.7333 195.883 34.3333 196.183C35.1833 196.633 35.9333 197.483 36.2 198.367ZM38.9458 200.867C38.9792 201.633 39.1625 202.383 39.5958 202.95C40.0792 203.617 40.9125 203.967 41.7792 203.967C42.6458 203.967 43.4625 203.617 43.9625 202.95C44.0792 202.783 44.1625 202.633 44.2458 202.467L45.5792 203.05C45.4458 203.3 45.2792 203.567 45.0792 203.8C44.2958 204.767 43.0458 205.283 41.7792 205.25C40.4958 205.217 39.2792 204.75 38.4958 203.783C37.7458 202.833 37.4792 201.65 37.4792 200.5C37.4958 199.317 37.7458 198.167 38.4958 197.217C39.2958 196.233 40.4792 195.75 41.7792 195.75C43.0792 195.75 44.2625 196.233 45.0458 197.217C45.7958 198.167 46.0625 199.333 46.0625 200.5C46.0625 200.617 46.0625 200.75 46.0458 200.867H38.9458ZM41.7792 197.033C40.9125 197.033 40.0792 197.383 39.5958 198.05C39.2458 198.517 39.0458 199.117 38.9792 199.733H44.5792C44.5125 199.117 44.3125 198.517 43.9625 198.05C43.4625 197.383 42.6458 197.033 41.7792 197.033ZM55.2844 197.2C56.001 198.117 56.2677 199.317 56.2677 200.483C56.2677 201.667 56.0344 202.85 55.2844 203.8C54.5344 204.75 53.401 205.25 52.1677 205.25C51.001 205.25 49.9844 204.833 49.2677 204.05V209H47.901V196H49.1177V197.133C49.8344 196.25 50.9844 195.75 52.1844 195.75C53.4177 195.75 54.551 196.267 55.2844 197.2ZM54.1844 202.95C54.6677 202.317 54.8344 201.417 54.8344 200.483C54.8344 199.567 54.651 198.667 54.1844 198.017C53.6844 197.317 52.8677 197 51.9677 197C51.1177 197 50.3344 197.3 49.8344 197.95C49.3177 198.6 49.1177 199.55 49.1177 200.483C49.1177 201.433 49.3177 202.383 49.8344 203.033C50.3344 203.667 51.151 204 52.001 204C52.851 204 53.6844 203.65 54.1844 202.95ZM59.2375 198.267L57.9875 197.683C58.0542 197.567 58.1542 197.4 58.2542 197.283C59.0375 196.233 60.2042 195.767 61.5542 195.767C63.2042 195.767 64.5542 196.367 65.2042 197.767C65.4542 198.283 65.5542 198.85 65.5542 199.367V205H64.3542V203.217C64.0208 203.867 63.3875 204.417 62.7708 204.717C62.0375 205.083 61.2542 205.267 60.4542 205.217C59.5542 205.183 58.6208 204.717 58.1375 204.017C57.7875 203.483 57.6042 203 57.6042 202.367C57.6042 201.417 58.1042 200.583 58.9208 200.083C59.9042 199.55 60.8875 199.467 62.2875 199.25L64.1542 199C64.0708 198.433 63.8208 197.933 63.3875 197.6C62.9042 197.2 62.2208 197.05 61.5375 197.05C60.7042 197.05 59.9208 197.333 59.4542 197.967C59.3708 198.067 59.3042 198.167 59.2375 198.267ZM64.2042 200.15C63.5375 200.25 62.9375 200.35 62.0208 200.5C60.5708 200.717 58.9875 200.983 58.9708 202.3C58.9542 203.133 59.6875 203.883 60.6375 203.967C61.8208 204.083 63.3208 203.4 63.8542 202.217C64.2042 201.483 64.2042 200.9 64.2042 200.15ZM71.7469 195.75C72.1802 195.75 72.5969 195.8 72.9969 195.933V197.217C72.6135 197.083 72.1469 197 71.6469 197.033C70.9469 197.05 70.3302 197.283 69.9135 197.7C69.1135 198.45 69.0802 199.433 69.0802 200.65V205H67.7135V196H68.9302V197.333C69.1135 197.017 69.3635 196.733 69.6969 196.467C70.2802 195.983 71.0302 195.767 71.7469 195.75ZM75.3781 198.267L74.1281 197.683C74.1948 197.567 74.2948 197.4 74.3948 197.283C75.1781 196.233 76.3448 195.767 77.6948 195.767C79.3448 195.767 80.6948 196.367 81.3448 197.767C81.5948 198.283 81.6948 198.85 81.6948 199.367V205H80.4948V203.217C80.1615 203.867 79.5281 204.417 78.9115 204.717C78.1781 205.083 77.3948 205.267 76.5948 205.217C75.6948 205.183 74.7615 204.717 74.2781 204.017C73.9281 203.483 73.7448 203 73.7448 202.367C73.7448 201.417 74.2448 200.583 75.0615 200.083C76.0448 199.55 77.0281 199.467 78.4281 199.25L80.2948 199C80.2115 198.433 79.9615 197.933 79.5281 197.6C79.0448 197.2 78.3615 197.05 77.6781 197.05C76.8448 197.05 76.0615 197.333 75.5948 197.967C75.5115 198.067 75.4448 198.167 75.3781 198.267ZM80.3448 200.15C79.6781 200.25 79.0781 200.35 78.1615 200.5C76.7115 200.717 75.1281 200.983 75.1115 202.3C75.0948 203.133 75.8281 203.883 76.7781 203.967C77.9615 204.083 79.4615 203.4 79.9948 202.217C80.3448 201.483 80.3448 200.9 80.3448 200.15ZM86.2208 197.133V201.6C86.2208 202.35 86.2042 202.8 86.4208 203.183C86.6042 203.583 87.0208 203.817 87.4708 203.85C87.9375 203.9 88.4875 203.883 88.9542 203.8V205C88.3542 205.15 87.5208 205.183 86.9375 205.067C86.1375 204.917 85.5208 204.55 85.1875 203.867C84.8708 203.233 84.8708 202.533 84.8708 201.667V197.133H82.8542V196H84.8708V193.5H86.2208V196H88.9542V197.133H86.2208ZM91.9146 200.867C91.9479 201.633 92.1313 202.383 92.5646 202.95C93.0479 203.617 93.8813 203.967 94.7479 203.967C95.6146 203.967 96.4313 203.617 96.9313 202.95C97.0479 202.783 97.1313 202.633 97.2146 202.467L98.5479 203.05C98.4146 203.3 98.2479 203.567 98.0479 203.8C97.2646 204.767 96.0146 205.283 94.7479 205.25C93.4646 205.217 92.2479 204.75 91.4646 203.783C90.7146 202.833 90.4479 201.65 90.4479 200.5C90.4646 199.317 90.7146 198.167 91.4646 197.217C92.2646 196.233 93.4479 195.75 94.7479 195.75C96.0479 195.75 97.2313 196.233 98.0146 197.217C98.7646 198.167 99.0313 199.333 99.0313 200.5C99.0313 200.617 99.0313 200.75 99.0146 200.867H91.9146ZM94.7479 197.033C93.8813 197.033 93.0479 197.383 92.5646 198.05C92.2146 198.517 92.0146 199.117 91.9479 199.733H97.5479C97.4813 199.117 97.2813 198.517 96.9313 198.05C96.4313 197.383 95.6146 197.033 94.7479 197.033ZM107.386 193H108.736V205H107.536V203.85C106.836 204.767 105.736 205.25 104.486 205.25C103.253 205.25 102.12 204.75 101.37 203.8C100.62 202.85 100.37 201.667 100.37 200.483C100.37 199.317 100.636 198.117 101.37 197.2C102.086 196.267 103.236 195.75 104.453 195.75C105.586 195.75 106.653 196.183 107.386 196.967V193ZM106.803 203.033C107.336 202.383 107.536 201.433 107.536 200.483C107.536 199.55 107.336 198.6 106.803 197.95C106.32 197.3 105.52 197 104.67 197C103.77 197 102.97 197.317 102.47 198.017C101.986 198.667 101.803 199.567 101.803 200.483C101.803 201.417 101.97 202.317 102.453 202.95C102.953 203.65 103.786 204 104.636 204C105.503 204 106.303 203.667 106.803 203.033ZM111.339 203.467H112.872V205H111.339V203.467Z" fill="white"/>
<path d="M42.575 110.35C42.025 111.075 41.275 111.65 40.425 112.05L43.825 119H40.625L37.525 112.6H32.825V119H30V101H37.95C38.575 101 39.225 101.1 39.8 101.3C40.875 101.65 41.825 102.3 42.5 103.2C43.325 104.2 43.8 105.5 43.825 106.8C43.85 108.075 43.35 109.375 42.575 110.35ZM32.825 103.65V109.95H37.925C38.75 109.95 39.7 109.5 40.275 108.75C40.7 108.2 40.975 107.525 40.95 106.8C40.925 106.025 40.65 105.25 40.125 104.7C39.6 104.1 38.725 103.65 37.925 103.65H32.825ZM51.7766 119.375C49.8016 119.375 47.9266 118.625 46.7016 117.15C45.5516 115.725 45.1016 114.05 45.1016 112.25C45.1016 110.4 45.6266 108.675 46.7016 107.35C47.9016 105.9 49.8016 105.125 51.7766 105.125C53.7266 105.125 55.6266 105.85 56.8266 107.35C58.0016 108.775 58.4516 110.45 58.4516 112.25C58.4516 114.125 57.9766 115.7 56.8266 117.15C55.6016 118.65 53.7766 119.375 51.7766 119.375ZM54.6016 115.425C55.2516 114.575 55.4766 113.4 55.4766 112.25C55.4766 111.1 55.2516 109.9 54.6016 109.05C53.9516 108.2 52.9016 107.775 51.7766 107.775C50.6266 107.775 49.5766 108.2 48.9516 109.05C48.3016 109.9 48.0766 111.1 48.0766 112.25C48.0766 113.4 48.3016 114.575 48.9516 115.425C49.5766 116.275 50.6266 116.725 51.7766 116.725C52.9016 116.725 53.9516 116.275 54.6016 115.425ZM61.2031 119V100.625H64.0281V119H61.2031ZM69.8063 113.025C69.9063 113.9 70.1313 114.775 70.6313 115.425C71.2813 116.275 72.3313 116.725 73.4563 116.725C74.5813 116.725 75.6063 116.275 76.2563 115.425C76.4063 115.225 76.4813 115.05 76.5813 114.875L79.3813 116.075C79.1563 116.475 78.9062 116.85 78.6063 117.2C77.3313 118.675 75.4063 119.45 73.4563 119.375C71.4813 119.3 69.6063 118.625 68.3813 117.15C67.2313 115.725 66.7563 114 66.7813 112.25C66.8313 110.425 67.2563 108.725 68.3813 107.35C69.6063 105.875 71.4813 105.125 73.4563 105.125C75.4313 105.125 77.2813 105.85 78.5063 107.35C79.6313 108.725 80.1063 110.475 80.1063 112.25C80.1063 112.5 80.0813 112.775 80.0563 113.025H69.8063ZM73.4563 107.775C72.3313 107.75 71.2813 108.2 70.6313 109.075C70.2563 109.55 70.0313 110.15 69.9063 110.775H76.9813C76.8563 110.15 76.6313 109.55 76.2563 109.075C75.6063 108.2 74.5813 107.75 73.4563 107.775ZM82.6094 110.775H90.1094V113.025H82.6094V110.775ZM104.709 107.275C105.759 108.625 106.234 110.425 106.234 112.25C106.234 114.05 105.834 115.8 104.709 117.2C103.584 118.6 101.859 119.375 100.034 119.375C98.3844 119.375 96.9344 118.875 95.8594 117.85V119H93.3594V101H96.1844V106.375C97.2094 105.575 98.5594 105.125 99.9594 105.125C101.809 105.125 103.584 105.875 104.709 107.275ZM102.459 115.475C103.034 114.675 103.259 113.5 103.259 112.25C103.259 111 103.009 109.8 102.434 109C101.784 108.05 100.759 107.65 99.5344 107.65C98.4594 107.65 97.4844 108.025 96.8594 108.8C96.1594 109.65 95.8594 110.925 95.8594 112.25C95.8594 113.55 96.1594 114.85 96.8594 115.675C97.5344 116.45 98.5094 116.85 99.6344 116.85C100.709 116.85 101.809 116.425 102.459 115.475ZM111.292 109.225L108.717 108C108.817 107.875 108.917 107.675 109.042 107.525C110.242 105.875 112.067 105.15 114.192 105.15C116.667 105.15 118.692 106 119.742 107.95C120.192 108.8 120.367 109.725 120.367 110.525V119H117.892V116.525C117.542 117.375 116.667 118.15 115.917 118.55C114.917 119.125 113.742 119.375 112.642 119.35C111.292 119.325 109.917 118.65 109.192 117.7C108.567 116.8 108.242 116.1 108.242 115.025C108.242 113.6 109.067 112.25 110.342 111.5C111.817 110.7 113.067 110.625 115.067 110.325L117.492 109.975C117.367 109.325 116.992 108.75 116.442 108.375C115.817 107.925 114.992 107.75 114.142 107.775C113.117 107.775 112.192 108.075 111.592 108.825C111.492 108.95 111.367 109.1 111.292 109.225ZM117.567 112.275C117.067 112.35 116.217 112.5 114.742 112.775C112.967 113.075 111.092 113.4 111.042 114.85C111.017 115.85 111.892 116.75 113.142 116.775C114.717 116.8 116.667 115.975 117.242 114.275C117.567 113.5 117.567 112.825 117.567 112.275ZM134.292 109.05L131.542 109.725C131.342 109.1 130.817 108.475 130.217 108.175C129.742 107.925 129.167 107.775 128.542 107.775C127.892 107.775 127.292 107.9 126.842 108.125C126.367 108.4 126.167 108.75 126.167 109.075C126.167 109.325 126.242 109.525 126.367 109.675C126.642 109.975 127.142 110.2 127.917 110.425C128.592 110.625 129.417 110.825 130.242 111.05C131.317 111.375 132.042 111.575 132.892 112.275C133.942 113.125 134.492 114.2 134.392 115.5C134.292 116.725 133.592 117.8 132.542 118.475C131.467 119.175 130.142 119.375 128.792 119.375C126.967 119.375 125.367 118.875 124.167 117.6C123.492 116.825 122.842 115.425 122.742 114.625L125.442 113.975C125.467 114.525 125.742 115.325 126.192 115.775C126.867 116.525 127.817 116.7 128.767 116.7C129.517 116.7 130.517 116.55 130.992 116.175C131.342 115.9 131.467 115.625 131.542 115.25C131.542 114.9 131.442 114.6 131.167 114.325C130.792 113.975 130.217 113.775 129.517 113.575C128.817 113.375 128.092 113.2 127.267 112.975C126.142 112.675 125.342 112.375 124.617 111.775C123.717 111.1 123.292 110.05 123.292 109.125C123.292 107.55 124.317 106.25 125.667 105.65C126.692 105.2 127.667 105.1 128.592 105.125C129.517 105.125 130.542 105.325 131.442 105.8C132.767 106.45 133.817 107.675 134.292 109.05ZM139.298 113.025C139.398 113.9 139.623 114.775 140.123 115.425C140.773 116.275 141.823 116.725 142.948 116.725C144.073 116.725 145.098 116.275 145.748 115.425C145.898 115.225 145.973 115.05 146.073 114.875L148.873 116.075C148.648 116.475 148.398 116.85 148.098 117.2C146.823 118.675 144.898 119.45 142.948 119.375C140.973 119.3 139.098 118.625 137.873 117.15C136.723 115.725 136.248 114 136.273 112.25C136.323 110.425 136.748 108.725 137.873 107.35C139.098 105.875 140.973 105.125 142.948 105.125C144.923 105.125 146.773 105.85 147.998 107.35C149.123 108.725 149.598 110.475 149.598 112.25C149.598 112.5 149.573 112.775 149.548 113.025H139.298ZM142.948 107.775C141.823 107.75 140.773 108.2 140.123 109.075C139.748 109.55 139.523 110.15 139.398 110.775H146.473C146.348 110.15 146.123 109.55 145.748 109.075C145.098 108.2 144.073 107.75 142.948 107.775ZM161.652 101H164.477V119H162.002V117.85C160.927 118.85 159.452 119.375 157.802 119.375C156.002 119.375 154.252 118.6 153.152 117.2C152.002 115.8 151.602 114.05 151.602 112.25C151.602 110.425 152.077 108.625 153.152 107.275C154.277 105.875 156.027 105.125 157.877 105.125C159.277 105.125 160.627 105.575 161.652 106.375V101ZM160.977 115.675C161.702 114.85 162.002 113.55 162.002 112.25C162.002 110.925 161.702 109.65 160.977 108.8C160.352 108.025 159.377 107.65 158.302 107.65C157.102 107.65 156.077 108.05 155.427 109C154.852 109.8 154.577 111 154.577 112.25C154.577 113.5 154.802 114.675 155.377 115.475C156.027 116.425 157.127 116.85 158.227 116.85C159.327 116.85 160.327 116.45 160.977 115.675ZM175.558 109.225L172.983 108C173.083 107.875 173.183 107.675 173.308 107.525C174.508 105.875 176.333 105.15 178.458 105.15C180.933 105.15 182.958 106 184.008 107.95C184.458 108.8 184.633 109.725 184.633 110.525V119H182.158V116.525C181.808 117.375 180.933 118.15 180.183 118.55C179.183 119.125 178.008 119.375 176.908 119.35C175.558 119.325 174.183 118.65 173.458 117.7C172.833 116.8 172.508 116.1 172.508 115.025C172.508 113.6 173.333 112.25 174.608 111.5C176.083 110.7 177.333 110.625 179.333 110.325L181.758 109.975C181.633 109.325 181.258 108.75 180.708 108.375C180.083 107.925 179.258 107.75 178.408 107.775C177.383 107.775 176.458 108.075 175.858 108.825C175.758 108.95 175.633 109.1 175.558 109.225ZM181.833 112.275C181.333 112.35 180.483 112.5 179.008 112.775C177.233 113.075 175.358 113.4 175.308 114.85C175.283 115.85 176.158 116.75 177.408 116.775C178.983 116.8 180.933 115.975 181.508 114.275C181.833 113.5 181.833 112.825 181.833 112.275ZM199.583 108.5L196.958 109.65C196.858 109.45 196.733 109.25 196.608 109.075C195.958 108.2 194.908 107.75 193.783 107.775C192.658 107.75 191.608 108.2 190.983 109.075C190.333 109.925 190.133 111.1 190.108 112.25C190.133 113.4 190.333 114.575 190.983 115.425C191.608 116.275 192.658 116.7 193.783 116.7C194.908 116.7 195.958 116.275 196.608 115.425C196.733 115.25 196.833 115.075 196.933 114.875L199.583 116.025C199.358 116.4 199.133 116.775 198.833 117.125C197.633 118.6 195.733 119.4 193.783 119.35C191.833 119.4 189.958 118.625 188.733 117.125C187.608 115.75 187.133 114.025 187.133 112.25C187.133 110.45 187.608 108.75 188.733 107.35C190.008 105.825 191.858 105.125 193.783 105.125C195.758 105.125 197.608 105.875 198.833 107.35C199.133 107.725 199.383 108.1 199.583 108.5ZM213.528 108.5L210.903 109.65C210.803 109.45 210.678 109.25 210.553 109.075C209.903 108.2 208.853 107.75 207.728 107.775C206.603 107.75 205.553 108.2 204.928 109.075C204.278 109.925 204.078 111.1 204.053 112.25C204.078 113.4 204.278 114.575 204.928 115.425C205.553 116.275 206.603 116.7 207.728 116.7C208.853 116.7 209.903 116.275 210.553 115.425C210.678 115.25 210.778 115.075 210.878 114.875L213.528 116.025C213.303 116.4 213.078 116.775 212.778 117.125C211.578 118.6 209.678 119.4 207.728 119.35C205.778 119.4 203.903 118.625 202.678 117.125C201.553 115.75 201.078 114.025 201.078 112.25C201.078 110.45 201.553 108.75 202.678 107.35C203.953 105.825 205.803 105.125 207.728 105.125C209.703 105.125 211.553 105.875 212.778 107.35C213.078 107.725 213.328 108.1 213.528 108.5ZM218.048 113.025C218.148 113.9 218.373 114.775 218.873 115.425C219.523 116.275 220.573 116.725 221.698 116.725C222.823 116.725 223.848 116.275 224.498 115.425C224.648 115.225 224.723 115.05 224.823 114.875L227.623 116.075C227.398 116.475 227.148 116.85 226.848 117.2C225.573 118.675 223.648 119.45 221.698 119.375C219.723 119.3 217.848 118.625 216.623 117.15C215.473 115.725 214.998 114 215.023 112.25C215.073 110.425 215.498 108.725 216.623 107.35C217.848 105.875 219.723 105.125 221.698 105.125C223.673 105.125 225.523 105.85 226.748 107.35C227.873 108.725 228.348 110.475 228.348 112.25C228.348 112.5 228.323 112.775 228.298 113.025H218.048ZM221.698 107.775C220.573 107.75 219.523 108.2 218.873 109.075C218.498 109.55 218.273 110.15 218.148 110.775H225.223C225.098 110.15 224.873 109.55 224.498 109.075C223.848 108.2 222.823 107.75 221.698 107.775ZM241.331 109.05L238.581 109.725C238.381 109.1 237.856 108.475 237.256 108.175C236.781 107.925 236.206 107.775 235.581 107.775C234.931 107.775 234.331 107.9 233.881 108.125C233.406 108.4 233.206 108.75 233.206 109.075C233.206 109.325 233.281 109.525 233.406 109.675C233.681 109.975 234.181 110.2 234.956 110.425C235.631 110.625 236.456 110.825 237.281 111.05C238.356 111.375 239.081 111.575 239.931 112.275C240.981 113.125 241.531 114.2 241.431 115.5C241.331 116.725 240.631 117.8 239.581 118.475C238.506 119.175 237.181 119.375 235.831 119.375C234.006 119.375 232.406 118.875 231.206 117.6C230.531 116.825 229.881 115.425 229.781 114.625L232.481 113.975C232.506 114.525 232.781 115.325 233.231 115.775C233.906 116.525 234.856 116.7 235.806 116.7C236.556 116.7 237.556 116.55 238.031 116.175C238.381 115.9 238.506 115.625 238.581 115.25C238.581 114.9 238.481 114.6 238.206 114.325C237.831 113.975 237.256 113.775 236.556 113.575C235.856 113.375 235.131 113.2 234.306 112.975C233.181 112.675 232.381 112.375 231.656 111.775C230.756 111.1 230.331 110.05 230.331 109.125C230.331 107.55 231.356 106.25 232.706 105.65C233.731 105.2 234.706 105.1 235.631 105.125C236.556 105.125 237.581 105.325 238.481 105.8C239.806 106.45 240.856 107.675 241.331 109.05ZM254.738 109.05L251.988 109.725C251.788 109.1 251.263 108.475 250.663 108.175C250.188 107.925 249.613 107.775 248.988 107.775C248.338 107.775 247.738 107.9 247.288 108.125C246.813 108.4 246.613 108.75 246.613 109.075C246.613 109.325 246.688 109.525 246.813 109.675C247.088 109.975 247.588 110.2 248.363 110.425C249.038 110.625 249.863 110.825 250.688 111.05C251.763 111.375 252.488 111.575 253.338 112.275C254.388 113.125 254.938 114.2 254.838 115.5C254.738 116.725 254.038 117.8 252.988 118.475C251.913 119.175 250.588 119.375 249.238 119.375C247.413 119.375 245.813 118.875 244.613 117.6C243.938 116.825 243.288 115.425 243.188 114.625L245.888 113.975C245.913 114.525 246.188 115.325 246.638 115.775C247.313 116.525 248.263 116.7 249.213 116.7C249.963 116.7 250.963 116.55 251.438 116.175C251.788 115.9 251.913 115.625 251.988 115.25C251.988 114.9 251.888 114.6 251.613 114.325C251.238 113.975 250.663 113.775 249.963 113.575C249.263 113.375 248.538 113.2 247.713 112.975C246.588 112.675 245.788 112.375 245.063 111.775C244.163 111.1 243.738 110.05 243.738 109.125C243.738 107.55 244.763 106.25 246.113 105.65C247.138 105.2 248.113 105.1 249.038 105.125C249.963 105.125 250.988 105.325 251.888 105.8C253.213 106.45 254.263 107.675 254.738 109.05Z" fill="white"/>
<rect x="28" y="35" width="52" height="52" rx="5" fill="#14131F"/>
<path d="M63.2177 53.9507C63.101 53.934 62.9844 53.934 62.8677 53.9507C60.2844 53.8673 58.2344 51.7507 58.2344 49.1507C58.2344 46.5007 60.3844 44.334 63.051 44.334C65.701 44.334 67.8677 46.484 67.8677 49.1507C67.851 51.7507 65.801 53.8673 63.2177 53.9507Z" fill="#515155"/>
<path d="M68.6474 65.5007C66.7807 66.7507 64.1641 67.2173 61.7474 66.9007C62.3807 65.534 62.7141 64.0173 62.7307 62.4173C62.7307 60.7507 62.3641 59.1673 61.6641 57.784C64.1307 57.4507 66.7474 57.9173 68.6307 59.1673C71.2641 60.9007 71.2641 63.7507 68.6474 65.5007Z" fill="#515155"/>
<path d="M44.7349 53.9507C44.8516 53.934 44.9682 53.934 45.0849 53.9507C47.6682 53.8673 49.7182 51.7507 49.7182 49.1507C49.7182 46.484 47.5682 44.334 44.9016 44.334C42.2516 44.334 40.1016 46.484 40.1016 49.1507C40.1016 51.7507 42.1516 53.8673 44.7349 53.9507Z" fill="#515155"/>
<path d="M44.9198 62.4157C44.9198 64.0324 45.2698 65.5657 45.9031 66.949C43.5531 67.199 41.1031 66.699 39.3031 65.5157C36.6698 63.7657 36.6698 60.9157 39.3031 59.1657C41.0865 57.9657 43.6031 57.4824 45.9698 57.749C45.2865 59.149 44.9198 60.7324 44.9198 62.4157Z" fill="#515155"/>
<path d="M54.2 67.45C54.0667 67.4333 53.9167 67.4333 53.7667 67.45C50.7 67.35 48.25 64.8333 48.25 61.7333C48.2667 58.5667 50.8167 56 54 56C57.1667 56 59.7333 58.5667 59.7333 61.7333C59.7167 64.8333 57.2833 67.35 54.2 67.45Z" fill="#515155"/>
<path d="M48.7859 70.9004C46.2693 72.5837 46.2693 75.3504 48.7859 77.0171C51.6526 78.9337 56.3526 78.9337 59.2193 77.0171C61.7359 75.3337 61.7359 72.5671 59.2193 70.9004C56.3693 68.9837 51.6693 68.9837 48.7859 70.9004Z" fill="#515155"/>
</svg>
