<svg width="390" height="240" viewBox="0 0 390 240" fill="none" xmlns="http://www.w3.org/2000/svg">
<rect x="0.5" y="0.5" width="389" height="239" rx="14.5" fill="#0E0D18" stroke="#43424B"/>
<path d="M42.0167 141H43.45L39.9667 153H38.6167L35.85 143.45L33.0833 153H31.7333L28.2667 141H29.6833L32.4167 150.633L35.1333 141H36.55L39.2833 150.633L42.0167 141ZM45.3833 148.867C45.4167 149.633 45.6 150.383 46.0333 150.95C46.5167 151.617 47.35 151.967 48.2167 151.967C49.0833 151.967 49.9 151.617 50.4 150.95C50.5167 150.783 50.6 150.633 50.6833 150.467L52.0167 151.05C51.8833 151.3 51.7167 151.567 51.5167 151.8C50.7333 152.767 49.4833 153.283 48.2167 153.25C46.9333 153.217 45.7167 152.75 44.9333 151.783C44.1833 150.833 43.9167 149.65 43.9167 148.5C43.9333 147.317 44.1833 146.167 44.9333 145.217C45.7333 144.233 46.9167 143.75 48.2167 143.75C49.5167 143.75 50.7 144.233 51.4833 145.217C52.2333 146.167 52.5 147.333 52.5 148.5C52.5 148.617 52.5 148.75 52.4833 148.867H45.3833ZM48.2167 145.033C47.35 145.033 46.5167 145.383 46.0333 146.05C45.6833 146.517 45.4833 147.117 45.4167 147.733H51.0167C50.95 147.117 50.75 146.517 50.4 146.05C49.9 145.383 49.0833 145.033 48.2167 145.033ZM65.0906 146.367L63.7573 146.683C63.5573 146.133 63.1406 145.617 62.624 145.35C62.2406 145.15 61.774 145.05 61.2906 145.05C60.8073 145.033 60.3406 145.117 59.9573 145.3C59.5573 145.517 59.2906 145.867 59.2906 146.233C59.2906 146.5 59.374 146.717 59.574 146.917C59.7906 147.133 60.1073 147.283 60.7073 147.45C61.1573 147.583 61.724 147.733 62.424 147.917C63.0906 148.1 63.6406 148.3 64.174 148.75C64.8573 149.3 65.174 149.967 65.1073 150.767C65.0406 151.533 64.6073 152.233 63.9573 152.65C63.2573 153.1 62.3406 153.233 61.4406 153.233C60.2573 153.233 59.1906 152.9 58.424 152.083C57.9073 151.5 57.5906 150.667 57.474 150.05L58.7906 149.733C58.8573 150.233 59.0573 150.8 59.4073 151.2C59.924 151.767 60.6906 151.95 61.424 151.95C62.0406 151.95 62.7906 151.817 63.2073 151.533C63.524 151.3 63.674 151 63.724 150.65C63.7573 150.3 63.624 149.983 63.3406 149.75C63.0573 149.483 62.7073 149.35 62.0406 149.15C61.5906 149.017 61.0906 148.883 60.474 148.717C59.7906 148.533 59.224 148.35 58.7073 147.933C58.1406 147.5 57.8906 146.85 57.8906 146.25C57.8906 145.3 58.5573 144.483 59.3906 144.1C60.0406 143.817 60.6906 143.733 61.324 143.75C61.9406 143.75 62.624 143.883 63.224 144.183C64.074 144.633 64.824 145.483 65.0906 146.367ZM67.0365 141H68.3865V142.45H67.0365V141ZM67.0365 144H68.3865V153H67.0365V144ZM77.5521 144H78.7521V152.967C78.7521 154.667 78.3854 155.633 77.3521 156.4C76.4854 157.033 75.4854 157.25 74.5688 157.25C73.5688 157.25 72.5688 156.9 71.9188 156.217C71.5688 155.983 71.2188 155.65 71.0021 155.267L72.2521 154.667C72.3521 154.833 72.4688 154.983 72.6021 155.117C73.0854 155.667 73.8521 155.933 74.5688 155.933C75.3188 155.933 76.0854 155.733 76.6188 155.3C77.2521 154.75 77.4021 154.167 77.3854 152.95V152.05C76.6854 152.85 75.6521 153.25 74.5021 153.25C73.2688 153.25 72.1354 152.75 71.3854 151.8C70.6354 150.85 70.3854 149.667 70.3854 148.483C70.3854 147.317 70.6521 146.117 71.3854 145.2C72.1021 144.267 73.2521 143.75 74.4688 143.75C75.6688 143.75 76.8188 144.25 77.5521 145.133V144ZM76.8188 151.033C77.3521 150.383 77.5521 149.433 77.5521 148.483C77.5521 147.55 77.3521 146.6 76.8188 145.95C76.3354 145.3 75.5354 145 74.6854 145C73.7854 145 72.9854 145.317 72.4854 146.017C72.0021 146.667 71.8188 147.567 71.8188 148.483C71.8188 149.417 71.9854 150.317 72.4688 150.95C72.9688 151.65 73.8021 152 74.6521 152C75.5188 152 76.3188 151.667 76.8188 151.033ZM87.4719 144.533C88.7052 145.483 88.9219 146.917 88.9052 148.567V153H87.5385V148.567C87.5385 147.283 87.4052 146.217 86.5385 145.567C86.0885 145.233 85.5052 145.067 84.8385 145.1C84.2885 145.117 83.7552 145.3 83.3552 145.65C82.9385 146.017 82.6719 146.55 82.5552 147.15C82.4719 147.517 82.4552 147.95 82.4552 148.383V153H81.0885V144H82.3052V145.017C82.3885 144.917 82.4885 144.817 82.5885 144.717C83.2552 144.117 84.1385 143.817 84.9552 143.783C85.8385 143.733 86.7552 144 87.4719 144.533ZM95.7688 146.267L94.5188 145.683C94.5854 145.567 94.6854 145.4 94.7854 145.283C95.5688 144.233 96.7354 143.767 98.0854 143.767C99.7354 143.767 101.085 144.367 101.735 145.767C101.985 146.283 102.085 146.85 102.085 147.367V153H100.885V151.217C100.552 151.867 99.9188 152.417 99.3021 152.717C98.5688 153.083 97.7854 153.267 96.9854 153.217C96.0854 153.183 95.1521 152.717 94.6688 152.017C94.3188 151.483 94.1354 151 94.1354 150.367C94.1354 149.417 94.6354 148.583 95.4521 148.083C96.4354 147.55 97.4188 147.467 98.8188 147.25L100.685 147C100.602 146.433 100.352 145.933 99.9188 145.6C99.4354 145.2 98.7521 145.05 98.0688 145.05C97.2354 145.05 96.4521 145.333 95.9854 145.967C95.9021 146.067 95.8354 146.167 95.7688 146.267ZM100.735 148.15C100.069 148.25 99.4688 148.35 98.5521 148.5C97.1021 148.717 95.5188 148.983 95.5021 150.3C95.4854 151.133 96.2188 151.883 97.1688 151.967C98.3521 152.083 99.8521 151.4 100.385 150.217C100.735 149.483 100.735 148.9 100.735 148.15ZM115.98 147.517C116.447 148.1 116.697 148.867 116.664 149.617C116.63 150.367 116.38 151.117 115.914 151.683C115.43 152.25 114.797 152.633 114.114 152.833C113.58 152.983 113.047 153 112.497 153H108.13V141H112.28C112.764 141 113.364 141 113.73 141.133C114.364 141.3 114.947 141.667 115.364 142.183C115.797 142.7 116.047 143.367 116.097 144.083C116.13 144.767 115.88 145.467 115.447 146C115.297 146.2 115.13 146.4 114.947 146.55C115.347 146.8 115.697 147.117 115.98 147.517ZM112.764 142.283H109.497V146.067H112.764C113.297 146.067 113.964 145.767 114.314 145.25C114.564 144.917 114.697 144.5 114.697 144.083C114.697 143.617 114.497 143.183 114.197 142.883C113.78 142.433 113.347 142.283 112.764 142.283ZM114.68 151.033C115.047 150.667 115.264 150.167 115.28 149.617C115.28 149.117 115.114 148.6 114.797 148.2C114.397 147.633 113.68 147.35 113.064 147.35H109.497V151.7H112.48C113.447 151.7 114.08 151.7 114.68 151.033ZM124.534 144H125.884V153H124.684V151.967C124.601 152.067 124.501 152.183 124.384 152.283C123.734 152.883 122.851 153.183 122.018 153.217C121.151 153.267 120.218 153 119.501 152.467C118.268 151.517 118.051 150.083 118.068 148.433V144H119.434V148.433C119.434 149.717 119.584 150.783 120.434 151.417C120.884 151.767 121.468 151.917 122.134 151.9C122.701 151.883 123.218 151.7 123.618 151.333C124.034 150.983 124.318 150.45 124.418 149.85C124.534 149.3 124.534 148.633 124.534 147.95V147.933V144ZM135.247 146.367L133.914 146.683C133.714 146.133 133.297 145.617 132.78 145.35C132.397 145.15 131.93 145.05 131.447 145.05C130.964 145.033 130.497 145.117 130.114 145.3C129.714 145.517 129.447 145.867 129.447 146.233C129.447 146.5 129.53 146.717 129.73 146.917C129.947 147.133 130.264 147.283 130.864 147.45C131.314 147.583 131.88 147.733 132.58 147.917C133.247 148.1 133.797 148.3 134.33 148.75C135.014 149.3 135.33 149.967 135.264 150.767C135.197 151.533 134.764 152.233 134.114 152.65C133.414 153.1 132.497 153.233 131.597 153.233C130.414 153.233 129.347 152.9 128.58 152.083C128.064 151.5 127.747 150.667 127.63 150.05L128.947 149.733C129.014 150.233 129.214 150.8 129.564 151.2C130.08 151.767 130.847 151.95 131.58 151.95C132.197 151.95 132.947 151.817 133.364 151.533C133.68 151.3 133.83 151 133.88 150.65C133.914 150.3 133.78 149.983 133.497 149.75C133.214 149.483 132.864 149.35 132.197 149.15C131.747 149.017 131.247 148.883 130.63 148.717C129.947 148.533 129.38 148.35 128.864 147.933C128.297 147.5 128.047 146.85 128.047 146.25C128.047 145.3 128.714 144.483 129.547 144.1C130.197 143.817 130.847 143.733 131.48 143.75C132.097 143.75 132.78 143.883 133.38 144.183C134.23 144.633 134.98 145.483 135.247 146.367ZM137.193 141H138.543V142.45H137.193V141ZM137.193 144H138.543V153H137.193V144ZM147.425 144.533C148.658 145.483 148.875 146.917 148.858 148.567V153H147.492V148.567C147.492 147.283 147.358 146.217 146.492 145.567C146.042 145.233 145.458 145.067 144.792 145.1C144.242 145.117 143.708 145.3 143.308 145.65C142.892 146.017 142.625 146.55 142.508 147.15C142.425 147.517 142.408 147.95 142.408 148.383V153H141.042V144H142.258V145.017C142.342 144.917 142.442 144.817 142.542 144.717C143.208 144.117 144.092 143.817 144.908 143.783C145.792 143.733 146.708 144 147.425 144.533ZM151.836 148.867C151.87 149.633 152.053 150.383 152.486 150.95C152.97 151.617 153.803 151.967 154.67 151.967C155.536 151.967 156.353 151.617 156.853 150.95C156.97 150.783 157.053 150.633 157.136 150.467L158.47 151.05C158.336 151.3 158.17 151.567 157.97 151.8C157.186 152.767 155.936 153.283 154.67 153.25C153.386 153.217 152.17 152.75 151.386 151.783C150.636 150.833 150.37 149.65 150.37 148.5C150.386 147.317 150.636 146.167 151.386 145.217C152.186 144.233 153.37 143.75 154.67 143.75C155.97 143.75 157.153 144.233 157.936 145.217C158.686 146.167 158.953 147.333 158.953 148.5C158.953 148.617 158.953 148.75 158.936 148.867H151.836ZM154.67 145.033C153.803 145.033 152.97 145.383 152.486 146.05C152.136 146.517 151.936 147.117 151.87 147.733H157.47C157.403 147.117 157.203 146.517 156.853 146.05C156.353 145.383 155.536 145.033 154.67 145.033ZM167.591 146.367L166.257 146.683C166.057 146.133 165.641 145.617 165.124 145.35C164.741 145.15 164.274 145.05 163.791 145.05C163.307 145.033 162.841 145.117 162.457 145.3C162.057 145.517 161.791 145.867 161.791 146.233C161.791 146.5 161.874 146.717 162.074 146.917C162.291 147.133 162.607 147.283 163.207 147.45C163.657 147.583 164.224 147.733 164.924 147.917C165.591 148.1 166.141 148.3 166.674 148.75C167.357 149.3 167.674 149.967 167.607 150.767C167.541 151.533 167.107 152.233 166.457 152.65C165.757 153.1 164.841 153.233 163.941 153.233C162.757 153.233 161.691 152.9 160.924 152.083C160.407 151.5 160.091 150.667 159.974 150.05L161.291 149.733C161.357 150.233 161.557 150.8 161.907 151.2C162.424 151.767 163.191 151.95 163.924 151.95C164.541 151.95 165.291 151.817 165.707 151.533C166.024 151.3 166.174 151 166.224 150.65C166.257 150.3 166.124 149.983 165.841 149.75C165.557 149.483 165.207 149.35 164.541 149.15C164.091 149.017 163.591 148.883 162.974 148.717C162.291 148.533 161.724 148.35 161.207 147.933C160.641 147.5 160.391 146.85 160.391 146.25C160.391 145.3 161.057 144.483 161.891 144.1C162.541 143.817 163.191 143.733 163.824 143.75C164.441 143.75 165.124 143.883 165.724 144.183C166.574 144.633 167.324 145.483 167.591 146.367ZM176.403 146.367L175.07 146.683C174.87 146.133 174.453 145.617 173.936 145.35C173.553 145.15 173.086 145.05 172.603 145.05C172.12 145.033 171.653 145.117 171.27 145.3C170.87 145.517 170.603 145.867 170.603 146.233C170.603 146.5 170.686 146.717 170.886 146.917C171.103 147.133 171.42 147.283 172.02 147.45C172.47 147.583 173.036 147.733 173.736 147.917C174.403 148.1 174.953 148.3 175.486 148.75C176.17 149.3 176.486 149.967 176.42 150.767C176.353 151.533 175.92 152.233 175.27 152.65C174.57 153.1 173.653 153.233 172.753 153.233C171.57 153.233 170.503 152.9 169.736 152.083C169.22 151.5 168.903 150.667 168.786 150.05L170.103 149.733C170.17 150.233 170.37 150.8 170.72 151.2C171.236 151.767 172.003 151.95 172.736 151.95C173.353 151.95 174.103 151.817 174.52 151.533C174.836 151.3 174.986 151 175.036 150.65C175.07 150.3 174.936 149.983 174.653 149.75C174.37 149.483 174.02 149.35 173.353 149.15C172.903 149.017 172.403 148.883 171.786 148.717C171.103 148.533 170.536 148.35 170.02 147.933C169.453 147.5 169.203 146.85 169.203 146.25C169.203 145.3 169.87 144.483 170.703 144.1C171.353 143.817 172.003 143.733 172.636 143.75C173.253 143.75 173.936 143.883 174.536 144.183C175.386 144.633 176.136 145.483 176.403 146.367ZM189.401 153L188.618 150.7H183.018L182.234 153H180.818L184.901 141H186.734L190.818 153H189.401ZM183.451 149.417H188.168L185.801 142.483L183.451 149.417ZM199.106 146.367L197.773 146.683C197.573 146.133 197.156 145.617 196.64 145.35C196.256 145.15 195.79 145.05 195.306 145.05C194.823 145.033 194.356 145.117 193.973 145.3C193.573 145.517 193.306 145.867 193.306 146.233C193.306 146.5 193.39 146.717 193.59 146.917C193.806 147.133 194.123 147.283 194.723 147.45C195.173 147.583 195.74 147.733 196.44 147.917C197.106 148.1 197.656 148.3 198.19 148.75C198.873 149.3 199.19 149.967 199.123 150.767C199.056 151.533 198.623 152.233 197.973 152.65C197.273 153.1 196.356 153.233 195.456 153.233C194.273 153.233 193.206 152.9 192.44 152.083C191.923 151.5 191.606 150.667 191.49 150.05L192.806 149.733C192.873 150.233 193.073 150.8 193.423 151.2C193.94 151.767 194.706 151.95 195.44 151.95C196.056 151.95 196.806 151.817 197.223 151.533C197.54 151.3 197.69 151 197.74 150.65C197.773 150.3 197.64 149.983 197.356 149.75C197.073 149.483 196.723 149.35 196.056 149.15C195.606 149.017 195.106 148.883 194.49 148.717C193.806 148.533 193.24 148.35 192.723 147.933C192.156 147.5 191.906 146.85 191.906 146.25C191.906 145.3 192.573 144.483 193.406 144.1C194.056 143.817 194.706 143.733 195.34 143.75C195.956 143.75 196.64 143.883 197.24 144.183C198.09 144.633 198.84 145.483 199.106 146.367ZM207.919 146.367L206.585 146.683C206.385 146.133 205.969 145.617 205.452 145.35C205.069 145.15 204.602 145.05 204.119 145.05C203.635 145.033 203.169 145.117 202.785 145.3C202.385 145.517 202.119 145.867 202.119 146.233C202.119 146.5 202.202 146.717 202.402 146.917C202.619 147.133 202.935 147.283 203.535 147.45C203.985 147.583 204.552 147.733 205.252 147.917C205.919 148.1 206.469 148.3 207.002 148.75C207.685 149.3 208.002 149.967 207.935 150.767C207.869 151.533 207.435 152.233 206.785 152.65C206.085 153.1 205.169 153.233 204.269 153.233C203.085 153.233 202.019 152.9 201.252 152.083C200.735 151.5 200.419 150.667 200.302 150.05L201.619 149.733C201.685 150.233 201.885 150.8 202.235 151.2C202.752 151.767 203.519 151.95 204.252 151.95C204.869 151.95 205.619 151.817 206.035 151.533C206.352 151.3 206.502 151 206.552 150.65C206.585 150.3 206.452 149.983 206.169 149.75C205.885 149.483 205.535 149.35 204.869 149.15C204.419 149.017 203.919 148.883 203.302 148.717C202.619 148.533 202.052 148.35 201.535 147.933C200.969 147.5 200.719 146.85 200.719 146.25C200.719 145.3 201.385 144.483 202.219 144.1C202.869 143.817 203.519 143.733 204.152 143.75C204.769 143.75 205.452 143.883 206.052 144.183C206.902 144.633 207.652 145.483 207.919 146.367ZM213.498 153.25C212.198 153.25 210.998 152.767 210.215 151.783C209.465 150.833 209.198 149.667 209.198 148.483C209.198 147.317 209.481 146.133 210.215 145.217C210.981 144.267 212.198 143.75 213.498 143.75C214.781 143.75 215.998 144.233 216.765 145.217C217.548 146.167 217.798 147.333 217.798 148.483C217.798 149.7 217.531 150.817 216.765 151.783C215.981 152.783 214.815 153.25 213.498 153.25ZM215.698 150.95C216.198 150.283 216.365 149.383 216.365 148.483C216.365 147.617 216.198 146.7 215.698 146.033C215.198 145.367 214.365 145.033 213.498 145.033C212.631 145.033 211.798 145.367 211.315 146.033C210.798 146.7 210.631 147.617 210.631 148.483C210.631 149.383 210.798 150.283 211.315 150.95C211.798 151.617 212.631 151.967 213.498 151.967C214.365 151.967 215.198 151.617 215.698 150.95ZM227.185 146L225.919 146.55C225.835 146.367 225.719 146.2 225.619 146.05C225.119 145.367 224.302 145.033 223.419 145.033C222.569 145.033 221.735 145.367 221.252 146.05C220.735 146.717 220.585 147.617 220.569 148.5C220.585 149.383 220.735 150.283 221.252 150.95C221.735 151.617 222.569 151.95 223.419 151.95C224.302 151.95 225.119 151.617 225.619 150.95C225.719 150.8 225.819 150.633 225.902 150.467L227.185 151.033C227.035 151.283 226.885 151.533 226.702 151.767C225.919 152.75 224.719 153.25 223.419 153.25C222.135 153.25 220.935 152.767 220.152 151.767C219.402 150.833 219.152 149.65 219.135 148.5C219.152 147.333 219.402 146.167 220.152 145.217C220.969 144.2 222.135 143.75 223.419 143.75C224.719 143.75 225.902 144.233 226.702 145.217C226.885 145.467 227.052 145.717 227.185 146ZM228.849 141H230.199V142.45H228.849V141ZM228.849 144H230.199V153H228.849V144ZM233.831 146.267L232.581 145.683C232.648 145.567 232.748 145.4 232.848 145.283C233.631 144.233 234.798 143.767 236.148 143.767C237.798 143.767 239.148 144.367 239.798 145.767C240.048 146.283 240.148 146.85 240.148 147.367V153H238.948V151.217C238.615 151.867 237.981 152.417 237.365 152.717C236.631 153.083 235.848 153.267 235.048 153.217C234.148 153.183 233.215 152.717 232.731 152.017C232.381 151.483 232.198 151 232.198 150.367C232.198 149.417 232.698 148.583 233.515 148.083C234.498 147.55 235.481 147.467 236.881 147.25L238.748 147C238.665 146.433 238.415 145.933 237.981 145.6C237.498 145.2 236.815 145.05 236.131 145.05C235.298 145.05 234.515 145.333 234.048 145.967C233.965 146.067 233.898 146.167 233.831 146.267ZM238.798 148.15C238.131 148.25 237.531 148.35 236.615 148.5C235.165 148.717 233.581 148.983 233.565 150.3C233.548 151.133 234.281 151.883 235.231 151.967C236.415 152.083 237.915 151.4 238.448 150.217C238.798 149.483 238.798 148.9 238.798 148.15ZM244.674 145.133V149.6C244.674 150.35 244.657 150.8 244.874 151.183C245.057 151.583 245.474 151.817 245.924 151.85C246.391 151.9 246.941 151.883 247.407 151.8V153C246.807 153.15 245.974 153.183 245.391 153.067C244.591 152.917 243.974 152.55 243.641 151.867C243.324 151.233 243.324 150.533 243.324 149.667V145.133H241.307V144H243.324V141.5H244.674V144H247.407V145.133H244.674ZM250.368 148.867C250.401 149.633 250.584 150.383 251.018 150.95C251.501 151.617 252.334 151.967 253.201 151.967C254.068 151.967 254.884 151.617 255.384 150.95C255.501 150.783 255.584 150.633 255.668 150.467L257.001 151.05C256.868 151.3 256.701 151.567 256.501 151.8C255.718 152.767 254.468 153.283 253.201 153.25C251.918 153.217 250.701 152.75 249.918 151.783C249.168 150.833 248.901 149.65 248.901 148.5C248.918 147.317 249.168 146.167 249.918 145.217C250.718 144.233 251.901 143.75 253.201 143.75C254.501 143.75 255.684 144.233 256.468 145.217C257.218 146.167 257.484 147.333 257.484 148.5C257.484 148.617 257.484 148.75 257.468 148.867H250.368ZM253.201 145.033C252.334 145.033 251.501 145.383 251.018 146.05C250.668 146.517 250.468 147.117 250.401 147.733H256.001C255.934 147.117 255.734 146.517 255.384 146.05C254.884 145.383 254.068 145.033 253.201 145.033ZM36.6667 179L35.8833 176.7H30.2833L29.5 179H28.0833L32.1667 167H34L38.0833 179H36.6667ZM30.7167 175.417H35.4333L33.0667 168.483L30.7167 175.417ZM46.0052 170H47.2052V178.967C47.2052 180.667 46.8385 181.633 45.8052 182.4C44.9385 183.033 43.9385 183.25 43.0219 183.25C42.0219 183.25 41.0219 182.9 40.3719 182.217C40.0219 181.983 39.6719 181.65 39.4552 181.267L40.7052 180.667C40.8052 180.833 40.9219 180.983 41.0552 181.117C41.5385 181.667 42.3052 181.933 43.0219 181.933C43.7719 181.933 44.5385 181.733 45.0719 181.3C45.7052 180.75 45.8552 180.167 45.8385 178.95V178.05C45.1385 178.85 44.1052 179.25 42.9552 179.25C41.7219 179.25 40.5885 178.75 39.8385 177.8C39.0885 176.85 38.8385 175.667 38.8385 174.483C38.8385 173.317 39.1052 172.117 39.8385 171.2C40.5552 170.267 41.7052 169.75 42.9219 169.75C44.1219 169.75 45.2719 170.25 46.0052 171.133V170ZM45.2719 177.033C45.8052 176.383 46.0052 175.433 46.0052 174.483C46.0052 173.55 45.8052 172.6 45.2719 171.95C44.7885 171.3 43.9885 171 43.1385 171C42.2385 171 41.4385 171.317 40.9385 172.017C40.4552 172.667 40.2719 173.567 40.2719 174.483C40.2719 175.417 40.4385 176.317 40.9219 176.95C41.4219 177.65 42.2552 178 43.1052 178C43.9719 178 44.7719 177.667 45.2719 177.033ZM53.575 169.75C54.0083 169.75 54.425 169.8 54.825 169.933V171.217C54.4417 171.083 53.975 171 53.475 171.033C52.775 171.05 52.1583 171.283 51.7417 171.7C50.9417 172.45 50.9083 173.433 50.9083 174.65V179H49.5417V170H50.7583V171.333C50.9417 171.017 51.1917 170.733 51.525 170.467C52.1083 169.983 52.8583 169.767 53.575 169.75ZM57.1177 174.867C57.151 175.633 57.3344 176.383 57.7677 176.95C58.251 177.617 59.0844 177.967 59.951 177.967C60.8177 177.967 61.6344 177.617 62.1344 176.95C62.251 176.783 62.3344 176.633 62.4177 176.467L63.751 177.05C63.6177 177.3 63.451 177.567 63.251 177.8C62.4677 178.767 61.2177 179.283 59.951 179.25C58.6677 179.217 57.451 178.75 56.6677 177.783C55.9177 176.833 55.651 175.65 55.651 174.5C55.6677 173.317 55.9177 172.167 56.6677 171.217C57.4677 170.233 58.651 169.75 59.951 169.75C61.251 169.75 62.4344 170.233 63.2177 171.217C63.9677 172.167 64.2344 173.333 64.2344 174.5C64.2344 174.617 64.2344 174.75 64.2177 174.867H57.1177ZM59.951 171.033C59.0844 171.033 58.251 171.383 57.7677 172.05C57.4177 172.517 57.2177 173.117 57.151 173.733H62.751C62.6844 173.117 62.4844 172.517 62.1344 172.05C61.6344 171.383 60.8177 171.033 59.951 171.033ZM67.0396 174.867C67.0729 175.633 67.2563 176.383 67.6896 176.95C68.1729 177.617 69.0063 177.967 69.8729 177.967C70.7396 177.967 71.5563 177.617 72.0563 176.95C72.1729 176.783 72.2563 176.633 72.3396 176.467L73.6729 177.05C73.5396 177.3 73.3729 177.567 73.1729 177.8C72.3896 178.767 71.1396 179.283 69.8729 179.25C68.5896 179.217 67.3729 178.75 66.5896 177.783C65.8396 176.833 65.5729 175.65 65.5729 174.5C65.5896 173.317 65.8396 172.167 66.5896 171.217C67.3896 170.233 68.5729 169.75 69.8729 169.75C71.1729 169.75 72.3563 170.233 73.1396 171.217C73.8896 172.167 74.1563 173.333 74.1563 174.5C74.1563 174.617 74.1563 174.75 74.1396 174.867H67.0396ZM69.8729 171.033C69.0063 171.033 68.1729 171.383 67.6896 172.05C67.3396 172.517 67.1396 173.117 67.0729 173.733H72.6729C72.6063 173.117 72.4063 172.517 72.0563 172.05C71.5563 171.383 70.7396 171.033 69.8729 171.033ZM86.9979 170.683C87.9646 171.467 88.0479 172.4 88.0479 173.683V179H86.6979V173.683C86.6979 172.767 86.6479 172.233 86.0146 171.683C85.6646 171.367 85.1979 171.2 84.7313 171.2C84.0979 171.2 83.5312 171.45 83.1479 171.917C82.7479 172.417 82.6813 172.9 82.6813 173.467V173.683L82.6646 179H81.3313V173.683C81.3313 172.767 81.2813 172.233 80.6313 171.683C80.2979 171.367 79.8313 171.2 79.3479 171.2C78.7313 171.2 78.1479 171.45 77.7813 171.917C77.3813 172.417 77.3146 172.9 77.3146 173.467V179H75.9479V170H77.1646V171.2C77.7479 170.417 78.6979 169.983 79.6813 169.983C80.3479 169.983 81.0813 170.233 81.6313 170.683C81.9479 170.95 82.1646 171.233 82.3313 171.533C82.3646 171.45 82.4146 171.383 82.4646 171.317C83.0312 170.467 84.0146 169.983 85.0479 169.983C85.7313 169.983 86.4479 170.233 86.9979 170.683ZM91.0083 174.867C91.0417 175.633 91.225 176.383 91.6583 176.95C92.1417 177.617 92.975 177.967 93.8417 177.967C94.7083 177.967 95.525 177.617 96.025 176.95C96.1417 176.783 96.225 176.633 96.3083 176.467L97.6417 177.05C97.5083 177.3 97.3417 177.567 97.1417 177.8C96.3583 178.767 95.1083 179.283 93.8417 179.25C92.5583 179.217 91.3417 178.75 90.5583 177.783C89.8083 176.833 89.5417 175.65 89.5417 174.5C89.5583 173.317 89.8083 172.167 90.5583 171.217C91.3583 170.233 92.5417 169.75 93.8417 169.75C95.1417 169.75 96.325 170.233 97.1083 171.217C97.8583 172.167 98.125 173.333 98.125 174.5C98.125 174.617 98.125 174.75 98.1083 174.867H91.0083ZM93.8417 171.033C92.975 171.033 92.1417 171.383 91.6583 172.05C91.3083 172.517 91.1083 173.117 91.0417 173.733H96.6417C96.575 173.117 96.375 172.517 96.025 172.05C95.525 171.383 94.7083 171.033 93.8417 171.033ZM106.3 170.533C107.533 171.483 107.75 172.917 107.733 174.567V179H106.367V174.567C106.367 173.283 106.233 172.217 105.367 171.567C104.917 171.233 104.333 171.067 103.667 171.1C103.117 171.117 102.583 171.3 102.183 171.65C101.767 172.017 101.5 172.55 101.383 173.15C101.3 173.517 101.283 173.95 101.283 174.383V179H99.9167V170H101.133V171.017C101.217 170.917 101.317 170.817 101.417 170.717C102.083 170.117 102.967 169.817 103.783 169.783C104.667 169.733 105.583 170 106.3 170.533ZM112.111 171.133V175.6C112.111 176.35 112.095 176.8 112.311 177.183C112.495 177.583 112.911 177.817 113.361 177.85C113.828 177.9 114.378 177.883 114.845 177.8V179C114.245 179.15 113.411 179.183 112.828 179.067C112.028 178.917 111.411 178.55 111.078 177.867C110.761 177.233 110.761 176.533 110.761 175.667V171.133H108.745V170H110.761V167.5H112.111V170H114.845V171.133H112.111ZM130.441 170H131.774L129.024 179H127.674L125.674 172.2L123.591 179H122.307L119.557 170H120.924L122.991 176.783L125.057 170H126.274L128.357 176.783L130.441 170ZM133.271 167H134.621V168.45H133.271V167ZM133.271 170H134.621V179H133.271V170ZM139.486 171.133V175.6C139.486 176.35 139.47 176.8 139.686 177.183C139.87 177.583 140.286 177.817 140.736 177.85C141.203 177.9 141.753 177.883 142.22 177.8V179C141.62 179.15 140.786 179.183 140.203 179.067C139.403 178.917 138.786 178.55 138.453 177.867C138.136 177.233 138.136 176.533 138.136 175.667V171.133H136.12V170H138.136V167.5H139.486V170H142.22V171.133H139.486ZM150.597 170.533C151.83 171.483 152.047 172.917 152.03 174.567V179H150.664V174.567C150.664 173.283 150.53 172.217 149.664 171.567C149.214 171.233 148.63 171.067 147.964 171.1C147.414 171.117 146.88 171.3 146.48 171.65C146.064 172.017 145.797 172.55 145.68 173.15C145.597 173.517 145.58 173.95 145.58 174.383V179H144.214V167H145.43V171.017C145.514 170.917 145.614 170.817 145.714 170.717C146.38 170.117 147.264 169.817 148.08 169.783C148.964 169.733 149.88 170 150.597 170.533ZM158.711 174.867C158.745 175.633 158.928 176.383 159.361 176.95C159.845 177.617 160.678 177.967 161.545 177.967C162.411 177.967 163.228 177.617 163.728 176.95C163.845 176.783 163.928 176.633 164.011 176.467L165.345 177.05C165.211 177.3 165.045 177.567 164.845 177.8C164.061 178.767 162.811 179.283 161.545 179.25C160.261 179.217 159.045 178.75 158.261 177.783C157.511 176.833 157.245 175.65 157.245 174.5C157.261 173.317 157.511 172.167 158.261 171.217C159.061 170.233 160.245 169.75 161.545 169.75C162.845 169.75 164.028 170.233 164.811 171.217C165.561 172.167 165.828 173.333 165.828 174.5C165.828 174.617 165.828 174.75 165.811 174.867H158.711ZM161.545 171.033C160.678 171.033 159.845 171.383 159.361 172.05C159.011 172.517 158.811 173.117 158.745 173.733H164.345C164.278 173.117 164.078 172.517 163.728 172.05C163.228 171.383 162.411 171.033 161.545 171.033ZM173.239 170H174.622L171.339 179H169.955L166.689 170H168.055L170.655 177.25L173.239 170ZM176.946 174.867C176.979 175.633 177.163 176.383 177.596 176.95C178.079 177.617 178.913 177.967 179.779 177.967C180.646 177.967 181.463 177.617 181.963 176.95C182.079 176.783 182.163 176.633 182.246 176.467L183.579 177.05C183.446 177.3 183.279 177.567 183.079 177.8C182.296 178.767 181.046 179.283 179.779 179.25C178.496 179.217 177.279 178.75 176.496 177.783C175.746 176.833 175.479 175.65 175.479 174.5C175.496 173.317 175.746 172.167 176.496 171.217C177.296 170.233 178.479 169.75 179.779 169.75C181.079 169.75 182.263 170.233 183.046 171.217C183.796 172.167 184.063 173.333 184.063 174.5C184.063 174.617 184.063 174.75 184.046 174.867H176.946ZM179.779 171.033C178.913 171.033 178.079 171.383 177.596 172.05C177.246 172.517 177.046 173.117 176.979 173.733H182.579C182.513 173.117 182.313 172.517 181.963 172.05C181.463 171.383 180.646 171.033 179.779 171.033ZM189.934 169.75C190.368 169.75 190.784 169.8 191.184 169.933V171.217C190.801 171.083 190.334 171 189.834 171.033C189.134 171.05 188.518 171.283 188.101 171.7C187.301 172.45 187.268 173.433 187.268 174.65V179H185.901V170H187.118V171.333C187.301 171.017 187.551 170.733 187.884 170.467C188.468 169.983 189.218 169.767 189.934 169.75ZM199.26 170.017H200.627L196.527 180.7C196.194 181.6 195.794 182.233 195.294 182.583C194.81 182.95 194.26 183 193.644 183L193.427 182.983V181.683L193.71 181.717C194.044 181.733 194.394 181.7 194.627 181.517C194.977 181.283 195.21 180.733 195.777 179.25L191.927 170H193.327L196.41 177.517L199.26 170.017ZM213.232 172L211.966 172.55C211.882 172.367 211.766 172.2 211.666 172.05C211.166 171.367 210.349 171.033 209.466 171.033C208.616 171.033 207.782 171.367 207.299 172.05C206.782 172.717 206.632 173.617 206.616 174.5C206.632 175.383 206.782 176.283 207.299 176.95C207.782 177.617 208.616 177.95 209.466 177.95C210.349 177.95 211.166 177.617 211.666 176.95C211.766 176.8 211.866 176.633 211.949 176.467L213.232 177.033C213.082 177.283 212.932 177.533 212.749 177.767C211.966 178.75 210.766 179.25 209.466 179.25C208.182 179.25 206.982 178.767 206.199 177.767C205.449 176.833 205.199 175.65 205.182 174.5C205.199 173.333 205.449 172.167 206.199 171.217C207.016 170.2 208.182 169.75 209.466 169.75C210.766 169.75 211.949 170.233 212.749 171.217C212.932 171.467 213.099 171.717 213.232 172ZM218.529 179.25C217.229 179.25 216.029 178.767 215.246 177.783C214.496 176.833 214.229 175.667 214.229 174.483C214.229 173.317 214.513 172.133 215.246 171.217C216.013 170.267 217.229 169.75 218.529 169.75C219.813 169.75 221.029 170.233 221.796 171.217C222.579 172.167 222.829 173.333 222.829 174.483C222.829 175.7 222.562 176.817 221.796 177.783C221.013 178.783 219.846 179.25 218.529 179.25ZM220.729 176.95C221.229 176.283 221.396 175.383 221.396 174.483C221.396 173.617 221.229 172.7 220.729 172.033C220.229 171.367 219.396 171.033 218.529 171.033C217.663 171.033 216.829 171.367 216.346 172.033C215.829 172.7 215.663 173.617 215.663 174.483C215.663 175.383 215.829 176.283 216.346 176.95C216.829 177.617 217.663 177.967 218.529 177.967C219.396 177.967 220.229 177.617 220.729 176.95ZM230.239 170H231.622L228.339 179H226.955L223.689 170H225.055L227.655 177.25L230.239 170ZM233.946 174.867C233.979 175.633 234.163 176.383 234.596 176.95C235.079 177.617 235.913 177.967 236.779 177.967C237.646 177.967 238.463 177.617 238.963 176.95C239.079 176.783 239.163 176.633 239.246 176.467L240.579 177.05C240.446 177.3 240.279 177.567 240.079 177.8C239.296 178.767 238.046 179.283 236.779 179.25C235.496 179.217 234.279 178.75 233.496 177.783C232.746 176.833 232.479 175.65 232.479 174.5C232.496 173.317 232.746 172.167 233.496 171.217C234.296 170.233 235.479 169.75 236.779 169.75C238.079 169.75 239.263 170.233 240.046 171.217C240.796 172.167 241.063 173.333 241.063 174.5C241.063 174.617 241.063 174.75 241.046 174.867H233.946ZM236.779 171.033C235.913 171.033 235.079 171.383 234.596 172.05C234.246 172.517 234.046 173.117 233.979 173.733H239.579C239.513 173.117 239.313 172.517 238.963 172.05C238.463 171.383 237.646 171.033 236.779 171.033ZM246.934 169.75C247.368 169.75 247.784 169.8 248.184 169.933V171.217C247.801 171.083 247.334 171 246.834 171.033C246.134 171.05 245.518 171.283 245.101 171.7C244.301 172.45 244.268 173.433 244.268 174.65V179H242.901V170H244.118V171.333C244.301 171.017 244.551 170.733 244.884 170.467C245.468 169.983 246.218 169.767 246.934 169.75ZM250.477 174.867C250.51 175.633 250.694 176.383 251.127 176.95C251.61 177.617 252.444 177.967 253.31 177.967C254.177 177.967 254.994 177.617 255.494 176.95C255.61 176.783 255.694 176.633 255.777 176.467L257.11 177.05C256.977 177.3 256.81 177.567 256.61 177.8C255.827 178.767 254.577 179.283 253.31 179.25C252.027 179.217 250.81 178.75 250.027 177.783C249.277 176.833 249.01 175.65 249.01 174.5C249.027 173.317 249.277 172.167 250.027 171.217C250.827 170.233 252.01 169.75 253.31 169.75C254.61 169.75 255.794 170.233 256.577 171.217C257.327 172.167 257.594 173.333 257.594 174.5C257.594 174.617 257.594 174.75 257.577 174.867H250.477ZM253.31 171.033C252.444 171.033 251.61 171.383 251.127 172.05C250.777 172.517 250.577 173.117 250.51 173.733H256.11C256.044 173.117 255.844 172.517 255.494 172.05C254.994 171.383 254.177 171.033 253.31 171.033ZM265.949 167H267.299V179H266.099V177.85C265.399 178.767 264.299 179.25 263.049 179.25C261.816 179.25 260.682 178.75 259.932 177.8C259.182 176.85 258.932 175.667 258.932 174.483C258.932 173.317 259.199 172.117 259.932 171.2C260.649 170.267 261.799 169.75 263.016 169.75C264.149 169.75 265.216 170.183 265.949 170.967V167ZM265.366 177.033C265.899 176.383 266.099 175.433 266.099 174.483C266.099 173.55 265.899 172.6 265.366 171.95C264.882 171.3 264.082 171 263.232 171C262.332 171 261.532 171.317 261.032 172.017C260.549 172.667 260.366 173.567 260.366 174.483C260.366 175.417 260.532 176.317 261.016 176.95C261.516 177.65 262.349 178 263.199 178C264.066 178 264.866 177.667 265.366 177.033ZM274.336 174.867C274.37 175.633 274.553 176.383 274.986 176.95C275.47 177.617 276.303 177.967 277.17 177.967C278.036 177.967 278.853 177.617 279.353 176.95C279.47 176.783 279.553 176.633 279.636 176.467L280.97 177.05C280.836 177.3 280.67 177.567 280.47 177.8C279.686 178.767 278.436 179.283 277.17 179.25C275.886 179.217 274.67 178.75 273.886 177.783C273.136 176.833 272.87 175.65 272.87 174.5C272.886 173.317 273.136 172.167 273.886 171.217C274.686 170.233 275.87 169.75 277.17 169.75C278.47 169.75 279.653 170.233 280.436 171.217C281.186 172.167 281.453 173.333 281.453 174.5C281.453 174.617 281.453 174.75 281.436 174.867H274.336ZM277.17 171.033C276.303 171.033 275.47 171.383 274.986 172.05C274.636 172.517 274.436 173.117 274.37 173.733H279.97C279.903 173.117 279.703 172.517 279.353 172.05C278.853 171.383 278.036 171.033 277.17 171.033ZM289.628 170.533C290.861 171.483 291.078 172.917 291.061 174.567V179H289.695V174.567C289.695 173.283 289.561 172.217 288.695 171.567C288.245 171.233 287.661 171.067 286.995 171.1C286.445 171.117 285.911 171.3 285.511 171.65C285.095 172.017 284.828 172.55 284.711 173.15C284.628 173.517 284.611 173.95 284.611 174.383V179H283.245V170H284.461V171.017C284.545 170.917 284.645 170.817 284.745 170.717C285.411 170.117 286.295 169.817 287.111 169.783C287.995 169.733 288.911 170 289.628 170.533ZM295.44 171.133V175.6C295.44 176.35 295.423 176.8 295.64 177.183C295.823 177.583 296.24 177.817 296.69 177.85C297.156 177.9 297.706 177.883 298.173 177.8V179C297.573 179.15 296.74 179.183 296.156 179.067C295.356 178.917 294.74 178.55 294.406 177.867C294.09 177.233 294.09 176.533 294.09 175.667V171.133H292.073V170H294.09V167.5H295.44V170H298.173V171.133H295.44ZM300.333 167H301.683V168.45H300.333V167ZM300.333 170H301.683V179H300.333V170ZM306.549 171.133V175.6C306.549 176.35 306.532 176.8 306.749 177.183C306.932 177.583 307.349 177.817 307.799 177.85C308.266 177.9 308.816 177.883 309.282 177.8V179C308.682 179.15 307.849 179.183 307.266 179.067C306.466 178.917 305.849 178.55 305.516 177.867C305.199 177.233 305.199 176.533 305.199 175.667V171.133H303.182V170H305.199V167.5H306.549V170H309.282V171.133H306.549ZM317.776 170.017H319.143L315.043 180.7C314.709 181.6 314.309 182.233 313.809 182.583C313.326 182.95 312.776 183 312.159 183L311.943 182.983V181.683L312.226 181.717C312.559 181.733 312.909 181.7 313.143 181.517C313.493 181.283 313.726 180.733 314.293 179.25L310.443 170H311.843L314.926 177.517L317.776 170.017ZM36.55 197.2C37.2667 198.117 37.5333 199.317 37.5333 200.483C37.5333 201.667 37.3 202.85 36.55 203.8C35.8 204.75 34.6667 205.25 33.4333 205.25C32.1833 205.25 31.1 204.783 30.3833 203.867V205H29.1667V193H30.5333V196.95C31.25 196.183 32.3333 195.75 33.45 195.75C34.6833 195.75 35.8167 196.267 36.55 197.2ZM35.45 202.95C35.9333 202.317 36.1 201.417 36.1 200.483C36.1 199.567 35.9167 198.667 35.45 198.017C34.95 197.317 34.1333 197 33.2333 197C32.3833 197 31.6 197.3 31.1 197.95C30.5833 198.6 30.3833 199.55 30.3833 200.483C30.3833 201.433 30.5833 202.383 31.1 203.033C31.6 203.667 32.4167 204 33.2667 204C34.1167 204 34.95 203.65 35.45 202.95ZM40.3365 200.867C40.3698 201.633 40.5531 202.383 40.9865 202.95C41.4698 203.617 42.3031 203.967 43.1698 203.967C44.0365 203.967 44.8531 203.617 45.3531 202.95C45.4698 202.783 45.5531 202.633 45.6365 202.467L46.9698 203.05C46.8365 203.3 46.6698 203.567 46.4698 203.8C45.6865 204.767 44.4365 205.283 43.1698 205.25C41.8865 205.217 40.6698 204.75 39.8865 203.783C39.1365 202.833 38.8698 201.65 38.8698 200.5C38.8865 199.317 39.1365 198.167 39.8865 197.217C40.6865 196.233 41.8698 195.75 43.1698 195.75C44.4698 195.75 45.6531 196.233 46.4365 197.217C47.1865 198.167 47.4531 199.333 47.4531 200.5C47.4531 200.617 47.4531 200.75 47.4365 200.867H40.3365ZM43.1698 197.033C42.3031 197.033 41.4698 197.383 40.9865 198.05C40.6365 198.517 40.4365 199.117 40.3698 199.733H45.9698C45.9031 199.117 45.7031 198.517 45.3531 198.05C44.8531 197.383 44.0365 197.033 43.1698 197.033ZM52.825 194C51.975 194.167 51.675 194.667 51.675 195.483V196H54.2083V197.133H51.675V205H50.3083V197.133H48.2917V196H50.3083V195.567C50.3083 194.833 50.4917 194.017 51.1417 193.433C51.975 192.733 53.075 192.683 54.2083 192.8V193.983C53.7417 193.917 53.2583 193.917 52.825 194ZM59.3417 205.25C58.0417 205.25 56.8417 204.767 56.0583 203.783C55.3083 202.833 55.0417 201.667 55.0417 200.483C55.0417 199.317 55.325 198.133 56.0583 197.217C56.825 196.267 58.0417 195.75 59.3417 195.75C60.625 195.75 61.8417 196.233 62.6083 197.217C63.3917 198.167 63.6417 199.333 63.6417 200.483C63.6417 201.7 63.375 202.817 62.6083 203.783C61.825 204.783 60.6583 205.25 59.3417 205.25ZM61.5417 202.95C62.0417 202.283 62.2083 201.383 62.2083 200.483C62.2083 199.617 62.0417 198.7 61.5417 198.033C61.0417 197.367 60.2083 197.033 59.3417 197.033C58.475 197.033 57.6417 197.367 57.1583 198.033C56.6417 198.7 56.475 199.617 56.475 200.483C56.475 201.383 56.6417 202.283 57.1583 202.95C57.6417 203.617 58.475 203.967 59.3417 203.967C60.2083 203.967 61.0417 203.617 61.5417 202.95ZM69.5125 195.75C69.9458 195.75 70.3625 195.8 70.7625 195.933V197.217C70.3792 197.083 69.9125 197 69.4125 197.033C68.7125 197.05 68.0958 197.283 67.6792 197.7C66.8792 198.45 66.8458 199.433 66.8458 200.65V205H65.4792V196H66.6958V197.333C66.8792 197.017 67.1292 196.733 67.4625 196.467C68.0458 195.983 68.7958 195.767 69.5125 195.75ZM73.0552 200.867C73.0885 201.633 73.2719 202.383 73.7052 202.95C74.1885 203.617 75.0219 203.967 75.8885 203.967C76.7552 203.967 77.5719 203.617 78.0719 202.95C78.1885 202.783 78.2719 202.633 78.3552 202.467L79.6885 203.05C79.5552 203.3 79.3885 203.567 79.1885 203.8C78.4052 204.767 77.1552 205.283 75.8885 205.25C74.6052 205.217 73.3885 204.75 72.6052 203.783C71.8552 202.833 71.5885 201.65 71.5885 200.5C71.6052 199.317 71.8552 198.167 72.6052 197.217C73.4052 196.233 74.5885 195.75 75.8885 195.75C77.1885 195.75 78.3719 196.233 79.1552 197.217C79.9052 198.167 80.1719 199.333 80.1719 200.5C80.1719 200.617 80.1719 200.75 80.1552 200.867H73.0552ZM75.8885 197.033C75.0219 197.033 74.1885 197.383 73.7052 198.05C73.3552 198.517 73.1552 199.117 73.0885 199.733H78.6885C78.6219 199.117 78.4219 198.517 78.0719 198.05C77.5719 197.383 76.7552 197.033 75.8885 197.033ZM92.3958 196H93.5958V204.967C93.5958 206.667 93.2292 207.633 92.1958 208.4C91.3292 209.033 90.3292 209.25 89.4125 209.25C88.4125 209.25 87.4125 208.9 86.7625 208.217C86.4125 207.983 86.0625 207.65 85.8458 207.267L87.0958 206.667C87.1958 206.833 87.3125 206.983 87.4458 207.117C87.9292 207.667 88.6958 207.933 89.4125 207.933C90.1625 207.933 90.9292 207.733 91.4625 207.3C92.0958 206.75 92.2458 206.167 92.2292 204.95V204.05C91.5292 204.85 90.4958 205.25 89.3458 205.25C88.1125 205.25 86.9792 204.75 86.2292 203.8C85.4792 202.85 85.2292 201.667 85.2292 200.483C85.2292 199.317 85.4958 198.117 86.2292 197.2C86.9458 196.267 88.0958 195.75 89.3125 195.75C90.5125 195.75 91.6625 196.25 92.3958 197.133V196ZM91.6625 203.033C92.1958 202.383 92.3958 201.433 92.3958 200.483C92.3958 199.55 92.1958 198.6 91.6625 197.95C91.1792 197.3 90.3792 197 89.5292 197C88.6292 197 87.8292 197.317 87.3292 198.017C86.8458 198.667 86.6625 199.567 86.6625 200.483C86.6625 201.417 86.8292 202.317 87.3125 202.95C87.8125 203.65 88.6458 204 89.4958 204C90.3625 204 91.1625 203.667 91.6625 203.033ZM99.7323 205.25C98.4323 205.25 97.2323 204.767 96.449 203.783C95.699 202.833 95.4323 201.667 95.4323 200.483C95.4323 199.317 95.7156 198.133 96.449 197.217C97.2156 196.267 98.4323 195.75 99.7323 195.75C101.016 195.75 102.232 196.233 102.999 197.217C103.782 198.167 104.032 199.333 104.032 200.483C104.032 201.7 103.766 202.817 102.999 203.783C102.216 204.783 101.049 205.25 99.7323 205.25ZM101.932 202.95C102.432 202.283 102.599 201.383 102.599 200.483C102.599 199.617 102.432 198.7 101.932 198.033C101.432 197.367 100.599 197.033 99.7323 197.033C98.8656 197.033 98.0323 197.367 97.549 198.033C97.0323 198.7 96.8656 199.617 96.8656 200.483C96.8656 201.383 97.0323 202.283 97.549 202.95C98.0323 203.617 98.8656 203.967 99.7323 203.967C100.599 203.967 101.432 203.617 101.932 202.95ZM105.703 199.733H110.703V200.867H105.703V199.733ZM112.87 205V192.75H114.22V205H112.87ZM116.724 193H118.074V194.45H116.724V193ZM116.724 196H118.074V205H116.724V196ZM126.223 196H127.606L124.323 205H122.94L119.673 196H121.04L123.64 203.25L126.223 196ZM129.93 200.867C129.964 201.633 130.147 202.383 130.58 202.95C131.064 203.617 131.897 203.967 132.764 203.967C133.63 203.967 134.447 203.617 134.947 202.95C135.064 202.783 135.147 202.633 135.23 202.467L136.564 203.05C136.43 203.3 136.264 203.567 136.064 203.8C135.28 204.767 134.03 205.283 132.764 205.25C131.48 205.217 130.264 204.75 129.48 203.783C128.73 202.833 128.464 201.65 128.464 200.5C128.48 199.317 128.73 198.167 129.48 197.217C130.28 196.233 131.464 195.75 132.764 195.75C134.064 195.75 135.247 196.233 136.03 197.217C136.78 198.167 137.047 199.333 137.047 200.5C137.047 200.617 137.047 200.75 137.03 200.867H129.93ZM132.764 197.033C131.897 197.033 131.064 197.383 130.58 198.05C130.23 198.517 130.03 199.117 129.964 199.733H135.564C135.497 199.117 135.297 198.517 134.947 198.05C134.447 197.383 133.63 197.033 132.764 197.033ZM138.807 203.467H140.341V205H138.807V203.467Z" fill="white"/>
<path d="M41.975 110.45C42.675 111.375 43.025 112.5 43.025 113.675C43 114.825 42.625 115.95 41.925 116.875C41.2 117.775 40.225 118.4 39.175 118.725C38.5 118.925 37.825 119 37.15 119H30V101H36.775C37.375 101 38.075 101.05 38.6 101.225C39.6 101.5 40.5 102.1 41.1 102.95C41.775 103.75 42.125 104.825 42.175 105.9C42.225 106.95 41.825 108.025 41.15 108.85C41.05 109 40.925 109.15 40.825 109.275C41.25 109.6 41.65 110 41.975 110.45ZM37.075 103.625H32.85V108.25H37.325C37.825 108.15 38.475 107.825 38.825 107.325C39.15 106.925 39.325 106.425 39.3 105.9C39.3 105.325 39.075 104.8 38.7 104.4C38.3 103.925 37.675 103.625 37.075 103.625ZM39.35 115.55C39.875 115.075 40.15 114.4 40.175 113.675C40.175 113.025 39.925 112.325 39.5 111.825C38.95 111.175 38.2 110.9 37.5 110.9H32.85V116.325H37.125C38.05 116.325 38.75 116.2 39.35 115.55ZM56.7859 119L55.7859 115.925H47.9609L46.9859 119H44.0859L49.8609 101H53.9359L59.7109 119H56.7859ZM48.8109 113.275H54.9359L51.8609 103.775L48.8109 113.275ZM73.4734 119L72.4734 115.925H64.6484L63.6734 119H60.7734L66.5484 101H70.6234L76.3984 119H73.4734ZM65.4984 113.275H71.6234L68.5484 103.775L65.4984 113.275ZM85.8156 109.225L83.2406 108C83.3406 107.875 83.4406 107.675 83.5656 107.525C84.7656 105.875 86.5906 105.15 88.7156 105.15C91.1906 105.15 93.2156 106 94.2656 107.95C94.7156 108.8 94.8906 109.725 94.8906 110.525V119H92.4156V116.525C92.0656 117.375 91.1906 118.15 90.4406 118.55C89.4406 119.125 88.2656 119.375 87.1656 119.35C85.8156 119.325 84.4406 118.65 83.7156 117.7C83.0906 116.8 82.7656 116.1 82.7656 115.025C82.7656 113.6 83.5906 112.25 84.8656 111.5C86.3406 110.7 87.5906 110.625 89.5906 110.325L92.0156 109.975C91.8906 109.325 91.5156 108.75 90.9656 108.375C90.3406 107.925 89.5156 107.75 88.6656 107.775C87.6406 107.775 86.7156 108.075 86.1156 108.825C86.0156 108.95 85.8906 109.1 85.8156 109.225ZM92.0906 112.275C91.5906 112.35 90.7406 112.5 89.2656 112.775C87.4906 113.075 85.6156 113.4 85.5656 114.85C85.5406 115.85 86.4156 116.75 87.6656 116.775C89.2406 116.8 91.1906 115.975 91.7656 114.275C92.0906 113.5 92.0906 112.825 92.0906 112.275ZM106.541 105.5H109.366L104.441 119H101.616L96.7156 105.5H99.5406L103.041 115.5L106.541 105.5ZM113.706 109.225L111.131 108C111.231 107.875 111.331 107.675 111.456 107.525C112.656 105.875 114.481 105.15 116.606 105.15C119.081 105.15 121.106 106 122.156 107.95C122.606 108.8 122.781 109.725 122.781 110.525V119H120.306V116.525C119.956 117.375 119.081 118.15 118.331 118.55C117.331 119.125 116.156 119.375 115.056 119.35C113.706 119.325 112.331 118.65 111.606 117.7C110.981 116.8 110.656 116.1 110.656 115.025C110.656 113.6 111.481 112.25 112.756 111.5C114.231 110.7 115.481 110.625 117.481 110.325L119.906 109.975C119.781 109.325 119.406 108.75 118.856 108.375C118.231 107.925 117.406 107.75 116.556 107.775C115.531 107.775 114.606 108.075 114.006 108.825C113.906 108.95 113.781 109.1 113.706 109.225ZM119.981 112.275C119.481 112.35 118.631 112.5 117.156 112.775C115.381 113.075 113.506 113.4 113.456 114.85C113.431 115.85 114.306 116.75 115.556 116.775C117.131 116.8 119.081 115.975 119.656 114.275C119.981 113.5 119.981 112.825 119.981 112.275ZM126.281 100.775H129.106V103.425H126.281V100.775ZM126.281 105.5H129.106V119H126.281V105.5ZM132.852 119V100.625H135.677V119H132.852ZM141.48 109.225L138.905 108C139.005 107.875 139.105 107.675 139.23 107.525C140.43 105.875 142.255 105.15 144.38 105.15C146.855 105.15 148.88 106 149.93 107.95C150.38 108.8 150.555 109.725 150.555 110.525V119H148.08V116.525C147.73 117.375 146.855 118.15 146.105 118.55C145.105 119.125 143.93 119.375 142.83 119.35C141.48 119.325 140.105 118.65 139.38 117.7C138.755 116.8 138.43 116.1 138.43 115.025C138.43 113.6 139.255 112.25 140.53 111.5C142.005 110.7 143.255 110.625 145.255 110.325L147.68 109.975C147.555 109.325 147.18 108.75 146.63 108.375C146.005 107.925 145.18 107.75 144.33 107.775C143.305 107.775 142.38 108.075 141.78 108.825C141.68 108.95 141.555 109.1 141.48 109.225ZM147.755 112.275C147.255 112.35 146.405 112.5 144.93 112.775C143.155 113.075 141.28 113.4 141.23 114.85C141.205 115.85 142.08 116.75 143.33 116.775C144.905 116.8 146.855 115.975 147.43 114.275C147.755 113.5 147.755 112.825 147.755 112.275ZM165.155 107.275C166.205 108.625 166.68 110.425 166.68 112.25C166.68 114.05 166.28 115.8 165.155 117.2C164.03 118.6 162.305 119.375 160.48 119.375C158.83 119.375 157.38 118.875 156.305 117.85V119H153.805V101H156.63V106.375C157.655 105.575 159.005 105.125 160.405 105.125C162.255 105.125 164.03 105.875 165.155 107.275ZM162.905 115.475C163.48 114.675 163.705 113.5 163.705 112.25C163.705 111 163.455 109.8 162.88 109C162.23 108.05 161.205 107.65 159.98 107.65C158.905 107.65 157.93 108.025 157.305 108.8C156.605 109.65 156.305 110.925 156.305 112.25C156.305 113.55 156.605 114.85 157.305 115.675C157.98 116.45 158.955 116.85 160.08 116.85C161.155 116.85 162.255 116.425 162.905 115.475ZM169.438 119V100.625H172.263V119H169.438ZM178.041 113.025C178.141 113.9 178.366 114.775 178.866 115.425C179.516 116.275 180.566 116.725 181.691 116.725C182.816 116.725 183.841 116.275 184.491 115.425C184.641 115.225 184.716 115.05 184.816 114.875L187.616 116.075C187.391 116.475 187.141 116.85 186.841 117.2C185.566 118.675 183.641 119.45 181.691 119.375C179.716 119.3 177.841 118.625 176.616 117.15C175.466 115.725 174.991 114 175.016 112.25C175.066 110.425 175.491 108.725 176.616 107.35C177.841 105.875 179.716 105.125 181.691 105.125C183.666 105.125 185.516 105.85 186.741 107.35C187.866 108.725 188.341 110.475 188.341 112.25C188.341 112.5 188.316 112.775 188.291 113.025H178.041ZM181.691 107.775C180.566 107.75 179.516 108.2 178.866 109.075C178.491 109.55 178.266 110.15 178.141 110.775H185.216C185.091 110.15 184.866 109.55 184.491 109.075C183.841 108.2 182.816 107.75 181.691 107.775ZM202.269 119.375C200.294 119.375 198.419 118.625 197.194 117.15C196.044 115.725 195.594 114.05 195.594 112.25C195.594 110.4 196.119 108.675 197.194 107.35C198.394 105.9 200.294 105.125 202.269 105.125C204.219 105.125 206.119 105.85 207.319 107.35C208.494 108.775 208.944 110.45 208.944 112.25C208.944 114.125 208.469 115.7 207.319 117.15C206.094 118.65 204.269 119.375 202.269 119.375ZM205.094 115.425C205.744 114.575 205.969 113.4 205.969 112.25C205.969 111.1 205.744 109.9 205.094 109.05C204.444 108.2 203.394 107.775 202.269 107.775C201.119 107.775 200.069 108.2 199.444 109.05C198.794 109.9 198.569 111.1 198.569 112.25C198.569 113.4 198.794 114.575 199.444 115.425C200.069 116.275 201.119 116.725 202.269 116.725C203.394 116.725 204.444 116.275 205.094 115.425ZM221.995 106.475C223.695 107.95 223.97 109.9 223.945 112.3V119H221.095V112.3C221.095 110.775 220.895 109.425 219.945 108.6C219.395 108.1 218.595 107.85 217.645 107.875C216.92 107.9 216.295 108.125 215.77 108.525C215.22 108.975 214.845 109.675 214.695 110.475C214.545 111.175 214.52 112.15 214.52 113.1V119H211.695V105.5H214.195V106.65L214.27 106.575C215.32 105.65 216.72 105.2 217.995 105.15C219.395 105.075 220.92 105.575 221.995 106.475ZM238.702 105.15C239.402 105.1 240.102 105.225 240.802 105.475V108.1C240.152 107.85 239.327 107.725 238.452 107.775C237.427 107.825 236.627 108.175 236.102 108.725C235.252 109.575 235.052 110.725 235.052 112.1V119H232.227V105.5H234.727V107.425C235.052 106.875 235.477 106.4 236.052 106C236.827 105.425 237.777 105.175 238.702 105.15ZM245.072 113.025C245.172 113.9 245.397 114.775 245.897 115.425C246.547 116.275 247.597 116.725 248.722 116.725C249.847 116.725 250.872 116.275 251.522 115.425C251.672 115.225 251.747 115.05 251.847 114.875L254.647 116.075C254.422 116.475 254.172 116.85 253.872 117.2C252.597 118.675 250.672 119.45 248.722 119.375C246.747 119.3 244.872 118.625 243.647 117.15C242.497 115.725 242.022 114 242.047 112.25C242.097 110.425 242.522 108.725 243.647 107.35C244.872 105.875 246.747 105.125 248.722 105.125C250.697 105.125 252.547 105.85 253.772 107.35C254.897 108.725 255.372 110.475 255.372 112.25C255.372 112.5 255.347 112.775 255.322 113.025H245.072ZM248.722 107.775C247.597 107.75 246.547 108.2 245.897 109.075C245.522 109.55 245.297 110.15 245.172 110.775H252.247C252.122 110.15 251.897 109.55 251.522 109.075C250.872 108.2 249.847 107.75 248.722 107.775ZM267.775 105.5H270.25V125H267.425V118.15C266.375 118.975 265.05 119.375 263.575 119.375C261.775 119.375 260.025 118.6 258.925 117.2C257.775 115.8 257.375 114.05 257.375 112.25C257.375 110.425 257.85 108.625 258.925 107.275C260.05 105.875 261.8 105.125 263.65 105.125C265.225 105.125 266.7 105.7 267.775 106.675V105.5ZM264 116.85C265.1 116.85 266.1 116.45 266.75 115.675C267.475 114.85 267.775 113.55 267.775 112.25C267.775 110.925 267.475 109.65 266.75 108.8C266.125 108.025 265.15 107.65 264.075 107.65C262.875 107.65 261.85 108.05 261.2 109C260.625 109.8 260.35 111 260.35 112.25C260.35 113.5 260.575 114.675 261.15 115.475C261.8 116.425 262.9 116.85 264 116.85ZM282.706 105.5H285.531V119H283.056V117.825L282.981 117.9C281.931 118.85 280.531 119.3 279.256 119.35C277.831 119.425 276.331 118.925 275.256 118C273.531 116.55 273.281 114.6 273.281 112.2V105.5H276.131V112.2C276.131 113.725 276.331 115.075 277.281 115.875C277.856 116.4 278.656 116.625 279.606 116.625C280.306 116.6 280.956 116.375 281.456 115.95C282.031 115.525 282.406 114.825 282.556 114.025C282.706 113.325 282.706 112.375 282.706 111.4V111.375V105.5ZM291.314 113.025C291.414 113.9 291.639 114.775 292.139 115.425C292.789 116.275 293.839 116.725 294.964 116.725C296.089 116.725 297.114 116.275 297.764 115.425C297.914 115.225 297.989 115.05 298.089 114.875L300.889 116.075C300.664 116.475 300.414 116.85 300.114 117.2C298.839 118.675 296.914 119.45 294.964 119.375C292.989 119.3 291.114 118.625 289.889 117.15C288.739 115.725 288.264 114 288.289 112.25C288.339 110.425 288.764 108.725 289.889 107.35C291.114 105.875 292.989 105.125 294.964 105.125C296.939 105.125 298.789 105.85 300.014 107.35C301.139 108.725 301.614 110.475 301.614 112.25C301.614 112.5 301.589 112.775 301.564 113.025H291.314ZM294.964 107.775C293.839 107.75 292.789 108.2 292.139 109.075C291.764 109.55 291.539 110.15 291.414 110.775H298.489C298.364 110.15 298.139 109.55 297.764 109.075C297.114 108.2 296.089 107.75 294.964 107.775ZM314.597 109.05L311.847 109.725C311.647 109.1 311.122 108.475 310.522 108.175C310.047 107.925 309.472 107.775 308.847 107.775C308.197 107.775 307.597 107.9 307.147 108.125C306.672 108.4 306.472 108.75 306.472 109.075C306.472 109.325 306.547 109.525 306.672 109.675C306.947 109.975 307.447 110.2 308.222 110.425C308.897 110.625 309.722 110.825 310.547 111.05C311.622 111.375 312.347 111.575 313.197 112.275C314.247 113.125 314.797 114.2 314.697 115.5C314.597 116.725 313.897 117.8 312.847 118.475C311.772 119.175 310.447 119.375 309.097 119.375C307.272 119.375 305.672 118.875 304.472 117.6C303.797 116.825 303.147 115.425 303.047 114.625L305.747 113.975C305.772 114.525 306.047 115.325 306.497 115.775C307.172 116.525 308.122 116.7 309.072 116.7C309.822 116.7 310.822 116.55 311.297 116.175C311.647 115.9 311.772 115.625 311.847 115.25C311.847 114.9 311.747 114.6 311.472 114.325C311.097 113.975 310.522 113.775 309.822 113.575C309.122 113.375 308.397 113.2 307.572 112.975C306.447 112.675 305.647 112.375 304.922 111.775C304.022 111.1 303.597 110.05 303.597 109.125C303.597 107.55 304.622 106.25 305.972 105.65C306.997 105.2 307.972 105.1 308.897 105.125C309.822 105.125 310.847 105.325 311.747 105.8C313.072 106.45 314.122 107.675 314.597 109.05ZM325.528 107.725H321.528V113.4C321.528 114.475 321.528 115.225 321.853 115.725C322.153 116.25 322.728 116.575 323.303 116.625C323.978 116.7 324.803 116.675 325.528 116.55V119C324.528 119.275 322.928 119.325 321.978 119.1C320.753 118.775 319.828 118.2 319.303 117.2C318.778 116.175 318.728 114.975 318.728 113.575V107.725H315.828V105.5H318.728V101.75H321.528V105.5H325.528V107.725Z" fill="white"/>
<rect x="28" y="35" width="52" height="52" rx="5" fill="#14131F"/>
<path d="M52.9611 71.5332C52.6532 71.4492 52.273 71.2183 52.1214 71.1133C51.5335 71.3932 51.5965 72.6295 51.7015 73.2127C51.7948 73.7959 52.0654 75.2141 52.4013 76.2218C52.7372 77.2295 53.381 77.3882 53.6609 77.3415C53.346 77.2715 53.0311 76.8167 52.8912 76.5018C52.7792 76.2498 52.6112 74.7173 52.5413 73.9825C52.5179 73.5159 52.4713 72.4989 52.4713 72.163C52.4713 71.8271 52.7979 71.6031 52.9611 71.5332Z" fill="#515155"/>
<path d="M51.2786 67.0547C51.6705 67.2226 52.2816 67.4046 52.5382 67.4746C52.3866 67.5679 52.0484 67.9294 51.9084 68.6292C51.7685 69.329 52.3866 69.8306 52.7132 69.9939C52.9348 70.1222 53.6649 70.3997 54.8126 70.4837C55.9603 70.5677 56.4571 71.2885 56.5621 71.6384C56.6741 72.2262 56.5621 73.1196 56.4921 73.4929L56.1072 75.4173C56.0256 75.7206 55.7993 76.446 55.5474 76.9219C55.2955 77.3978 54.7659 77.4001 54.5327 77.3418C55.1485 77.1458 55.3958 76.2804 55.4424 75.8722C55.4774 75.6039 55.5824 74.7525 55.7223 73.4929C55.8623 72.2332 55.7107 71.825 55.6174 71.7783C55.4774 71.6151 54.9735 71.2885 54.0778 71.2885C53.1821 71.2885 52.3749 70.9852 52.0834 70.8336C51.6285 70.577 50.7188 69.8119 50.7188 68.8042C50.7188 67.7965 51.092 67.218 51.2786 67.0547Z" fill="#515155"/>
<path d="M50.3728 62.5039C50.8487 62.8118 51.7375 63.0054 52.1223 63.0637V63.2037C51.9611 63.2471 51.8256 63.3199 51.712 63.4111C51.0317 63.9573 51.0422 65.2351 51.8424 65.583C52.3672 65.793 52.7521 65.9679 54.2917 65.9679C55.5233 65.9679 56.3211 66.4111 56.566 66.6327C56.9276 66.901 57.6507 67.6964 57.6507 68.7321C57.6507 69.7678 56.741 70.5633 56.2861 70.8315C55.8102 70.4397 55.2014 70.2717 54.9565 70.2367C55.5396 70.0851 56.657 69.5299 56.461 68.5222C56.2651 67.5145 55.3297 67.2159 54.8865 67.1926H52.4022C51.8962 67.1337 51.4425 66.9533 51.0667 66.737C50.2812 66.2849 49.7023 65.4742 49.673 64.5683C49.645 63.7006 50.1279 62.8305 50.3728 62.5039Z" fill="#515155"/>
<path d="M49.4625 57.1855C49.9663 57.5494 51.1653 57.8037 51.7018 57.8853C51.142 58.037 50.0433 58.5852 50.1273 59.5649C50.2113 60.5446 51.7019 61.0461 52.4367 61.1744L55.2359 61.3494C56.099 61.3727 57.9721 61.8672 58.5599 63.6587C59.1478 65.4502 57.9884 66.3879 57.3353 66.6329C56.8594 66.185 56.1806 65.9097 55.9007 65.8281C57.1043 65.6042 57.2886 64.8017 57.2303 64.4285C57.1183 63.3088 55.9473 62.9356 55.3758 62.8889C55.1659 62.8889 54.3681 62.8749 52.8566 62.8189C51.345 62.763 50.0107 62.0725 49.5325 61.7343C49.1942 61.501 48.4967 60.7545 48.4128 59.6349C48.3288 58.5152 49.0776 57.5354 49.4625 57.1855Z" fill="#515155"/>
<path d="M54.4264 71.6719H53.7965L53.8665 78.1101C53.8199 78.1917 53.7266 78.432 53.7266 78.7399C53.7266 79.0478 53.9132 79.4747 54.0065 79.6496C54.0415 79.7079 54.1115 79.8596 54.1115 79.9995C54.1115 79.8596 54.1814 79.7079 54.2164 79.6496C54.3097 79.498 54.4963 79.1038 54.4963 78.7399C54.4963 78.376 54.403 78.1684 54.3564 78.1101L54.4264 71.6719Z" fill="#515155"/>
<path d="M54.4967 67.4746H53.7266L53.7966 70.0649H54.4266L54.4967 67.4746Z" fill="#515155"/>
<path d="M54.5664 63.1348H53.6562L53.7263 65.6551H54.4963L54.5664 63.1348Z" fill="#515155"/>
<path d="M54.6975 57.8867H53.5078L53.5778 60.8959H54.6275L54.6975 57.8867Z" fill="#515155"/>
<path d="M54.7749 55.3674H53.4453V52.1484L53.6553 51.3086H54.565L54.7749 52.1484V55.3674Z" fill="#515155"/>
<path d="M59.3276 53.8265C59.1877 54.9462 57.2632 55.4827 56.3185 55.611C57.1862 55.779 58.4762 56.4507 59.0128 56.7656C60.3285 56.2058 60.9606 55.2027 61.1122 54.7712C61.5041 53.9314 61.3922 52.835 61.2872 52.3918C61.1822 52.0069 60.7483 51.1042 59.8526 50.5724C58.7329 49.9075 57.4733 49.7676 56.5985 49.7676C55.7238 49.7676 54.7439 50.4324 54.674 50.9223C54.604 51.4121 56.3185 51.972 56.7734 51.6921C57.2282 51.4122 58.103 51.2372 58.3129 51.3772C58.4809 51.4891 58.6628 51.6571 58.7328 51.7271C58.9894 51.9603 59.4676 52.7068 59.3276 53.8265Z" fill="#515155"/>
<ellipse cx="55.9327" cy="50.3646" rx="0.245157" ry="0.175112" fill="white"/>
<path d="M51.702 51.7289C52.7657 51.8688 53.4515 51.2973 53.6615 50.9941C53.6263 50.5042 52.8919 50.0143 52.0871 49.8044C51.4433 49.6364 50.6059 49.8277 50.2677 49.9444C48.7561 50.0843 47.7484 51.0757 47.4335 51.5539C47.2003 51.9155 46.7967 52.9535 47.0487 54.2131C47.3006 55.4728 48.5532 56.4408 49.1481 56.7674C49.9038 57.2713 51.6557 57.4672 52.4371 57.5372C52.9503 57.5605 54.1936 57.6142 55.0614 57.6422C55.9291 57.6702 56.6593 57.8871 56.9159 57.9921C57.1141 58.0854 57.5947 58.37 57.9306 58.7619C58.2665 59.1537 58.2338 59.7183 58.1755 59.9515C57.8956 60.4274 56.7292 60.9429 56.1811 61.1412C56.7969 61.2252 57.7673 61.8293 58.1755 62.1209C58.7237 61.8993 59.834 61.0922 59.89 59.6366C59.96 57.8171 58.4904 56.7324 57.4407 56.3126C56.391 55.8927 54.6765 55.8577 52.4371 55.6827C50.6456 55.5428 49.5679 54.7847 49.2529 54.4231C48.5531 52.9675 49.416 51.7872 49.9525 51.379C50.2324 51.344 50.8483 51.309 51.0722 51.4489C51.2961 51.5889 51.5854 51.6939 51.702 51.7289Z" fill="#515155"/>
<ellipse cx="52.292" cy="50.3646" rx="0.245157" ry="0.175112" fill="white"/>
<path d="M54.4637 49.4495L55.0926 50.0485C55.1742 49.9085 55.5054 49.5936 56.1773 49.4537C56.8491 49.3137 57.8568 48.7189 58.2767 48.439C59.2097 47.9491 61.1948 46.9204 61.6707 46.7244C62.2655 46.4795 63.0703 46.6195 63.5951 46.6545C64.12 46.6895 65.6946 46.5145 65.7646 45.9197C65.8206 45.4438 63.6418 44.4617 62.5455 44.0302C61.9623 43.7386 60.5231 43.1764 59.4314 43.2604C58.3397 43.3444 57.7868 44.0652 57.6469 44.4151L57.5769 45.8847C57.4929 46.8364 56.6088 47.7042 56.1773 48.0191L54.5372 48.9022C54.4267 48.9617 54.3578 49.077 54.3578 49.2025C54.3578 49.2959 54.3961 49.3851 54.4637 49.4495Z" fill="#515155"/>
<path d="M62.8558 49.3151C64.9272 50.3788 67.0546 50.6681 67.8594 50.6797C67.2995 51.1346 65.627 51.8694 63.4156 51.1696C61.2043 50.4698 59.1585 49.3151 58.4121 48.8253C58.8879 48.3214 59.8933 47.9388 60.3365 47.8105C60.3132 47.8689 60.7844 48.2514 62.8558 49.3151Z" fill="#515155"/>
<path d="M66.2649 48.4045C68.7003 49.4122 71.5718 49.6408 72.7031 49.6292C72.0733 50.294 69.484 50.8538 66.2649 50.084C63.6897 49.4682 61.553 48.2179 60.8065 47.6697C61.3383 46.8859 62.3577 46.8766 62.8009 46.9699C62.9409 47.0282 63.8296 47.3968 66.2649 48.4045Z" fill="#515155"/>
<path d="M69.824 46.8298C72.2594 47.3896 75.2009 47.7628 76.3672 47.8795C76.0989 48.276 75.4924 49.209 73.1131 49.209C71.1505 49.209 68.6111 48.7192 67.5847 48.4043L63.3859 46.9697C63.9177 47.0257 64.4939 46.993 64.7155 46.9697C65.8352 46.7737 66.1617 46.1883 66.1851 45.92C66.381 45.836 67.0832 46.0716 67.4097 46.1999L69.824 46.8298Z" fill="#515155"/>
<path d="M53.8957 49.4495L53.2668 50.0485C53.1852 49.9085 52.8539 49.5936 52.1821 49.4537C51.5103 49.3137 50.5026 48.7189 50.0827 48.439C49.1497 47.9491 47.1645 46.9204 46.6887 46.7244C46.0939 46.4795 45.2891 46.6195 44.7642 46.6545C44.2394 46.6895 42.6648 46.5145 42.5948 45.9197C42.5388 45.4438 44.7175 44.4617 45.8139 44.0302C46.3971 43.7386 47.8363 43.1764 48.928 43.2604C50.0197 43.3444 50.5725 44.0652 50.7125 44.4151L50.7825 45.8847C50.8665 46.8364 51.7505 47.7042 52.1821 48.0191L53.8222 48.9022C53.9327 48.9617 54.0016 49.077 54.0016 49.2025C54.0016 49.2959 53.9633 49.3851 53.8957 49.4495Z" fill="#515155"/>
<path d="M45.5114 49.3151C43.44 50.3788 41.3126 50.6681 40.5078 50.6797C41.0677 51.1346 42.7402 51.8694 44.9516 51.1696C47.1629 50.4698 49.2087 49.3151 49.9551 48.8253C49.4793 48.3214 48.4739 47.9388 48.0307 47.8105C48.054 47.8689 47.5828 48.2514 45.5114 49.3151Z" fill="#515155"/>
<path d="M42.1022 48.4045C39.6669 49.4122 36.7954 49.6408 35.6641 49.6292C36.2939 50.294 38.8832 50.8538 42.1022 50.084C44.6775 49.4682 46.8142 48.2179 47.5607 47.6697C47.0288 46.8859 46.0095 46.8766 45.5663 46.9699C45.4263 47.0282 44.5375 47.3968 42.1022 48.4045Z" fill="#515155"/>
<path d="M38.5431 46.8298C36.1078 47.3896 33.1663 47.7628 32 47.8795C32.2683 48.276 32.8748 49.209 35.2541 49.209C37.2167 49.209 39.7561 48.7192 40.7825 48.4043L44.9813 46.9697C44.4495 47.0257 43.8733 46.993 43.6517 46.9697C42.532 46.7737 42.2054 46.1883 42.1821 45.92C41.9862 45.836 41.284 46.0716 40.9575 46.1999L38.5431 46.8298Z" fill="#515155"/>
<path d="M54.572 48.5092H53.6619L53.7319 46.689H53.4519C53.2973 46.689 53.1719 46.5636 53.1719 46.4089C53.1719 46.2543 53.2973 46.1289 53.4519 46.1289H54.7821C54.9367 46.1289 55.0621 46.2543 55.0621 46.4089C55.0621 46.5636 54.9367 46.689 54.7821 46.689H54.502L54.572 48.5092Z" fill="#515155"/>
<circle cx="54.1198" cy="43.9245" r="1.92445" fill="#515155"/>
</svg>
