<svg width="340" height="190" viewBox="0 0 390 240" fill="none" xmlns="http://www.w3.org/2000/svg">
<rect x="0.5" y="0.5" width="389" height="239" rx="14.5" fill="#0E0D18" stroke="#43424B"/>
<path d="M36.7833 142.35H30.6833V146.317H35.7833V147.683H30.6833V151.65H36.7833V153H29.3333V141H36.7833V142.35ZM44.5979 144H45.9813L42.6979 153H41.3146L38.0479 144H39.4146L42.0146 151.25L44.5979 144ZM48.3052 148.867C48.3385 149.633 48.5219 150.383 48.9552 150.95C49.4385 151.617 50.2719 151.967 51.1385 151.967C52.0052 151.967 52.8219 151.617 53.3219 150.95C53.4385 150.783 53.5219 150.633 53.6052 150.467L54.9385 151.05C54.8052 151.3 54.6385 151.567 54.4385 151.8C53.6552 152.767 52.4052 153.283 51.1385 153.25C49.8552 153.217 48.6385 152.75 47.8552 151.783C47.1052 150.833 46.8385 149.65 46.8385 148.5C46.8552 147.317 47.1052 146.167 47.8552 145.217C48.6552 144.233 49.8385 143.75 51.1385 143.75C52.4385 143.75 53.6219 144.233 54.4052 145.217C55.1552 146.167 55.4219 147.333 55.4219 148.5C55.4219 148.617 55.4219 148.75 55.4052 148.867H48.3052ZM51.1385 145.033C50.2719 145.033 49.4385 145.383 48.9552 146.05C48.6052 146.517 48.4052 147.117 48.3385 147.733H53.9385C53.8719 147.117 53.6719 146.517 53.3219 146.05C52.8219 145.383 52.0052 145.033 51.1385 145.033ZM61.2938 143.75C61.7271 143.75 62.1438 143.8 62.5438 143.933V145.217C62.1604 145.083 61.6938 145 61.1938 145.033C60.4938 145.05 59.8771 145.283 59.4604 145.7C58.6604 146.45 58.6271 147.433 58.6271 148.65V153H57.2604V144H58.4771V145.333C58.6604 145.017 58.9104 144.733 59.2438 144.467C59.8271 143.983 60.5771 143.767 61.2938 143.75ZM70.6198 144.017H71.9865L67.8865 154.7C67.5531 155.6 67.1531 156.233 66.6531 156.583C66.1698 156.95 65.6198 157 65.0031 157L64.7865 156.983V155.683L65.0698 155.717C65.4031 155.733 65.7531 155.7 65.9865 155.517C66.3365 155.283 66.5698 154.733 67.1365 153.25L63.2865 144H64.6865L67.7698 151.517L70.6198 144.017ZM84.5917 146L83.325 146.55C83.2417 146.367 83.125 146.2 83.025 146.05C82.525 145.367 81.7083 145.033 80.825 145.033C79.975 145.033 79.1417 145.367 78.6583 146.05C78.1417 146.717 77.9917 147.617 77.975 148.5C77.9917 149.383 78.1417 150.283 78.6583 150.95C79.1417 151.617 79.975 151.95 80.825 151.95C81.7083 151.95 82.525 151.617 83.025 150.95C83.125 150.8 83.225 150.633 83.3083 150.467L84.5917 151.033C84.4417 151.283 84.2917 151.533 84.1083 151.767C83.325 152.75 82.125 153.25 80.825 153.25C79.5417 153.25 78.3417 152.767 77.5583 151.767C76.8083 150.833 76.5583 149.65 76.5417 148.5C76.5583 147.333 76.8083 146.167 77.5583 145.217C78.375 144.2 79.5417 143.75 80.825 143.75C82.125 143.75 83.3083 144.233 84.1083 145.217C84.2917 145.467 84.4583 145.717 84.5917 146ZM87.4719 146.267L86.2219 145.683C86.2885 145.567 86.3885 145.4 86.4885 145.283C87.2719 144.233 88.4385 143.767 89.7885 143.767C91.4385 143.767 92.7885 144.367 93.4385 145.767C93.6885 146.283 93.7885 146.85 93.7885 147.367V153H92.5885V151.217C92.2552 151.867 91.6219 152.417 91.0052 152.717C90.2719 153.083 89.4885 153.267 88.6885 153.217C87.7885 153.183 86.8552 152.717 86.3719 152.017C86.0219 151.483 85.8385 151 85.8385 150.367C85.8385 149.417 86.3385 148.583 87.1552 148.083C88.1385 147.55 89.1219 147.467 90.5219 147.25L92.3885 147C92.3052 146.433 92.0552 145.933 91.6219 145.6C91.1385 145.2 90.4552 145.05 89.7719 145.05C88.9385 145.05 88.1552 145.333 87.6885 145.967C87.6052 146.067 87.5385 146.167 87.4719 146.267ZM92.4385 148.15C91.7719 148.25 91.1719 148.35 90.2552 148.5C88.8052 148.717 87.2219 148.983 87.2052 150.3C87.1885 151.133 87.9219 151.883 88.8719 151.967C90.0552 152.083 91.5552 151.4 92.0885 150.217C92.4385 149.483 92.4385 148.9 92.4385 148.15ZM95.9479 153V140.75H97.2979V153H95.9479ZM99.6354 153V140.75H100.985V153H99.6354ZM104.69 153.3C104.69 154.35 104.173 154.983 103.156 154.8L103.24 154.15C103.923 154.2 104.006 153.65 103.956 153H103.156V151.183H104.69V153.3ZM112.54 148.867C112.573 149.633 112.756 150.383 113.19 150.95C113.673 151.617 114.506 151.967 115.373 151.967C116.24 151.967 117.056 151.617 117.556 150.95C117.673 150.783 117.756 150.633 117.84 150.467L119.173 151.05C119.04 151.3 118.873 151.567 118.673 151.8C117.89 152.767 116.64 153.283 115.373 153.25C114.09 153.217 112.873 152.75 112.09 151.783C111.34 150.833 111.073 149.65 111.073 148.5C111.09 147.317 111.34 146.167 112.09 145.217C112.89 144.233 114.073 143.75 115.373 143.75C116.673 143.75 117.856 144.233 118.64 145.217C119.39 146.167 119.656 147.333 119.656 148.5C119.656 148.617 119.656 148.75 119.64 148.867H112.54ZM115.373 145.033C114.506 145.033 113.673 145.383 113.19 146.05C112.84 146.517 112.64 147.117 112.573 147.733H118.173C118.106 147.117 117.906 146.517 117.556 146.05C117.056 145.383 116.24 145.033 115.373 145.033ZM128.011 141H129.361V153H128.161V151.85C127.461 152.767 126.361 153.25 125.111 153.25C123.878 153.25 122.745 152.75 121.995 151.8C121.245 150.85 120.995 149.667 120.995 148.483C120.995 147.317 121.261 146.117 121.995 145.2C122.711 144.267 123.861 143.75 125.078 143.75C126.211 143.75 127.278 144.183 128.011 144.967V141ZM127.428 151.033C127.961 150.383 128.161 149.433 128.161 148.483C128.161 147.55 127.961 146.6 127.428 145.95C126.945 145.3 126.145 145 125.295 145C124.395 145 123.595 145.317 123.095 146.017C122.611 146.667 122.428 147.567 122.428 148.483C122.428 149.417 122.595 150.317 123.078 150.95C123.578 151.65 124.411 152 125.261 152C126.128 152 126.928 151.667 127.428 151.033ZM131.88 141H133.23V142.45H131.88V141ZM131.88 144H133.23V153H131.88V144ZM138.096 145.133V149.6C138.096 150.35 138.079 150.8 138.296 151.183C138.479 151.583 138.896 151.817 139.346 151.85C139.813 151.9 140.363 151.883 140.829 151.8V153C140.229 153.15 139.396 153.183 138.812 153.067C138.013 152.917 137.396 152.55 137.063 151.867C136.746 151.233 136.746 150.533 136.746 149.667V145.133H134.729V144H136.746V141.5H138.096V144H140.829V145.133H138.096ZM144.19 153.3C144.19 154.35 143.673 154.983 142.656 154.8L142.74 154.15C143.423 154.2 143.506 153.65 143.456 153H142.656V151.183H144.19V153.3ZM152.206 146.267L150.956 145.683C151.023 145.567 151.123 145.4 151.223 145.283C152.006 144.233 153.173 143.767 154.523 143.767C156.173 143.767 157.523 144.367 158.173 145.767C158.423 146.283 158.523 146.85 158.523 147.367V153H157.323V151.217C156.99 151.867 156.356 152.417 155.74 152.717C155.006 153.083 154.223 153.267 153.423 153.217C152.523 153.183 151.59 152.717 151.106 152.017C150.756 151.483 150.573 151 150.573 150.367C150.573 149.417 151.073 148.583 151.89 148.083C152.873 147.55 153.856 147.467 155.256 147.25L157.123 147C157.04 146.433 156.79 145.933 156.356 145.6C155.873 145.2 155.19 145.05 154.506 145.05C153.673 145.05 152.89 145.333 152.423 145.967C152.34 146.067 152.273 146.167 152.206 146.267ZM157.173 148.15C156.506 148.25 155.906 148.35 154.99 148.5C153.54 148.717 151.956 148.983 151.94 150.3C151.923 151.133 152.656 151.883 153.606 151.967C154.79 152.083 156.29 151.4 156.823 150.217C157.173 149.483 157.173 148.9 157.173 148.15ZM167.066 144.533C168.299 145.483 168.516 146.917 168.499 148.567V153H167.132V148.567C167.132 147.283 166.999 146.217 166.132 145.567C165.682 145.233 165.099 145.067 164.432 145.1C163.882 145.117 163.349 145.3 162.949 145.65C162.532 146.017 162.266 146.55 162.149 147.15C162.066 147.517 162.049 147.95 162.049 148.383V153H160.682V144H161.899V145.017C161.982 144.917 162.082 144.817 162.182 144.717C162.849 144.117 163.732 143.817 164.549 143.783C165.432 143.733 166.349 144 167.066 144.533ZM177.027 141H178.377V153H177.177V151.85C176.477 152.767 175.377 153.25 174.127 153.25C172.894 153.25 171.76 152.75 171.01 151.8C170.26 150.85 170.01 149.667 170.01 148.483C170.01 147.317 170.277 146.117 171.01 145.2C171.727 144.267 172.877 143.75 174.094 143.75C175.227 143.75 176.294 144.183 177.027 144.967V141ZM176.444 151.033C176.977 150.383 177.177 149.433 177.177 148.483C177.177 147.55 176.977 146.6 176.444 145.95C175.96 145.3 175.16 145 174.31 145C173.41 145 172.61 145.317 172.11 146.017C171.627 146.667 171.444 147.567 171.444 148.483C171.444 149.417 171.61 150.317 172.094 150.95C172.594 151.65 173.427 152 174.277 152C175.144 152 175.944 151.667 176.444 151.033ZM188.481 143.75C188.915 143.75 189.331 143.8 189.731 143.933V145.217C189.348 145.083 188.881 145 188.381 145.033C187.681 145.05 187.065 145.283 186.648 145.7C185.848 146.45 185.815 147.433 185.815 148.65V153H184.448V144H185.665V145.333C185.848 145.017 186.098 144.733 186.431 144.467C187.015 143.983 187.765 143.767 188.481 143.75ZM197.441 144H198.791V153H197.591V151.967C197.507 152.067 197.407 152.183 197.291 152.283C196.641 152.883 195.757 153.183 194.924 153.217C194.057 153.267 193.124 153 192.407 152.467C191.174 151.517 190.957 150.083 190.974 148.433V144H192.341V148.433C192.341 149.717 192.491 150.783 193.341 151.417C193.791 151.767 194.374 151.917 195.041 151.9C195.607 151.883 196.124 151.7 196.524 151.333C196.941 150.983 197.224 150.45 197.324 149.85C197.441 149.3 197.441 148.633 197.441 147.95V147.933V144ZM201.12 153V140.75H202.47V153H201.12ZM205.774 148.867C205.807 149.633 205.991 150.383 206.424 150.95C206.907 151.617 207.741 151.967 208.607 151.967C209.474 151.967 210.291 151.617 210.791 150.95C210.907 150.783 210.991 150.633 211.074 150.467L212.407 151.05C212.274 151.3 212.107 151.567 211.907 151.8C211.124 152.767 209.874 153.283 208.607 153.25C207.324 153.217 206.107 152.75 205.324 151.783C204.574 150.833 204.307 149.65 204.307 148.5C204.324 147.317 204.574 146.167 205.324 145.217C206.124 144.233 207.307 143.75 208.607 143.75C209.907 143.75 211.091 144.233 211.874 145.217C212.624 146.167 212.891 147.333 212.891 148.5C212.891 148.617 212.891 148.75 212.874 148.867H205.774ZM208.607 145.033C207.741 145.033 206.907 145.383 206.424 146.05C206.074 146.517 205.874 147.117 205.807 147.733H211.407C211.341 147.117 211.141 146.517 210.791 146.05C210.291 145.383 209.474 145.033 208.607 145.033ZM225.998 146L224.731 146.55C224.648 146.367 224.531 146.2 224.431 146.05C223.931 145.367 223.115 145.033 222.231 145.033C221.381 145.033 220.548 145.367 220.065 146.05C219.548 146.717 219.398 147.617 219.381 148.5C219.398 149.383 219.548 150.283 220.065 150.95C220.548 151.617 221.381 151.95 222.231 151.95C223.115 151.95 223.931 151.617 224.431 150.95C224.531 150.8 224.631 150.633 224.715 150.467L225.998 151.033C225.848 151.283 225.698 151.533 225.515 151.767C224.731 152.75 223.531 153.25 222.231 153.25C220.948 153.25 219.748 152.767 218.965 151.767C218.215 150.833 217.965 149.65 217.948 148.5C217.965 147.333 218.215 146.167 218.965 145.217C219.781 144.2 220.948 143.75 222.231 143.75C223.531 143.75 224.715 144.233 225.515 145.217C225.698 145.467 225.865 145.717 225.998 146ZM234.128 144.533C235.361 145.483 235.578 146.917 235.561 148.567V153H234.195V148.567C234.195 147.283 234.061 146.217 233.195 145.567C232.745 145.233 232.161 145.067 231.495 145.1C230.945 145.117 230.411 145.3 230.011 145.65C229.595 146.017 229.328 146.55 229.211 147.15C229.128 147.517 229.111 147.95 229.111 148.383V153H227.745V141H228.961V145.017C229.045 144.917 229.145 144.817 229.245 144.717C229.911 144.117 230.795 143.817 231.611 143.783C232.495 143.733 233.411 144 234.128 144.533ZM238.691 146.267L237.441 145.683C237.507 145.567 237.607 145.4 237.707 145.283C238.491 144.233 239.657 143.767 241.007 143.767C242.657 143.767 244.007 144.367 244.657 145.767C244.907 146.283 245.007 146.85 245.007 147.367V153H243.807V151.217C243.474 151.867 242.841 152.417 242.224 152.717C241.491 153.083 240.707 153.267 239.907 153.217C239.007 153.183 238.074 152.717 237.591 152.017C237.241 151.483 237.057 151 237.057 150.367C237.057 149.417 237.557 148.583 238.374 148.083C239.357 147.55 240.341 147.467 241.741 147.25L243.607 147C243.524 146.433 243.274 145.933 242.841 145.6C242.357 145.2 241.674 145.05 240.991 145.05C240.157 145.05 239.374 145.333 238.907 145.967C238.824 146.067 238.757 146.167 238.691 146.267ZM243.657 148.15C242.991 148.25 242.391 148.35 241.474 148.5C240.024 148.717 238.441 148.983 238.424 150.3C238.407 151.133 239.141 151.883 240.091 151.967C241.274 152.083 242.774 151.4 243.307 150.217C243.657 149.483 243.657 148.9 243.657 148.15ZM253.55 144.533C254.783 145.483 255 146.917 254.983 148.567V153H253.617V148.567C253.617 147.283 253.483 146.217 252.617 145.567C252.167 145.233 251.583 145.067 250.917 145.1C250.367 145.117 249.833 145.3 249.433 145.65C249.017 146.017 248.75 146.55 248.633 147.15C248.55 147.517 248.533 147.95 248.533 148.383V153H247.167V144H248.383V145.017C248.467 144.917 248.567 144.817 248.667 144.717C249.333 144.117 250.217 143.817 251.033 143.783C251.917 143.733 252.833 144 253.55 144.533ZM263.661 144H264.861V152.967C264.861 154.667 264.495 155.633 263.461 156.4C262.595 157.033 261.595 157.25 260.678 157.25C259.678 157.25 258.678 156.9 258.028 156.217C257.678 155.983 257.328 155.65 257.111 155.267L258.361 154.667C258.461 154.833 258.578 154.983 258.711 155.117C259.195 155.667 259.961 155.933 260.678 155.933C261.428 155.933 262.195 155.733 262.728 155.3C263.361 154.75 263.511 154.167 263.495 152.95V152.05C262.795 152.85 261.761 153.25 260.611 153.25C259.378 153.25 258.245 152.75 257.495 151.8C256.745 150.85 256.495 149.667 256.495 148.483C256.495 147.317 256.761 146.117 257.495 145.2C258.211 144.267 259.361 143.75 260.578 143.75C261.778 143.75 262.928 144.25 263.661 145.133V144ZM262.928 151.033C263.461 150.383 263.661 149.433 263.661 148.483C263.661 147.55 263.461 146.6 262.928 145.95C262.445 145.3 261.645 145 260.795 145C259.895 145 259.095 145.317 258.595 146.017C258.111 146.667 257.928 147.567 257.928 148.483C257.928 149.417 258.095 150.317 258.578 150.95C259.078 151.65 259.911 152 260.761 152C261.628 152 262.428 151.667 262.928 151.033ZM268.165 148.867C268.198 149.633 268.381 150.383 268.815 150.95C269.298 151.617 270.131 151.967 270.998 151.967C271.865 151.967 272.681 151.617 273.181 150.95C273.298 150.783 273.381 150.633 273.465 150.467L274.798 151.05C274.665 151.3 274.498 151.567 274.298 151.8C273.515 152.767 272.265 153.283 270.998 153.25C269.715 153.217 268.498 152.75 267.715 151.783C266.965 150.833 266.698 149.65 266.698 148.5C266.715 147.317 266.965 146.167 267.715 145.217C268.515 144.233 269.698 143.75 270.998 143.75C272.298 143.75 273.481 144.233 274.265 145.217C275.015 146.167 275.281 147.333 275.281 148.5C275.281 148.617 275.281 148.75 275.265 148.867H268.165ZM270.998 145.033C270.131 145.033 269.298 145.383 268.815 146.05C268.465 146.517 268.265 147.117 268.198 147.733H273.798C273.731 147.117 273.531 146.517 273.181 146.05C272.681 145.383 271.865 145.033 270.998 145.033ZM281.005 141H282.355V142.45H281.005V141ZM281.005 144H282.355V153H281.005V144ZM291.888 146.367L290.554 146.683C290.354 146.133 289.938 145.617 289.421 145.35C289.038 145.15 288.571 145.05 288.088 145.05C287.604 145.033 287.138 145.117 286.754 145.3C286.354 145.517 286.088 145.867 286.088 146.233C286.088 146.5 286.171 146.717 286.371 146.917C286.588 147.133 286.904 147.283 287.504 147.45C287.954 147.583 288.521 147.733 289.221 147.917C289.888 148.1 290.438 148.3 290.971 148.75C291.654 149.3 291.971 149.967 291.904 150.767C291.838 151.533 291.404 152.233 290.754 152.65C290.054 153.1 289.138 153.233 288.238 153.233C287.054 153.233 285.988 152.9 285.221 152.083C284.704 151.5 284.388 150.667 284.271 150.05L285.588 149.733C285.654 150.233 285.854 150.8 286.204 151.2C286.721 151.767 287.488 151.95 288.221 151.95C288.838 151.95 289.588 151.817 290.004 151.533C290.321 151.3 290.471 151 290.521 150.65C290.554 150.3 290.421 149.983 290.138 149.75C289.854 149.483 289.504 149.35 288.838 149.15C288.388 149.017 287.888 148.883 287.271 148.717C286.588 148.533 286.021 148.35 285.504 147.933C284.938 147.5 284.688 146.85 284.688 146.25C284.688 145.3 285.354 144.483 286.188 144.1C286.838 143.817 287.488 143.733 288.121 143.75C288.738 143.75 289.421 143.883 290.021 144.183C290.871 144.633 291.621 145.483 291.888 146.367ZM29.1667 179V166.75H30.5167V179H29.1667ZM36.6542 179.25C35.3542 179.25 34.1542 178.767 33.3708 177.783C32.6208 176.833 32.3542 175.667 32.3542 174.483C32.3542 173.317 32.6375 172.133 33.3708 171.217C34.1375 170.267 35.3542 169.75 36.6542 169.75C37.9375 169.75 39.1542 170.233 39.9208 171.217C40.7042 172.167 40.9542 173.333 40.9542 174.483C40.9542 175.7 40.6875 176.817 39.9208 177.783C39.1375 178.783 37.9708 179.25 36.6542 179.25ZM38.8542 176.95C39.3542 176.283 39.5208 175.383 39.5208 174.483C39.5208 173.617 39.3542 172.7 38.8542 172.033C38.3542 171.367 37.5208 171.033 36.6542 171.033C35.7875 171.033 34.9542 171.367 34.4708 172.033C33.9542 172.7 33.7875 173.617 33.7875 174.483C33.7875 175.383 33.9542 176.283 34.4708 176.95C34.9542 177.617 35.7875 177.967 36.6542 177.967C37.5208 177.967 38.3542 177.617 38.8542 176.95ZM49.4583 170H50.6583V178.967C50.6583 180.667 50.2917 181.633 49.2583 182.4C48.3917 183.033 47.3917 183.25 46.475 183.25C45.475 183.25 44.475 182.9 43.825 182.217C43.475 181.983 43.125 181.65 42.9083 181.267L44.1583 180.667C44.2583 180.833 44.375 180.983 44.5083 181.117C44.9917 181.667 45.7583 181.933 46.475 181.933C47.225 181.933 47.9917 181.733 48.525 181.3C49.1583 180.75 49.3083 180.167 49.2917 178.95V178.05C48.5917 178.85 47.5583 179.25 46.4083 179.25C45.175 179.25 44.0417 178.75 43.2917 177.8C42.5417 176.85 42.2917 175.667 42.2917 174.483C42.2917 173.317 42.5583 172.117 43.2917 171.2C44.0083 170.267 45.1583 169.75 46.375 169.75C47.575 169.75 48.725 170.25 49.4583 171.133V170ZM48.725 177.033C49.2583 176.383 49.4583 175.433 49.4583 174.483C49.4583 173.55 49.2583 172.6 48.725 171.95C48.2417 171.3 47.4417 171 46.5917 171C45.6917 171 44.8917 171.317 44.3917 172.017C43.9083 172.667 43.725 173.567 43.725 174.483C43.725 175.417 43.8917 176.317 44.375 176.95C44.875 177.65 45.7083 178 46.5583 178C47.425 178 48.225 177.667 48.725 177.033ZM59.6615 170H60.8615V178.967C60.8615 180.667 60.4948 181.633 59.4615 182.4C58.5948 183.033 57.5948 183.25 56.6781 183.25C55.6781 183.25 54.6781 182.9 54.0281 182.217C53.6781 181.983 53.3281 181.65 53.1115 181.267L54.3615 180.667C54.4615 180.833 54.5781 180.983 54.7115 181.117C55.1948 181.667 55.9615 181.933 56.6781 181.933C57.4281 181.933 58.1948 181.733 58.7281 181.3C59.3615 180.75 59.5115 180.167 59.4948 178.95V178.05C58.7948 178.85 57.7615 179.25 56.6115 179.25C55.3781 179.25 54.2448 178.75 53.4948 177.8C52.7448 176.85 52.4948 175.667 52.4948 174.483C52.4948 173.317 52.7615 172.117 53.4948 171.2C54.2115 170.267 55.3615 169.75 56.5781 169.75C57.7781 169.75 58.9281 170.25 59.6615 171.133V170ZM58.9281 177.033C59.4615 176.383 59.6615 175.433 59.6615 174.483C59.6615 173.55 59.4615 172.6 58.9281 171.95C58.4448 171.3 57.6448 171 56.7948 171C55.8948 171 55.0948 171.317 54.5948 172.017C54.1115 172.667 53.9281 173.567 53.9281 174.483C53.9281 175.417 54.0948 176.317 54.5781 176.95C55.0781 177.65 55.9115 178 56.7615 178C57.6281 178 58.4281 177.667 58.9281 177.033ZM64.1646 174.867C64.1979 175.633 64.3813 176.383 64.8146 176.95C65.2979 177.617 66.1313 177.967 66.9979 177.967C67.8646 177.967 68.6813 177.617 69.1813 176.95C69.2979 176.783 69.3813 176.633 69.4646 176.467L70.7979 177.05C70.6646 177.3 70.4979 177.567 70.2979 177.8C69.5146 178.767 68.2646 179.283 66.9979 179.25C65.7146 179.217 64.4979 178.75 63.7146 177.783C62.9646 176.833 62.6979 175.65 62.6979 174.5C62.7146 173.317 62.9646 172.167 63.7146 171.217C64.5146 170.233 65.6979 169.75 66.9979 169.75C68.2979 169.75 69.4813 170.233 70.2646 171.217C71.0146 172.167 71.2813 173.333 71.2813 174.5C71.2813 174.617 71.2813 174.75 71.2646 174.867H64.1646ZM66.9979 171.033C66.1313 171.033 65.2979 171.383 64.8146 172.05C64.4646 172.517 64.2646 173.117 64.1979 173.733H69.7979C69.7313 173.117 69.5313 172.517 69.1813 172.05C68.6813 171.383 67.8646 171.033 66.9979 171.033ZM79.6365 167H80.9865V179H79.7865V177.85C79.0865 178.767 77.9865 179.25 76.7365 179.25C75.5031 179.25 74.3698 178.75 73.6198 177.8C72.8698 176.85 72.6198 175.667 72.6198 174.483C72.6198 173.317 72.8865 172.117 73.6198 171.2C74.3365 170.267 75.4865 169.75 76.7031 169.75C77.8365 169.75 78.9031 170.183 79.6365 170.967V167ZM79.0531 177.033C79.5865 176.383 79.7865 175.433 79.7865 174.483C79.7865 173.55 79.5865 172.6 79.0531 171.95C78.5698 171.3 77.7698 171 76.9198 171C76.0198 171 75.2198 171.317 74.7198 172.017C74.2365 172.667 74.0531 173.567 74.0531 174.483C74.0531 175.417 74.2198 176.317 74.7031 176.95C75.2031 177.65 76.0365 178 76.8865 178C77.7531 178 78.5531 177.667 79.0531 177.033ZM88.1906 172.267L86.9406 171.683C87.0073 171.567 87.1073 171.4 87.2073 171.283C87.9906 170.233 89.1573 169.767 90.5073 169.767C92.1573 169.767 93.5073 170.367 94.1573 171.767C94.4073 172.283 94.5073 172.85 94.5073 173.367V179H93.3073V177.217C92.974 177.867 92.3406 178.417 91.724 178.717C90.9906 179.083 90.2073 179.267 89.4073 179.217C88.5073 179.183 87.574 178.717 87.0906 178.017C86.7406 177.483 86.5573 177 86.5573 176.367C86.5573 175.417 87.0573 174.583 87.874 174.083C88.8573 173.55 89.8406 173.467 91.2406 173.25L93.1073 173C93.024 172.433 92.774 171.933 92.3406 171.6C91.8573 171.2 91.174 171.05 90.4906 171.05C89.6573 171.05 88.874 171.333 88.4073 171.967C88.324 172.067 88.2573 172.167 88.1906 172.267ZM93.1573 174.15C92.4906 174.25 91.8906 174.35 90.974 174.5C89.524 174.717 87.9406 174.983 87.924 176.3C87.9073 177.133 88.6406 177.883 89.5906 177.967C90.774 178.083 92.274 177.4 92.8073 176.217C93.1573 175.483 93.1573 174.9 93.1573 174.15ZM103.05 170.533C104.283 171.483 104.5 172.917 104.483 174.567V179H103.117V174.567C103.117 173.283 102.983 172.217 102.117 171.567C101.667 171.233 101.083 171.067 100.417 171.1C99.8667 171.117 99.3333 171.3 98.9333 171.65C98.5167 172.017 98.25 172.55 98.1333 173.15C98.05 173.517 98.0333 173.95 98.0333 174.383V179H96.6667V170H97.8833V171.017C97.9667 170.917 98.0667 170.817 98.1667 170.717C98.8333 170.117 99.7167 169.817 100.533 169.783C101.417 169.733 102.333 170 103.05 170.533ZM113.011 167H114.361V179H113.161V177.85C112.461 178.767 111.361 179.25 110.111 179.25C108.878 179.25 107.745 178.75 106.995 177.8C106.245 176.85 105.995 175.667 105.995 174.483C105.995 173.317 106.261 172.117 106.995 171.2C107.711 170.267 108.861 169.75 110.078 169.75C111.211 169.75 112.278 170.183 113.011 170.967V167ZM112.428 177.033C112.961 176.383 113.161 175.433 113.161 174.483C113.161 173.55 112.961 172.6 112.428 171.95C111.945 171.3 111.145 171 110.295 171C109.395 171 108.595 171.317 108.095 172.017C107.611 172.667 107.428 173.567 107.428 174.483C107.428 175.417 107.595 176.317 108.078 176.95C108.578 177.65 109.411 178 110.261 178C111.128 178 111.928 177.667 112.428 177.033ZM124.466 169.75C124.899 169.75 125.316 169.8 125.716 169.933V171.217C125.332 171.083 124.866 171 124.366 171.033C123.666 171.05 123.049 171.283 122.632 171.7C121.832 172.45 121.799 173.433 121.799 174.65V179H120.432V170H121.649V171.333C121.832 171.017 122.082 170.733 122.416 170.467C122.999 169.983 123.749 169.767 124.466 169.75ZM128.008 174.867C128.042 175.633 128.225 176.383 128.658 176.95C129.142 177.617 129.975 177.967 130.842 177.967C131.708 177.967 132.525 177.617 133.025 176.95C133.142 176.783 133.225 176.633 133.308 176.467L134.642 177.05C134.508 177.3 134.342 177.567 134.142 177.8C133.358 178.767 132.108 179.283 130.842 179.25C129.558 179.217 128.342 178.75 127.558 177.783C126.808 176.833 126.542 175.65 126.542 174.5C126.558 173.317 126.808 172.167 127.558 171.217C128.358 170.233 129.542 169.75 130.842 169.75C132.142 169.75 133.325 170.233 134.108 171.217C134.858 172.167 135.125 173.333 135.125 174.5C135.125 174.617 135.125 174.75 135.108 174.867H128.008ZM130.842 171.033C129.975 171.033 129.142 171.383 128.658 172.05C128.308 172.517 128.108 173.117 128.042 173.733H133.642C133.575 173.117 133.375 172.517 133.025 172.05C132.525 171.383 131.708 171.033 130.842 171.033ZM142.535 170H143.919L140.635 179H139.252L135.985 170H137.352L139.952 177.25L142.535 170ZM145.521 167H146.871V168.45H145.521V167ZM145.521 170H146.871V179H145.521V170ZM150.336 174.867C150.37 175.633 150.553 176.383 150.986 176.95C151.47 177.617 152.303 177.967 153.17 177.967C154.036 177.967 154.853 177.617 155.353 176.95C155.47 176.783 155.553 176.633 155.636 176.467L156.97 177.05C156.836 177.3 156.67 177.567 156.47 177.8C155.686 178.767 154.436 179.283 153.17 179.25C151.886 179.217 150.67 178.75 149.886 177.783C149.136 176.833 148.87 175.65 148.87 174.5C148.886 173.317 149.136 172.167 149.886 171.217C150.686 170.233 151.87 169.75 153.17 169.75C154.47 169.75 155.653 170.233 156.436 171.217C157.186 172.167 157.453 173.333 157.453 174.5C157.453 174.617 157.453 174.75 157.436 174.867H150.336ZM153.17 171.033C152.303 171.033 151.47 171.383 150.986 172.05C150.636 172.517 150.436 173.117 150.37 173.733H155.97C155.903 173.117 155.703 172.517 155.353 172.05C154.853 171.383 154.036 171.033 153.17 171.033ZM168.925 170H170.258L167.508 179H166.158L164.158 172.2L162.075 179H160.792L158.042 170H159.408L161.475 176.783L163.542 170H164.758L166.842 176.783L168.925 170ZM172.55 172.267L171.3 171.683C171.367 171.567 171.467 171.4 171.567 171.283C172.35 170.233 173.517 169.767 174.867 169.767C176.517 169.767 177.867 170.367 178.517 171.767C178.767 172.283 178.867 172.85 178.867 173.367V179H177.667V177.217C177.333 177.867 176.7 178.417 176.083 178.717C175.35 179.083 174.567 179.267 173.767 179.217C172.867 179.183 171.933 178.717 171.45 178.017C171.1 177.483 170.917 177 170.917 176.367C170.917 175.417 171.417 174.583 172.233 174.083C173.217 173.55 174.2 173.467 175.6 173.25L177.467 173C177.383 172.433 177.133 171.933 176.7 171.6C176.217 171.2 175.533 171.05 174.85 171.05C174.017 171.05 173.233 171.333 172.767 171.967C172.683 172.067 172.617 172.167 172.55 172.267ZM177.517 174.15C176.85 174.25 176.25 174.35 175.333 174.5C173.883 174.717 172.3 174.983 172.283 176.3C172.267 177.133 173 177.883 173.95 177.967C175.133 178.083 176.633 177.4 177.167 176.217C177.517 175.483 177.517 174.9 177.517 174.15ZM188.409 171.2C189.126 172.117 189.393 173.317 189.393 174.483C189.393 175.667 189.159 176.85 188.409 177.8C187.659 178.75 186.526 179.25 185.293 179.25C184.043 179.25 182.959 178.783 182.243 177.867V179H181.026V167H182.393V170.95C183.109 170.183 184.193 169.75 185.309 169.75C186.543 169.75 187.676 170.267 188.409 171.2ZM187.309 176.95C187.793 176.317 187.959 175.417 187.959 174.483C187.959 173.567 187.776 172.667 187.309 172.017C186.809 171.317 185.993 171 185.093 171C184.243 171 183.459 171.3 182.959 171.95C182.443 172.6 182.243 173.55 182.243 174.483C182.243 175.433 182.443 176.383 182.959 177.033C183.459 177.667 184.276 178 185.126 178C185.976 178 186.809 177.65 187.309 176.95ZM191.229 179V166.75H192.579V179H191.229ZM195.883 174.867C195.917 175.633 196.1 176.383 196.533 176.95C197.017 177.617 197.85 177.967 198.717 177.967C199.583 177.967 200.4 177.617 200.9 176.95C201.017 176.783 201.1 176.633 201.183 176.467L202.517 177.05C202.383 177.3 202.217 177.567 202.017 177.8C201.233 178.767 199.983 179.283 198.717 179.25C197.433 179.217 196.217 178.75 195.433 177.783C194.683 176.833 194.417 175.65 194.417 174.5C194.433 173.317 194.683 172.167 195.433 171.217C196.233 170.233 197.417 169.75 198.717 169.75C200.017 169.75 201.2 170.233 201.983 171.217C202.733 172.167 203 173.333 203 174.5C203 174.617 203 174.75 202.983 174.867H195.883ZM198.717 171.033C197.85 171.033 197.017 171.383 196.533 172.05C196.183 172.517 195.983 173.117 195.917 173.733H201.517C201.45 173.117 201.25 172.517 200.9 172.05C200.4 171.383 199.583 171.033 198.717 171.033ZM215.941 171.2C216.657 172.117 216.924 173.317 216.924 174.483C216.924 175.667 216.691 176.85 215.941 177.8C215.191 178.75 214.057 179.25 212.824 179.25C211.574 179.25 210.491 178.783 209.774 177.867V179H208.557V167H209.924V170.95C210.641 170.183 211.724 169.75 212.841 169.75C214.074 169.75 215.207 170.267 215.941 171.2ZM214.841 176.95C215.324 176.317 215.491 175.417 215.491 174.483C215.491 173.567 215.307 172.667 214.841 172.017C214.341 171.317 213.524 171 212.624 171C211.774 171 210.991 171.3 210.491 171.95C209.974 172.6 209.774 173.55 209.774 174.483C209.774 175.433 209.974 176.383 210.491 177.033C210.991 177.667 211.807 178 212.657 178C213.507 178 214.341 177.65 214.841 176.95ZM224.792 170.017H226.158L222.058 180.7C221.725 181.6 221.325 182.233 220.825 182.583C220.342 182.95 219.792 183 219.175 183L218.958 182.983V181.683L219.242 181.717C219.575 181.733 219.925 181.7 220.158 181.517C220.508 181.283 220.742 180.733 221.308 179.25L217.458 170H218.858L221.942 177.517L224.792 170.017ZM237.714 170.017H239.08L234.98 180.7C234.647 181.6 234.247 182.233 233.747 182.583C233.264 182.95 232.714 183 232.097 183L231.88 182.983V181.683L232.164 181.717C232.497 181.733 232.847 181.7 233.08 181.517C233.43 181.283 233.664 180.733 234.23 179.25L230.38 170H231.78L234.864 177.517L237.714 170.017ZM243.889 179.25C242.589 179.25 241.389 178.767 240.605 177.783C239.855 176.833 239.589 175.667 239.589 174.483C239.589 173.317 239.872 172.133 240.605 171.217C241.372 170.267 242.589 169.75 243.889 169.75C245.172 169.75 246.389 170.233 247.155 171.217C247.939 172.167 248.189 173.333 248.189 174.483C248.189 175.7 247.922 176.817 247.155 177.783C246.372 178.783 245.205 179.25 243.889 179.25ZM246.089 176.95C246.589 176.283 246.755 175.383 246.755 174.483C246.755 173.617 246.589 172.7 246.089 172.033C245.589 171.367 244.755 171.033 243.889 171.033C243.022 171.033 242.189 171.367 241.705 172.033C241.189 172.7 241.022 173.617 241.022 174.483C241.022 175.383 241.189 176.283 241.705 176.95C242.189 177.617 243.022 177.967 243.889 177.967C244.755 177.967 245.589 177.617 246.089 176.95ZM256.159 170H257.509V179H256.309V177.967C256.226 178.067 256.126 178.183 256.009 178.283C255.359 178.883 254.476 179.183 253.643 179.217C252.776 179.267 251.843 179 251.126 178.467C249.893 177.517 249.676 176.083 249.693 174.433V170H251.059V174.433C251.059 175.717 251.209 176.783 252.059 177.417C252.509 177.767 253.093 177.917 253.759 177.9C254.326 177.883 254.843 177.7 255.243 177.333C255.659 176.983 255.943 176.45 256.043 175.85C256.159 175.3 256.159 174.633 256.159 173.95V173.933V170ZM263.872 169.75C264.305 169.75 264.722 169.8 265.122 169.933V171.217C264.739 171.083 264.272 171 263.772 171.033C263.072 171.05 262.455 171.283 262.039 171.7C261.239 172.45 261.205 173.433 261.205 174.65V179H259.839V170H261.055V171.333C261.239 171.017 261.489 170.733 261.822 170.467C262.405 169.983 263.155 169.767 263.872 169.75ZM36.7167 198L35.45 198.55C35.3667 198.367 35.25 198.2 35.15 198.05C34.65 197.367 33.8333 197.033 32.95 197.033C32.1 197.033 31.2667 197.367 30.7833 198.05C30.2667 198.717 30.1167 199.617 30.1 200.5C30.1167 201.383 30.2667 202.283 30.7833 202.95C31.2667 203.617 32.1 203.95 32.95 203.95C33.8333 203.95 34.65 203.617 35.15 202.95C35.25 202.8 35.35 202.633 35.4333 202.467L36.7167 203.033C36.5667 203.283 36.4167 203.533 36.2333 203.767C35.45 204.75 34.25 205.25 32.95 205.25C31.6667 205.25 30.4667 204.767 29.6833 203.767C28.9333 202.833 28.6833 201.65 28.6667 200.5C28.6833 199.333 28.9333 198.167 29.6833 197.217C30.5 196.2 31.6667 195.75 32.95 195.75C34.25 195.75 35.4333 196.233 36.2333 197.217C36.4167 197.467 36.5833 197.717 36.7167 198ZM42.0135 205.25C40.7135 205.25 39.5135 204.767 38.7302 203.783C37.9802 202.833 37.7135 201.667 37.7135 200.483C37.7135 199.317 37.9969 198.133 38.7302 197.217C39.4969 196.267 40.7135 195.75 42.0135 195.75C43.2969 195.75 44.5135 196.233 45.2802 197.217C46.0635 198.167 46.3135 199.333 46.3135 200.483C46.3135 201.7 46.0469 202.817 45.2802 203.783C44.4969 204.783 43.3302 205.25 42.0135 205.25ZM44.2135 202.95C44.7135 202.283 44.8802 201.383 44.8802 200.483C44.8802 199.617 44.7135 198.7 44.2135 198.033C43.7135 197.367 42.8802 197.033 42.0135 197.033C41.1469 197.033 40.3135 197.367 39.8302 198.033C39.3135 198.7 39.1469 199.617 39.1469 200.483C39.1469 201.383 39.3135 202.283 39.8302 202.95C40.3135 203.617 41.1469 203.967 42.0135 203.967C42.8802 203.967 43.7135 203.617 44.2135 202.95ZM59.201 196.683C60.1677 197.467 60.251 198.4 60.251 199.683V205H58.901V199.683C58.901 198.767 58.851 198.233 58.2177 197.683C57.8677 197.367 57.401 197.2 56.9344 197.2C56.301 197.2 55.7344 197.45 55.351 197.917C54.951 198.417 54.8844 198.9 54.8844 199.467V199.683L54.8677 205H53.5344V199.683C53.5344 198.767 53.4844 198.233 52.8344 197.683C52.501 197.367 52.0344 197.2 51.551 197.2C50.9344 197.2 50.351 197.45 49.9844 197.917C49.5844 198.417 49.5177 198.9 49.5177 199.467V205H48.151V196H49.3677V197.2C49.951 196.417 50.901 195.983 51.8844 195.983C52.551 195.983 53.2844 196.233 53.8344 196.683C54.151 196.95 54.3677 197.233 54.5344 197.533C54.5677 197.45 54.6177 197.383 54.6677 197.317C55.2344 196.467 56.2177 195.983 57.251 195.983C57.9344 195.983 58.651 196.233 59.201 196.683ZM69.6281 197.2C70.3448 198.117 70.6115 199.317 70.6115 200.483C70.6115 201.667 70.3781 202.85 69.6281 203.8C68.8781 204.75 67.7448 205.25 66.5115 205.25C65.3448 205.25 64.3281 204.833 63.6115 204.05V209H62.2448V196H63.4615V197.133C64.1781 196.25 65.3281 195.75 66.5281 195.75C67.7615 195.75 68.8948 196.267 69.6281 197.2ZM68.5281 202.95C69.0115 202.317 69.1781 201.417 69.1781 200.483C69.1781 199.567 68.9948 198.667 68.5281 198.017C68.0281 197.317 67.2115 197 66.3115 197C65.4615 197 64.6781 197.3 64.1781 197.95C63.6615 198.6 63.4615 199.55 63.4615 200.483C63.4615 201.433 63.6615 202.383 64.1781 203.033C64.6781 203.667 65.4948 204 66.3448 204C67.1948 204 68.0281 203.65 68.5281 202.95ZM72.4479 205V192.75H73.7979V205H72.4479ZM76.3021 193H77.6521V194.45H76.3021V193ZM76.3021 196H77.6521V205H76.3021V196ZM81.2844 198.267L80.0344 197.683C80.101 197.567 80.201 197.4 80.301 197.283C81.0844 196.233 82.251 195.767 83.601 195.767C85.251 195.767 86.601 196.367 87.251 197.767C87.501 198.283 87.601 198.85 87.601 199.367V205H86.401V203.217C86.0677 203.867 85.4344 204.417 84.8177 204.717C84.0844 205.083 83.301 205.267 82.501 205.217C81.601 205.183 80.6677 204.717 80.1844 204.017C79.8344 203.483 79.651 203 79.651 202.367C79.651 201.417 80.151 200.583 80.9677 200.083C81.951 199.55 82.9344 199.467 84.3344 199.25L86.201 199C86.1177 198.433 85.8677 197.933 85.4344 197.6C84.951 197.2 84.2677 197.05 83.5844 197.05C82.751 197.05 81.9677 197.333 81.501 197.967C81.4177 198.067 81.351 198.167 81.2844 198.267ZM86.251 200.15C85.5844 200.25 84.9844 200.35 84.0677 200.5C82.6177 200.717 81.0344 200.983 81.0177 202.3C81.001 203.133 81.7344 203.883 82.6844 203.967C83.8677 204.083 85.3677 203.4 85.901 202.217C86.251 201.483 86.251 200.9 86.251 200.15ZM96.1438 196.533C97.3771 197.483 97.5938 198.917 97.5771 200.567V205H96.2104V200.567C96.2104 199.283 96.0771 198.217 95.2104 197.567C94.7604 197.233 94.1771 197.067 93.5104 197.1C92.9604 197.117 92.4271 197.3 92.0271 197.65C91.6104 198.017 91.3438 198.55 91.2271 199.15C91.1438 199.517 91.1271 199.95 91.1271 200.383V205H89.7604V196H90.9771V197.017C91.0604 196.917 91.1604 196.817 91.2604 196.717C91.9271 196.117 92.8104 195.817 93.6271 195.783C94.5104 195.733 95.4271 196 96.1438 196.533ZM107.139 198L105.872 198.55C105.789 198.367 105.672 198.2 105.572 198.05C105.072 197.367 104.255 197.033 103.372 197.033C102.522 197.033 101.689 197.367 101.205 198.05C100.689 198.717 100.539 199.617 100.522 200.5C100.539 201.383 100.689 202.283 101.205 202.95C101.689 203.617 102.522 203.95 103.372 203.95C104.255 203.95 105.072 203.617 105.572 202.95C105.672 202.8 105.772 202.633 105.855 202.467L107.139 203.033C106.989 203.283 106.839 203.533 106.655 203.767C105.872 204.75 104.672 205.25 103.372 205.25C102.089 205.25 100.889 204.767 100.105 203.767C99.3552 202.833 99.1052 201.65 99.0885 200.5C99.1052 199.333 99.3552 198.167 100.105 197.217C100.922 196.2 102.089 195.75 103.372 195.75C104.672 195.75 105.855 196.233 106.655 197.217C106.839 197.467 107.005 197.717 107.139 198ZM109.602 200.867C109.635 201.633 109.819 202.383 110.252 202.95C110.735 203.617 111.569 203.967 112.435 203.967C113.302 203.967 114.119 203.617 114.619 202.95C114.735 202.783 114.819 202.633 114.902 202.467L116.235 203.05C116.102 203.3 115.935 203.567 115.735 203.8C114.952 204.767 113.702 205.283 112.435 205.25C111.152 205.217 109.935 204.75 109.152 203.783C108.402 202.833 108.135 201.65 108.135 200.5C108.152 199.317 108.402 198.167 109.152 197.217C109.952 196.233 111.135 195.75 112.435 195.75C113.735 195.75 114.919 196.233 115.702 197.217C116.452 198.167 116.719 199.333 116.719 200.5C116.719 200.617 116.719 200.75 116.702 200.867H109.602ZM112.435 197.033C111.569 197.033 110.735 197.383 110.252 198.05C109.902 198.517 109.702 199.117 109.635 199.733H115.235C115.169 199.117 114.969 198.517 114.619 198.05C114.119 197.383 113.302 197.033 112.435 197.033ZM124.643 197.133V201.6C124.643 202.35 124.626 202.8 124.843 203.183C125.026 203.583 125.443 203.817 125.893 203.85C126.359 203.9 126.909 203.883 127.376 203.8V205C126.776 205.15 125.943 205.183 125.359 205.067C124.559 204.917 123.943 204.55 123.609 203.867C123.293 203.233 123.293 202.533 123.293 201.667V197.133H121.276V196H123.293V193.5H124.643V196H127.376V197.133H124.643ZM130.336 200.867C130.37 201.633 130.553 202.383 130.986 202.95C131.47 203.617 132.303 203.967 133.17 203.967C134.036 203.967 134.853 203.617 135.353 202.95C135.47 202.783 135.553 202.633 135.636 202.467L136.97 203.05C136.836 203.3 136.67 203.567 136.47 203.8C135.686 204.767 134.436 205.283 133.17 205.25C131.886 205.217 130.67 204.75 129.886 203.783C129.136 202.833 128.87 201.65 128.87 200.5C128.886 199.317 129.136 198.167 129.886 197.217C130.686 196.233 131.87 195.75 133.17 195.75C134.47 195.75 135.653 196.233 136.436 197.217C137.186 198.167 137.453 199.333 137.453 200.5C137.453 200.617 137.453 200.75 137.436 200.867H130.336ZM133.17 197.033C132.303 197.033 131.47 197.383 130.986 198.05C130.636 198.517 130.436 199.117 130.37 199.733H135.97C135.903 199.117 135.703 198.517 135.353 198.05C134.853 197.383 134.036 197.033 133.17 197.033ZM140.253 198.267L139.003 197.683C139.07 197.567 139.17 197.4 139.27 197.283C140.053 196.233 141.22 195.767 142.57 195.767C144.22 195.767 145.57 196.367 146.22 197.767C146.47 198.283 146.57 198.85 146.57 199.367V205H145.37V203.217C145.036 203.867 144.403 204.417 143.786 204.717C143.053 205.083 142.27 205.267 141.47 205.217C140.57 205.183 139.636 204.717 139.153 204.017C138.803 203.483 138.62 203 138.62 202.367C138.62 201.417 139.12 200.583 139.936 200.083C140.92 199.55 141.903 199.467 143.303 199.25L145.17 199C145.086 198.433 144.836 197.933 144.403 197.6C143.92 197.2 143.236 197.05 142.553 197.05C141.72 197.05 140.936 197.333 140.47 197.967C140.386 198.067 140.32 198.167 140.253 198.267ZM145.22 200.15C144.553 200.25 143.953 200.35 143.036 200.5C141.586 200.717 140.003 200.983 139.986 202.3C139.97 203.133 140.703 203.883 141.653 203.967C142.836 204.083 144.336 203.4 144.87 202.217C145.22 201.483 145.22 200.9 145.22 200.15ZM159.779 196.683C160.746 197.467 160.829 198.4 160.829 199.683V205H159.479V199.683C159.479 198.767 159.429 198.233 158.796 197.683C158.446 197.367 157.979 197.2 157.513 197.2C156.879 197.2 156.312 197.45 155.929 197.917C155.529 198.417 155.463 198.9 155.463 199.467V199.683L155.446 205H154.113V199.683C154.113 198.767 154.063 198.233 153.413 197.683C153.079 197.367 152.613 197.2 152.129 197.2C151.513 197.2 150.929 197.45 150.563 197.917C150.163 198.417 150.096 198.9 150.096 199.467V205H148.729V196H149.946V197.2C150.529 196.417 151.479 195.983 152.463 195.983C153.129 195.983 153.863 196.233 154.413 196.683C154.729 196.95 154.946 197.233 155.113 197.533C155.146 197.45 155.196 197.383 155.246 197.317C155.812 196.467 156.796 195.983 157.829 195.983C158.513 195.983 159.229 196.233 159.779 196.683ZM163.073 203.467H164.606V205H163.073V203.467Z" fill="white"/>
<path d="M40.75 103.8H32.825V108.6H39.25V111.4H32.825V119H30V101H40.75V103.8ZM51.9172 105.5H54.7422V119H52.2672V117.825L52.1922 117.9C51.1422 118.85 49.7422 119.3 48.4672 119.35C47.0422 119.425 45.5422 118.925 44.4672 118C42.7422 116.55 42.4922 114.6 42.4922 112.2V105.5H45.3422V112.2C45.3422 113.725 45.5422 115.075 46.4922 115.875C47.0672 116.4 47.8672 116.625 48.8172 116.625C49.5172 116.6 50.1672 116.375 50.6672 115.95C51.2422 115.525 51.6172 114.825 51.7672 114.025C51.9172 113.325 51.9172 112.375 51.9172 111.4V111.375V105.5ZM58.25 119V100.625H61.075V119H58.25ZM64.5781 119V100.625H67.4031V119H64.5781ZM78.4563 109.225L75.8813 108C75.9813 107.875 76.0813 107.675 76.2063 107.525C77.4062 105.875 79.2313 105.15 81.3563 105.15C83.8313 105.15 85.8563 106 86.9063 107.95C87.3563 108.8 87.5312 109.725 87.5312 110.525V119H85.0563V116.525C84.7063 117.375 83.8313 118.15 83.0813 118.55C82.0813 119.125 80.9063 119.375 79.8063 119.35C78.4563 119.325 77.0813 118.65 76.3563 117.7C75.7313 116.8 75.4063 116.1 75.4063 115.025C75.4063 113.6 76.2313 112.25 77.5063 111.5C78.9813 110.7 80.2313 110.625 82.2313 110.325L84.6563 109.975C84.5313 109.325 84.1563 108.75 83.6063 108.375C82.9813 107.925 82.1563 107.75 81.3063 107.775C80.2813 107.775 79.3563 108.075 78.7563 108.825C78.6563 108.95 78.5313 109.1 78.4563 109.225ZM84.7313 112.275C84.2313 112.35 83.3813 112.5 81.9063 112.775C80.1313 113.075 78.2563 113.4 78.2063 114.85C78.1813 115.85 79.0563 116.75 80.3063 116.775C81.8813 116.8 83.8313 115.975 84.4063 114.275C84.7313 113.5 84.7313 112.825 84.7313 112.275ZM99.7063 105.5H102.531V119H100.056V117.825L99.9813 117.9C98.9313 118.85 97.5313 119.3 96.2563 119.35C94.8313 119.425 93.3313 118.925 92.2563 118C90.5312 116.55 90.2813 114.6 90.2813 112.2V105.5H93.1313V112.2C93.1313 113.725 93.3313 115.075 94.2813 115.875C94.8563 116.4 95.6563 116.625 96.6063 116.625C97.3063 116.6 97.9563 116.375 98.4563 115.95C99.0313 115.525 99.4063 114.825 99.5563 114.025C99.7063 113.325 99.7063 112.375 99.7063 111.4V111.375V105.5ZM115.339 101H118.164V119H115.689V117.85C114.614 118.85 113.139 119.375 111.489 119.375C109.689 119.375 107.939 118.6 106.839 117.2C105.689 115.8 105.289 114.05 105.289 112.25C105.289 110.425 105.764 108.625 106.839 107.275C107.964 105.875 109.714 105.125 111.564 105.125C112.964 105.125 114.314 105.575 115.339 106.375V101ZM114.664 115.675C115.389 114.85 115.689 113.55 115.689 112.25C115.689 110.925 115.389 109.65 114.664 108.8C114.039 108.025 113.064 107.65 111.989 107.65C110.789 107.65 109.764 108.05 109.114 109C108.539 109.8 108.264 111 108.264 112.25C108.264 113.5 108.489 114.675 109.064 115.475C109.714 116.425 110.814 116.85 111.914 116.85C113.014 116.85 114.014 116.45 114.664 115.675ZM121.945 100.775H124.77V103.425H121.945V100.775ZM121.945 105.5H124.77V119H121.945V105.5ZM136.716 107.725H132.716V113.4C132.716 114.475 132.716 115.225 133.041 115.725C133.341 116.25 133.916 116.575 134.491 116.625C135.166 116.7 135.991 116.675 136.716 116.55V119C135.716 119.275 134.116 119.325 133.166 119.1C131.941 118.775 131.016 118.2 130.491 117.2C129.966 116.175 129.916 114.975 129.916 113.575V107.725H127.016V105.5H129.916V101.75H132.716V105.5H136.716V107.725ZM144.969 119V100.625H147.794V119H144.969ZM157.222 119.375C155.247 119.375 153.372 118.625 152.147 117.15C150.997 115.725 150.547 114.05 150.547 112.25C150.547 110.4 151.072 108.675 152.147 107.35C153.347 105.9 155.247 105.125 157.222 105.125C159.172 105.125 161.072 105.85 162.272 107.35C163.447 108.775 163.897 110.45 163.897 112.25C163.897 114.125 163.422 115.7 162.272 117.15C161.047 118.65 159.222 119.375 157.222 119.375ZM160.047 115.425C160.697 114.575 160.922 113.4 160.922 112.25C160.922 111.1 160.697 109.9 160.047 109.05C159.397 108.2 158.347 107.775 157.222 107.775C156.072 107.775 155.022 108.2 154.397 109.05C153.747 109.9 153.522 111.1 153.522 112.25C153.522 113.4 153.747 114.575 154.397 115.425C155.022 116.275 156.072 116.725 157.222 116.725C158.347 116.725 159.397 116.275 160.047 115.425ZM176.298 105.5H178.773V119.5C178.773 121.675 178.048 123.25 176.423 124.275C175.073 125.125 173.723 125.35 172.448 125.35C171.323 125.35 170.023 125 169.148 124.35C168.348 123.925 167.573 123.25 167.098 122.425L169.698 121.175C169.873 121.475 170.073 121.7 170.348 121.925C170.898 122.45 171.773 122.7 172.473 122.7C173.398 122.7 174.348 122.425 174.973 121.925C175.748 121.325 175.973 120.65 175.948 119.475V118.15C174.898 118.975 173.573 119.375 172.098 119.375C170.298 119.375 168.548 118.6 167.448 117.2C166.298 115.8 165.898 114.05 165.898 112.25C165.898 110.425 166.373 108.625 167.448 107.275C168.573 105.875 170.323 105.125 172.173 105.125C173.748 105.125 175.223 105.7 176.298 106.675V105.5ZM172.523 116.85C173.623 116.85 174.623 116.45 175.273 115.675C175.998 114.85 176.298 113.55 176.298 112.25C176.298 110.925 175.998 109.65 175.273 108.8C174.648 108.025 173.673 107.65 172.598 107.65C171.398 107.65 170.373 108.05 169.723 109C169.148 109.8 168.873 111 168.873 112.25C168.873 113.5 169.098 114.675 169.673 115.475C170.323 116.425 171.423 116.85 172.523 116.85ZM192.956 109.05L190.206 109.725C190.006 109.1 189.481 108.475 188.881 108.175C188.406 107.925 187.831 107.775 187.206 107.775C186.556 107.775 185.956 107.9 185.506 108.125C185.031 108.4 184.831 108.75 184.831 109.075C184.831 109.325 184.906 109.525 185.031 109.675C185.306 109.975 185.806 110.2 186.581 110.425C187.256 110.625 188.081 110.825 188.906 111.05C189.981 111.375 190.706 111.575 191.556 112.275C192.606 113.125 193.156 114.2 193.056 115.5C192.956 116.725 192.256 117.8 191.206 118.475C190.131 119.175 188.806 119.375 187.456 119.375C185.631 119.375 184.031 118.875 182.831 117.6C182.156 116.825 181.506 115.425 181.406 114.625L184.106 113.975C184.131 114.525 184.406 115.325 184.856 115.775C185.531 116.525 186.481 116.7 187.431 116.7C188.181 116.7 189.181 116.55 189.656 116.175C190.006 115.9 190.131 115.625 190.206 115.25C190.206 114.9 190.106 114.6 189.831 114.325C189.456 113.975 188.881 113.775 188.181 113.575C187.481 113.375 186.756 113.2 185.931 112.975C184.806 112.675 184.006 112.375 183.281 111.775C182.381 111.1 181.956 110.05 181.956 109.125C181.956 107.55 182.981 106.25 184.331 105.65C185.356 105.2 186.331 105.1 187.256 105.125C188.181 105.125 189.206 105.325 190.106 105.8C191.431 106.45 192.481 107.675 192.956 109.05Z" fill="white"/>
<rect x="28" y="35" width="52" height="52" rx="5" fill="#14131F"/>
<path d="M60.6693 48.084C60.6693 50.1507 58.9859 51.834 56.9193 51.834H51.0859C50.0526 51.834 49.1193 51.4173 48.4359 50.734C47.7526 50.0507 47.3359 49.1173 47.3359 48.084C47.3359 46.0173 49.0193 44.334 51.0859 44.334H56.9193C57.9526 44.334 58.8859 44.7507 59.5693 45.434C60.2526 46.1173 60.6693 47.0507 60.6693 48.084Z" fill="#515155"/>
<path d="M65.3807 49.3825C64.9974 49.0659 64.5641 48.8159 64.0974 48.6325C63.6141 48.4492 63.1307 48.8325 63.0307 49.3325C62.4641 52.1825 59.9474 54.3325 56.9141 54.3325H51.0807C49.4141 54.3325 47.8474 53.6825 46.6641 52.4992C45.7974 51.6325 45.1974 50.5325 44.9641 49.3492C44.8641 48.8492 44.3641 48.4492 43.8807 48.6492C41.9474 49.4325 40.6641 51.1992 40.6641 54.7492V70.9992C40.6641 75.9992 43.6474 77.6659 47.3307 77.6659H60.6641C64.3474 77.6659 67.3307 75.9992 67.3307 70.9992V54.7492C67.3307 52.0325 66.5807 50.3659 65.3807 49.3825ZM47.3307 61.4159H53.9974C54.6807 61.4159 55.2474 61.9825 55.2474 62.6659C55.2474 63.3492 54.6807 63.9159 53.9974 63.9159H47.3307C46.6474 63.9159 46.0807 63.3492 46.0807 62.6659C46.0807 61.9825 46.6474 61.4159 47.3307 61.4159ZM60.6641 70.5825H47.3307C46.6474 70.5825 46.0807 70.0159 46.0807 69.3325C46.0807 68.6492 46.6474 68.0825 47.3307 68.0825H60.6641C61.3474 68.0825 61.9141 68.6492 61.9141 69.3325C61.9141 70.0159 61.3474 70.5825 60.6641 70.5825Z" fill="#515155"/>
</svg>
