<svg width="390" height="240" viewBox="0 0 390 240" fill="none" xmlns="http://www.w3.org/2000/svg">
<rect x="0.5" y="0.5" width="389" height="239" rx="14.5" fill="#0E0D18" stroke="#43424B"/>
<path d="M38.0167 144.05C38.5 144.983 38.6833 146 38.7 146.983C38.6833 147.983 38.5 149.017 38.0167 149.933C37.0667 151.783 35.1167 153 33.0333 153H29.3333V141H33.0333C35.1167 141 37.0667 142.2 38.0167 144.05ZM36.8 149.3C37.15 148.6 37.3167 147.817 37.3 146.983C37.3 146.183 37.15 145.383 36.8 144.683C36.0667 143.233 34.6167 142.3 32.95 142.3L30.7 142.283V151.683H32.95C34.5667 151.683 36.0667 150.767 36.8 149.3ZM41.6594 146.267L40.4094 145.683C40.476 145.567 40.576 145.4 40.676 145.283C41.4594 144.233 42.626 143.767 43.976 143.767C45.626 143.767 46.976 144.367 47.626 145.767C47.876 146.283 47.976 146.85 47.976 147.367V153H46.776V151.217C46.4427 151.867 45.8094 152.417 45.1927 152.717C44.4594 153.083 43.676 153.267 42.876 153.217C41.976 153.183 41.0427 152.717 40.5594 152.017C40.2094 151.483 40.026 151 40.026 150.367C40.026 149.417 40.526 148.583 41.3427 148.083C42.326 147.55 43.3094 147.467 44.7094 147.25L46.576 147C46.4927 146.433 46.2427 145.933 45.8094 145.6C45.326 145.2 44.6427 145.05 43.9594 145.05C43.126 145.05 42.3427 145.333 41.876 145.967C41.7927 146.067 41.726 146.167 41.6594 146.267ZM46.626 148.15C45.9594 148.25 45.3594 148.35 44.4427 148.5C42.9927 148.717 41.4094 148.983 41.3927 150.3C41.376 151.133 42.1094 151.883 43.0594 151.967C44.2427 152.083 45.7427 151.4 46.276 150.217C46.626 149.483 46.626 148.9 46.626 148.15ZM52.5021 145.133V149.6C52.5021 150.35 52.4854 150.8 52.7021 151.183C52.8854 151.583 53.3021 151.817 53.7521 151.85C54.2188 151.9 54.7688 151.883 55.2354 151.8V153C54.6354 153.15 53.8021 153.183 53.2188 153.067C52.4188 152.917 51.8021 152.55 51.4688 151.867C51.1521 151.233 51.1521 150.533 51.1521 149.667V145.133H49.1354V144H51.1521V141.5H52.5021V144H55.2354V145.133H52.5021ZM58.3625 146.267L57.1125 145.683C57.1792 145.567 57.2792 145.4 57.3792 145.283C58.1625 144.233 59.3292 143.767 60.6792 143.767C62.3292 143.767 63.6792 144.367 64.3292 145.767C64.5792 146.283 64.6792 146.85 64.6792 147.367V153H63.4792V151.217C63.1458 151.867 62.5125 152.417 61.8958 152.717C61.1625 153.083 60.3792 153.267 59.5792 153.217C58.6792 153.183 57.7458 152.717 57.2625 152.017C56.9125 151.483 56.7292 151 56.7292 150.367C56.7292 149.417 57.2292 148.583 58.0458 148.083C59.0292 147.55 60.0125 147.467 61.4125 147.25L63.2792 147C63.1958 146.433 62.9458 145.933 62.5125 145.6C62.0292 145.2 61.3458 145.05 60.6625 145.05C59.8292 145.05 59.0458 145.333 58.5792 145.967C58.4958 146.067 58.4292 146.167 58.3625 146.267ZM63.3292 148.15C62.6625 148.25 62.0625 148.35 61.1458 148.5C59.6958 148.717 58.1125 148.983 58.0958 150.3C58.0792 151.133 58.8125 151.883 59.7625 151.967C60.9458 152.083 62.4458 151.4 62.9792 150.217C63.3292 149.483 63.3292 148.9 63.3292 148.15ZM70.724 141H72.074V142.45H70.724V141ZM70.724 144H72.074V153H70.724V144ZM81.6063 146.367L80.2729 146.683C80.0729 146.133 79.6563 145.617 79.1396 145.35C78.7563 145.15 78.2896 145.05 77.8063 145.05C77.3229 145.033 76.8563 145.117 76.4729 145.3C76.0729 145.517 75.8063 145.867 75.8063 146.233C75.8063 146.5 75.8896 146.717 76.0896 146.917C76.3063 147.133 76.6229 147.283 77.2229 147.45C77.6729 147.583 78.2396 147.733 78.9396 147.917C79.6063 148.1 80.1563 148.3 80.6896 148.75C81.3729 149.3 81.6896 149.967 81.6229 150.767C81.5563 151.533 81.1229 152.233 80.4729 152.65C79.7729 153.1 78.8563 153.233 77.9563 153.233C76.7729 153.233 75.7063 152.9 74.9396 152.083C74.4229 151.5 74.1063 150.667 73.9896 150.05L75.3063 149.733C75.3729 150.233 75.5729 150.8 75.9229 151.2C76.4396 151.767 77.2063 151.95 77.9396 151.95C78.5563 151.95 79.3063 151.817 79.7229 151.533C80.0396 151.3 80.1896 151 80.2396 150.65C80.2729 150.3 80.1396 149.983 79.8563 149.75C79.5729 149.483 79.2229 149.35 78.5563 149.15C78.1063 149.017 77.6063 148.883 76.9896 148.717C76.3063 148.533 75.7396 148.35 75.2229 147.933C74.6563 147.5 74.4062 146.85 74.4062 146.25C74.4062 145.3 75.0729 144.483 75.9063 144.1C76.5563 143.817 77.2063 143.733 77.8396 143.75C78.4563 143.75 79.1396 143.883 79.7396 144.183C80.5896 144.633 81.3396 145.483 81.6063 146.367ZM88.0708 148.867C88.1042 149.633 88.2875 150.383 88.7208 150.95C89.2042 151.617 90.0375 151.967 90.9042 151.967C91.7708 151.967 92.5875 151.617 93.0875 150.95C93.2042 150.783 93.2875 150.633 93.3708 150.467L94.7042 151.05C94.5708 151.3 94.4042 151.567 94.2042 151.8C93.4208 152.767 92.1708 153.283 90.9042 153.25C89.6208 153.217 88.4042 152.75 87.6208 151.783C86.8708 150.833 86.6042 149.65 86.6042 148.5C86.6208 147.317 86.8708 146.167 87.6208 145.217C88.4208 144.233 89.6042 143.75 90.9042 143.75C92.2042 143.75 93.3875 144.233 94.1708 145.217C94.9208 146.167 95.1875 147.333 95.1875 148.5C95.1875 148.617 95.1875 148.75 95.1708 148.867H88.0708ZM90.9042 145.033C90.0375 145.033 89.2042 145.383 88.7208 146.05C88.3708 146.517 88.1708 147.117 88.1042 147.733H93.7042C93.6375 147.117 93.4375 146.517 93.0875 146.05C92.5875 145.383 91.7708 145.033 90.9042 145.033ZM103.363 144.533C104.596 145.483 104.812 146.917 104.796 148.567V153H103.429V148.567C103.429 147.283 103.296 146.217 102.429 145.567C101.979 145.233 101.396 145.067 100.729 145.1C100.179 145.117 99.6458 145.3 99.2458 145.65C98.8292 146.017 98.5625 146.55 98.4458 147.15C98.3625 147.517 98.3458 147.95 98.3458 148.383V153H96.9792V144H98.1958V145.017C98.2792 144.917 98.3792 144.817 98.4792 144.717C99.1458 144.117 100.029 143.817 100.846 143.783C101.729 143.733 102.646 144 103.363 144.533ZM114.357 146L113.091 146.55C113.007 146.367 112.891 146.2 112.791 146.05C112.291 145.367 111.474 145.033 110.591 145.033C109.741 145.033 108.907 145.367 108.424 146.05C107.907 146.717 107.757 147.617 107.741 148.5C107.757 149.383 107.907 150.283 108.424 150.95C108.907 151.617 109.741 151.95 110.591 151.95C111.474 151.95 112.291 151.617 112.791 150.95C112.891 150.8 112.991 150.633 113.074 150.467L114.357 151.033C114.207 151.283 114.057 151.533 113.874 151.767C113.091 152.75 111.891 153.25 110.591 153.25C109.307 153.25 108.107 152.767 107.324 151.767C106.574 150.833 106.324 149.65 106.307 148.5C106.324 147.333 106.574 146.167 107.324 145.217C108.141 144.2 109.307 143.75 110.591 143.75C111.891 143.75 113.074 144.233 113.874 145.217C114.057 145.467 114.224 145.717 114.357 146ZM120.138 143.75C120.571 143.75 120.988 143.8 121.388 143.933V145.217C121.004 145.083 120.538 145 120.038 145.033C119.338 145.05 118.721 145.283 118.304 145.7C117.504 146.45 117.471 147.433 117.471 148.65V153H116.104V144H117.321V145.333C117.504 145.017 117.754 144.733 118.088 144.467C118.671 143.983 119.421 143.767 120.138 143.75ZM129.464 144.017H130.83L126.73 154.7C126.397 155.6 125.997 156.233 125.497 156.583C125.014 156.95 124.464 157 123.847 157L123.63 156.983V155.683L123.914 155.717C124.247 155.733 124.597 155.7 124.83 155.517C125.18 155.283 125.414 154.733 125.98 153.25L122.13 144H123.53L126.614 151.517L129.464 144.017ZM139.55 145.2C140.267 146.117 140.533 147.317 140.533 148.483C140.533 149.667 140.3 150.85 139.55 151.8C138.8 152.75 137.667 153.25 136.433 153.25C135.267 153.25 134.25 152.833 133.533 152.05V157H132.167V144H133.383V145.133C134.1 144.25 135.25 143.75 136.45 143.75C137.683 143.75 138.817 144.267 139.55 145.2ZM138.45 150.95C138.933 150.317 139.1 149.417 139.1 148.483C139.1 147.567 138.917 146.667 138.45 146.017C137.95 145.317 137.133 145 136.233 145C135.383 145 134.6 145.3 134.1 145.95C133.583 146.6 133.383 147.55 133.383 148.483C133.383 149.433 133.583 150.383 134.1 151.033C134.6 151.667 135.417 152 136.267 152C137.117 152 137.95 151.65 138.45 150.95ZM144.736 145.133V149.6C144.736 150.35 144.72 150.8 144.936 151.183C145.12 151.583 145.536 151.817 145.986 151.85C146.453 151.9 147.003 151.883 147.47 151.8V153C146.87 153.15 146.036 153.183 145.453 153.067C144.653 152.917 144.036 152.55 143.703 151.867C143.386 151.233 143.386 150.533 143.386 149.667V145.133H141.37V144H143.386V141.5H144.736V144H147.47V145.133H144.736ZM150.43 148.867C150.464 149.633 150.647 150.383 151.08 150.95C151.564 151.617 152.397 151.967 153.264 151.967C154.13 151.967 154.947 151.617 155.447 150.95C155.564 150.783 155.647 150.633 155.73 150.467L157.064 151.05C156.93 151.3 156.764 151.567 156.564 151.8C155.78 152.767 154.53 153.283 153.264 153.25C151.98 153.217 150.764 152.75 149.98 151.783C149.23 150.833 148.964 149.65 148.964 148.5C148.98 147.317 149.23 146.167 149.98 145.217C150.78 144.233 151.964 143.75 153.264 143.75C154.564 143.75 155.747 144.233 156.53 145.217C157.28 146.167 157.547 147.333 157.547 148.5C157.547 148.617 157.547 148.75 157.53 148.867H150.43ZM153.264 145.033C152.397 145.033 151.564 145.383 151.08 146.05C150.73 146.517 150.53 147.117 150.464 147.733H156.064C155.997 147.117 155.797 146.517 155.447 146.05C154.947 145.383 154.13 145.033 153.264 145.033ZM165.902 141H167.252V153H166.052V151.85C165.352 152.767 164.252 153.25 163.002 153.25C161.769 153.25 160.635 152.75 159.885 151.8C159.135 150.85 158.885 149.667 158.885 148.483C158.885 147.317 159.152 146.117 159.885 145.2C160.602 144.267 161.752 143.75 162.969 143.75C164.102 143.75 165.169 144.183 165.902 144.967V141ZM165.319 151.033C165.852 150.383 166.052 149.433 166.052 148.483C166.052 147.55 165.852 146.6 165.319 145.95C164.835 145.3 164.035 145 163.185 145C162.285 145 161.485 145.317 160.985 146.017C160.502 146.667 160.319 147.567 160.319 148.483C160.319 149.417 160.485 150.317 160.969 150.95C161.469 151.65 162.302 152 163.152 152C164.019 152 164.819 151.667 165.319 151.033ZM173.49 141H174.84V142.45H173.49V141ZM173.49 144H174.84V153H173.49V144ZM183.722 144.533C184.955 145.483 185.172 146.917 185.155 148.567V153H183.789V148.567C183.789 147.283 183.655 146.217 182.789 145.567C182.339 145.233 181.755 145.067 181.089 145.1C180.539 145.117 180.005 145.3 179.605 145.65C179.189 146.017 178.922 146.55 178.805 147.15C178.722 147.517 178.705 147.95 178.705 148.383V153H177.339V144H178.555V145.017C178.639 144.917 178.739 144.817 178.839 144.717C179.505 144.117 180.389 143.817 181.205 143.783C182.089 143.733 183.005 144 183.722 144.533ZM193.252 145.133V149.6C193.252 150.35 193.235 150.8 193.452 151.183C193.635 151.583 194.052 151.817 194.502 151.85C194.969 151.9 195.519 151.883 195.985 151.8V153C195.385 153.15 194.552 153.183 193.969 153.067C193.169 152.917 192.552 152.55 192.219 151.867C191.902 151.233 191.902 150.533 191.902 149.667V145.133H189.885V144H191.902V141.5H193.252V144H195.985V145.133H193.252ZM202.013 143.75C202.446 143.75 202.863 143.8 203.263 143.933V145.217C202.879 145.083 202.413 145 201.913 145.033C201.213 145.05 200.596 145.283 200.179 145.7C199.379 146.45 199.346 147.433 199.346 148.65V153H197.979V144H199.196V145.333C199.379 145.017 199.629 144.733 199.963 144.467C200.546 143.983 201.296 143.767 202.013 143.75ZM205.644 146.267L204.394 145.683C204.46 145.567 204.56 145.4 204.66 145.283C205.444 144.233 206.61 143.767 207.96 143.767C209.61 143.767 210.96 144.367 211.61 145.767C211.86 146.283 211.96 146.85 211.96 147.367V153H210.76V151.217C210.427 151.867 209.794 152.417 209.177 152.717C208.444 153.083 207.66 153.267 206.86 153.217C205.96 153.183 205.027 152.717 204.544 152.017C204.194 151.483 204.01 151 204.01 150.367C204.01 149.417 204.51 148.583 205.327 148.083C206.31 147.55 207.294 147.467 208.694 147.25L210.56 147C210.477 146.433 210.227 145.933 209.794 145.6C209.31 145.2 208.627 145.05 207.944 145.05C207.11 145.05 206.327 145.333 205.86 145.967C205.777 146.067 205.71 146.167 205.644 146.267ZM210.61 148.15C209.944 148.25 209.344 148.35 208.427 148.5C206.977 148.717 205.394 148.983 205.377 150.3C205.36 151.133 206.094 151.883 207.044 151.967C208.227 152.083 209.727 151.4 210.26 150.217C210.61 149.483 210.61 148.9 210.61 148.15ZM220.503 144.533C221.736 145.483 221.953 146.917 221.936 148.567V153H220.57V148.567C220.57 147.283 220.436 146.217 219.57 145.567C219.12 145.233 218.536 145.067 217.87 145.1C217.32 145.117 216.786 145.3 216.386 145.65C215.97 146.017 215.703 146.55 215.586 147.15C215.503 147.517 215.486 147.95 215.486 148.383V153H214.12V144H215.336V145.017C215.42 144.917 215.52 144.817 215.62 144.717C216.286 144.117 217.17 143.817 217.986 143.783C218.87 143.733 219.786 144 220.503 144.533ZM230.981 146.367L229.648 146.683C229.448 146.133 229.031 145.617 228.515 145.35C228.131 145.15 227.665 145.05 227.181 145.05C226.698 145.033 226.231 145.117 225.848 145.3C225.448 145.517 225.181 145.867 225.181 146.233C225.181 146.5 225.265 146.717 225.465 146.917C225.681 147.133 225.998 147.283 226.598 147.45C227.048 147.583 227.615 147.733 228.315 147.917C228.981 148.1 229.531 148.3 230.065 148.75C230.748 149.3 231.065 149.967 230.998 150.767C230.931 151.533 230.498 152.233 229.848 152.65C229.148 153.1 228.231 153.233 227.331 153.233C226.148 153.233 225.081 152.9 224.315 152.083C223.798 151.5 223.481 150.667 223.365 150.05L224.681 149.733C224.748 150.233 224.948 150.8 225.298 151.2C225.815 151.767 226.581 151.95 227.315 151.95C227.931 151.95 228.681 151.817 229.098 151.533C229.415 151.3 229.565 151 229.615 150.65C229.648 150.3 229.515 149.983 229.231 149.75C228.948 149.483 228.598 149.35 227.931 149.15C227.481 149.017 226.981 148.883 226.365 148.717C225.681 148.533 225.115 148.35 224.598 147.933C224.031 147.5 223.781 146.85 223.781 146.25C223.781 145.3 224.448 144.483 225.281 144.1C225.931 143.817 226.581 143.733 227.215 143.75C227.831 143.75 228.515 143.883 229.115 144.183C229.965 144.633 230.715 145.483 230.981 146.367ZM232.927 141H234.277V142.45H232.927V141ZM232.927 144H234.277V153H232.927V144ZM239.143 145.133V149.6C239.143 150.35 239.126 150.8 239.343 151.183C239.526 151.583 239.943 151.817 240.393 151.85C240.859 151.9 241.409 151.883 241.876 151.8V153C241.276 153.15 240.443 153.183 239.859 153.067C239.059 152.917 238.443 152.55 238.109 151.867C237.793 151.233 237.793 150.533 237.793 149.667V145.133H235.776V144H237.793V141.5H239.143V144H241.876V145.133H239.143ZM248.722 146.267L247.472 145.683C247.539 145.567 247.639 145.4 247.739 145.283C248.522 144.233 249.689 143.767 251.039 143.767C252.689 143.767 254.039 144.367 254.689 145.767C254.939 146.283 255.039 146.85 255.039 147.367V153H253.839V151.217C253.505 151.867 252.872 152.417 252.255 152.717C251.522 153.083 250.739 153.267 249.939 153.217C249.039 153.183 248.105 152.717 247.622 152.017C247.272 151.483 247.089 151 247.089 150.367C247.089 149.417 247.589 148.583 248.405 148.083C249.389 147.55 250.372 147.467 251.772 147.25L253.639 147C253.555 146.433 253.305 145.933 252.872 145.6C252.389 145.2 251.705 145.05 251.022 145.05C250.189 145.05 249.405 145.333 248.939 145.967C248.855 146.067 248.789 146.167 248.722 146.267ZM253.689 148.15C253.022 148.25 252.422 148.35 251.505 148.5C250.055 148.717 248.472 148.983 248.455 150.3C248.439 151.133 249.172 151.883 250.122 151.967C251.305 152.083 252.805 151.4 253.339 150.217C253.689 149.483 253.689 148.9 253.689 148.15ZM263.581 144.533C264.815 145.483 265.031 146.917 265.015 148.567V153H263.648V148.567C263.648 147.283 263.515 146.217 262.648 145.567C262.198 145.233 261.615 145.067 260.948 145.1C260.398 145.117 259.865 145.3 259.465 145.65C259.048 146.017 258.781 146.55 258.665 147.15C258.581 147.517 258.565 147.95 258.565 148.383V153H257.198V144H258.415V145.017C258.498 144.917 258.598 144.817 258.698 144.717C259.365 144.117 260.248 143.817 261.065 143.783C261.948 143.733 262.865 144 263.581 144.533ZM273.543 141H274.893V153H273.693V151.85C272.993 152.767 271.893 153.25 270.643 153.25C269.409 153.25 268.276 152.75 267.526 151.8C266.776 150.85 266.526 149.667 266.526 148.483C266.526 147.317 266.793 146.117 267.526 145.2C268.243 144.267 269.393 143.75 270.609 143.75C271.743 143.75 272.809 144.183 273.543 144.967V141ZM272.959 151.033C273.493 150.383 273.693 149.433 273.693 148.483C273.693 147.55 273.493 146.6 272.959 145.95C272.476 145.3 271.676 145 270.826 145C269.926 145 269.126 145.317 268.626 146.017C268.143 146.667 267.959 147.567 267.959 148.483C267.959 149.417 268.126 150.317 268.609 150.95C269.109 151.65 269.943 152 270.793 152C271.659 152 272.459 151.667 272.959 151.033ZM282.097 146.267L280.847 145.683C280.914 145.567 281.014 145.4 281.114 145.283C281.897 144.233 283.064 143.767 284.414 143.767C286.064 143.767 287.414 144.367 288.064 145.767C288.314 146.283 288.414 146.85 288.414 147.367V153H287.214V151.217C286.88 151.867 286.247 152.417 285.63 152.717C284.897 153.083 284.114 153.267 283.314 153.217C282.414 153.183 281.48 152.717 280.997 152.017C280.647 151.483 280.464 151 280.464 150.367C280.464 149.417 280.964 148.583 281.78 148.083C282.764 147.55 283.747 147.467 285.147 147.25L287.014 147C286.93 146.433 286.68 145.933 286.247 145.6C285.764 145.2 285.08 145.05 284.397 145.05C283.564 145.05 282.78 145.333 282.314 145.967C282.23 146.067 282.164 146.167 282.097 146.267ZM287.064 148.15C286.397 148.25 285.797 148.35 284.88 148.5C283.43 148.717 281.847 148.983 281.83 150.3C281.814 151.133 282.547 151.883 283.497 151.967C284.68 152.083 286.18 151.4 286.714 150.217C287.064 149.483 287.064 148.9 287.064 148.15ZM292.94 145.133V149.6C292.94 150.35 292.923 150.8 293.14 151.183C293.323 151.583 293.74 151.817 294.19 151.85C294.656 151.9 295.206 151.883 295.673 151.8V153C295.073 153.15 294.24 153.183 293.656 153.067C292.856 152.917 292.24 152.55 291.906 151.867C291.59 151.233 291.59 150.533 291.59 149.667V145.133H289.573V144H291.59V141.5H292.94V144H295.673V145.133H292.94ZM305.419 143.75C305.852 143.75 306.269 143.8 306.669 143.933V145.217C306.285 145.083 305.819 145 305.319 145.033C304.619 145.05 304.002 145.283 303.585 145.7C302.785 146.45 302.752 147.433 302.752 148.65V153H301.385V144H302.602V145.333C302.785 145.017 303.035 144.733 303.369 144.467C303.952 143.983 304.702 143.767 305.419 143.75ZM308.961 148.867C308.995 149.633 309.178 150.383 309.611 150.95C310.095 151.617 310.928 151.967 311.795 151.967C312.661 151.967 313.478 151.617 313.978 150.95C314.095 150.783 314.178 150.633 314.261 150.467L315.595 151.05C315.461 151.3 315.295 151.567 315.095 151.8C314.311 152.767 313.061 153.283 311.795 153.25C310.511 153.217 309.295 152.75 308.511 151.783C307.761 150.833 307.495 149.65 307.495 148.5C307.511 147.317 307.761 146.167 308.511 145.217C309.311 144.233 310.495 143.75 311.795 143.75C313.095 143.75 314.278 144.233 315.061 145.217C315.811 146.167 316.078 147.333 316.078 148.5C316.078 148.617 316.078 148.75 316.061 148.867H308.961ZM311.795 145.033C310.928 145.033 310.095 145.383 309.611 146.05C309.261 146.517 309.061 147.117 308.995 147.733H314.595C314.528 147.117 314.328 146.517 313.978 146.05C313.478 145.383 312.661 145.033 311.795 145.033ZM324.716 146.367L323.382 146.683C323.182 146.133 322.766 145.617 322.249 145.35C321.866 145.15 321.399 145.05 320.916 145.05C320.432 145.033 319.966 145.117 319.582 145.3C319.182 145.517 318.916 145.867 318.916 146.233C318.916 146.5 318.999 146.717 319.199 146.917C319.416 147.133 319.732 147.283 320.332 147.45C320.782 147.583 321.349 147.733 322.049 147.917C322.716 148.1 323.266 148.3 323.799 148.75C324.482 149.3 324.799 149.967 324.732 150.767C324.666 151.533 324.232 152.233 323.582 152.65C322.882 153.1 321.966 153.233 321.066 153.233C319.882 153.233 318.816 152.9 318.049 152.083C317.532 151.5 317.216 150.667 317.099 150.05L318.416 149.733C318.482 150.233 318.682 150.8 319.032 151.2C319.549 151.767 320.316 151.95 321.049 151.95C321.666 151.95 322.416 151.817 322.832 151.533C323.149 151.3 323.299 151 323.349 150.65C323.382 150.3 323.249 149.983 322.966 149.75C322.682 149.483 322.332 149.35 321.666 149.15C321.216 149.017 320.716 148.883 320.099 148.717C319.416 148.533 318.849 148.35 318.332 147.933C317.766 147.5 317.516 146.85 317.516 146.25C317.516 145.3 318.182 144.483 319.016 144.1C319.666 143.817 320.316 143.733 320.949 143.75C321.566 143.75 322.249 143.883 322.849 144.183C323.699 144.633 324.449 145.483 324.716 146.367ZM328.861 145.133V149.6C328.861 150.35 328.845 150.8 329.061 151.183C329.245 151.583 329.661 151.817 330.111 151.85C330.578 151.9 331.128 151.883 331.595 151.8V153C330.995 153.15 330.161 153.183 329.578 153.067C328.778 152.917 328.161 152.55 327.828 151.867C327.511 151.233 327.511 150.533 327.511 149.667V145.133H325.495V144H327.511V141.5H328.861V144H331.595V145.133H328.861ZM334.955 153.3C334.955 154.35 334.439 154.983 333.422 154.8L333.505 154.15C334.189 154.2 334.272 153.65 334.222 153H333.422V151.183H334.955V153.3ZM29.3333 167H30.6833V168.45H29.3333V167ZM29.3333 170H30.6833V179H29.3333V170ZM39.5656 170.533C40.799 171.483 41.0156 172.917 40.999 174.567V179H39.6323V174.567C39.6323 173.283 39.499 172.217 38.6323 171.567C38.1823 171.233 37.599 171.067 36.9323 171.1C36.3823 171.117 35.849 171.3 35.449 171.65C35.0323 172.017 34.7656 172.55 34.649 173.15C34.5656 173.517 34.549 173.95 34.549 174.383V179H33.1823V170H34.399V171.017C34.4823 170.917 34.5823 170.817 34.6823 170.717C35.349 170.117 36.2323 169.817 37.049 169.783C37.9323 169.733 38.849 170 39.5656 170.533ZM50.5604 172L49.2938 172.55C49.2104 172.367 49.0938 172.2 48.9938 172.05C48.4938 171.367 47.6771 171.033 46.7938 171.033C45.9438 171.033 45.1104 171.367 44.6271 172.05C44.1104 172.717 43.9604 173.617 43.9438 174.5C43.9604 175.383 44.1104 176.283 44.6271 176.95C45.1104 177.617 45.9438 177.95 46.7938 177.95C47.6771 177.95 48.4938 177.617 48.9938 176.95C49.0938 176.8 49.1938 176.633 49.2771 176.467L50.5604 177.033C50.4104 177.283 50.2604 177.533 50.0771 177.767C49.2938 178.75 48.0938 179.25 46.7938 179.25C45.5104 179.25 44.3104 178.767 43.5271 177.767C42.7771 176.833 42.5271 175.65 42.5104 174.5C42.5271 173.333 42.7771 172.167 43.5271 171.217C44.3438 170.2 45.5104 169.75 46.7938 169.75C48.0938 169.75 49.2771 170.233 50.0771 171.217C50.2604 171.467 50.4271 171.717 50.5604 172ZM52.3073 179V166.75H53.6573V179H52.3073ZM62.1281 170H63.4781V179H62.2781V177.967C62.1948 178.067 62.0948 178.183 61.9781 178.283C61.3281 178.883 60.4448 179.183 59.6115 179.217C58.7448 179.267 57.8115 179 57.0948 178.467C55.8615 177.517 55.6448 176.083 55.6615 174.433V170H57.0281V174.433C57.0281 175.717 57.1781 176.783 58.0281 177.417C58.4781 177.767 59.0615 177.917 59.7281 177.9C60.2948 177.883 60.8115 177.7 61.2115 177.333C61.6281 176.983 61.9115 176.45 62.0115 175.85C62.1281 175.3 62.1281 174.633 62.1281 173.95V173.933V170ZM72.324 167H73.674V179H72.474V177.85C71.774 178.767 70.674 179.25 69.424 179.25C68.1906 179.25 67.0573 178.75 66.3073 177.8C65.5573 176.85 65.3073 175.667 65.3073 174.483C65.3073 173.317 65.574 172.117 66.3073 171.2C67.024 170.267 68.174 169.75 69.3906 169.75C70.524 169.75 71.5906 170.183 72.324 170.967V167ZM71.7406 177.033C72.274 176.383 72.474 175.433 72.474 174.483C72.474 173.55 72.274 172.6 71.7406 171.95C71.2573 171.3 70.4573 171 69.6073 171C68.7073 171 67.9073 171.317 67.4073 172.017C66.924 172.667 66.7406 173.567 66.7406 174.483C66.7406 175.417 66.9073 176.317 67.3906 176.95C67.8906 177.65 68.724 178 69.574 178C70.4406 178 71.2406 177.667 71.7406 177.033ZM76.1927 167H77.5427V168.45H76.1927V167ZM76.1927 170H77.5427V179H76.1927V170ZM86.425 170.533C87.6583 171.483 87.875 172.917 87.8583 174.567V179H86.4917V174.567C86.4917 173.283 86.3583 172.217 85.4917 171.567C85.0417 171.233 84.4583 171.067 83.7917 171.1C83.2417 171.117 82.7083 171.3 82.3083 171.65C81.8917 172.017 81.625 172.55 81.5083 173.15C81.425 173.517 81.4083 173.95 81.4083 174.383V179H80.0417V170H81.2583V171.017C81.3417 170.917 81.4417 170.817 81.5417 170.717C82.2083 170.117 83.0917 169.817 83.9083 169.783C84.7917 169.733 85.7083 170 86.425 170.533ZM96.5365 170H97.7365V178.967C97.7365 180.667 97.3698 181.633 96.3365 182.4C95.4698 183.033 94.4698 183.25 93.5531 183.25C92.5531 183.25 91.5531 182.9 90.9031 182.217C90.5531 181.983 90.2031 181.65 89.9865 181.267L91.2365 180.667C91.3365 180.833 91.4531 180.983 91.5865 181.117C92.0698 181.667 92.8365 181.933 93.5531 181.933C94.3031 181.933 95.0698 181.733 95.6031 181.3C96.2365 180.75 96.3865 180.167 96.3698 178.95V178.05C95.6698 178.85 94.6365 179.25 93.4865 179.25C92.2531 179.25 91.1198 178.75 90.3698 177.8C89.6198 176.85 89.3698 175.667 89.3698 174.483C89.3698 173.317 89.6365 172.117 90.3698 171.2C91.0865 170.267 92.2365 169.75 93.4531 169.75C94.6531 169.75 95.8031 170.25 96.5365 171.133V170ZM95.8031 177.033C96.3365 176.383 96.5365 175.433 96.5365 174.483C96.5365 173.55 96.3365 172.6 95.8031 171.95C95.3198 171.3 94.5198 171 93.6698 171C92.7698 171 91.9698 171.317 91.4698 172.017C90.9865 172.667 90.8031 173.567 90.8031 174.483C90.8031 175.417 90.9698 176.317 91.4531 176.95C91.9531 177.65 92.7865 178 93.6365 178C94.5031 178 95.3031 177.667 95.8031 177.033ZM111.342 172L110.075 172.55C109.992 172.367 109.875 172.2 109.775 172.05C109.275 171.367 108.458 171.033 107.575 171.033C106.725 171.033 105.892 171.367 105.408 172.05C104.892 172.717 104.742 173.617 104.725 174.5C104.742 175.383 104.892 176.283 105.408 176.95C105.892 177.617 106.725 177.95 107.575 177.95C108.458 177.95 109.275 177.617 109.775 176.95C109.875 176.8 109.975 176.633 110.058 176.467L111.342 177.033C111.192 177.283 111.042 177.533 110.858 177.767C110.075 178.75 108.875 179.25 107.575 179.25C106.292 179.25 105.092 178.767 104.308 177.767C103.558 176.833 103.308 175.65 103.292 174.5C103.308 173.333 103.558 172.167 104.308 171.217C105.125 170.2 106.292 169.75 107.575 169.75C108.875 169.75 110.058 170.233 110.858 171.217C111.042 171.467 111.208 171.717 111.342 172ZM114.222 172.267L112.972 171.683C113.039 171.567 113.139 171.4 113.239 171.283C114.022 170.233 115.189 169.767 116.539 169.767C118.189 169.767 119.539 170.367 120.189 171.767C120.439 172.283 120.539 172.85 120.539 173.367V179H119.339V177.217C119.005 177.867 118.372 178.417 117.755 178.717C117.022 179.083 116.239 179.267 115.439 179.217C114.539 179.183 113.605 178.717 113.122 178.017C112.772 177.483 112.589 177 112.589 176.367C112.589 175.417 113.089 174.583 113.905 174.083C114.889 173.55 115.872 173.467 117.272 173.25L119.139 173C119.055 172.433 118.805 171.933 118.372 171.6C117.889 171.2 117.205 171.05 116.522 171.05C115.689 171.05 114.905 171.333 114.439 171.967C114.355 172.067 114.289 172.167 114.222 172.267ZM119.189 174.15C118.522 174.25 117.922 174.35 117.005 174.5C115.555 174.717 113.972 174.983 113.955 176.3C113.939 177.133 114.672 177.883 115.622 177.967C116.805 178.083 118.305 177.4 118.839 176.217C119.189 175.483 119.189 174.9 119.189 174.15ZM122.698 179V166.75H124.048V179H122.698ZM126.385 179V166.75H127.735V179H126.385ZM137.825 169.75C138.258 169.75 138.675 169.8 139.075 169.933V171.217C138.692 171.083 138.225 171 137.725 171.033C137.025 171.05 136.408 171.283 135.992 171.7C135.192 172.45 135.158 173.433 135.158 174.65V179H133.792V170H135.008V171.333C135.192 171.017 135.442 170.733 135.775 170.467C136.358 169.983 137.108 169.767 137.825 169.75ZM141.368 174.867C141.401 175.633 141.584 176.383 142.018 176.95C142.501 177.617 143.334 177.967 144.201 177.967C145.068 177.967 145.884 177.617 146.384 176.95C146.501 176.783 146.584 176.633 146.668 176.467L148.001 177.05C147.868 177.3 147.701 177.567 147.501 177.8C146.718 178.767 145.468 179.283 144.201 179.25C142.918 179.217 141.701 178.75 140.918 177.783C140.168 176.833 139.901 175.65 139.901 174.5C139.918 173.317 140.168 172.167 140.918 171.217C141.718 170.233 142.901 169.75 144.201 169.75C145.501 169.75 146.684 170.233 147.468 171.217C148.218 172.167 148.484 173.333 148.484 174.5C148.484 174.617 148.484 174.75 148.468 174.867H141.368ZM144.201 171.033C143.334 171.033 142.501 171.383 142.018 172.05C141.668 172.517 141.468 173.117 141.401 173.733H147.001C146.934 173.117 146.734 172.517 146.384 172.05C145.884 171.383 145.068 171.033 144.201 171.033ZM157.873 172L156.606 172.55C156.523 172.367 156.406 172.2 156.306 172.05C155.806 171.367 154.99 171.033 154.106 171.033C153.256 171.033 152.423 171.367 151.94 172.05C151.423 172.717 151.273 173.617 151.256 174.5C151.273 175.383 151.423 176.283 151.94 176.95C152.423 177.617 153.256 177.95 154.106 177.95C154.99 177.95 155.806 177.617 156.306 176.95C156.406 176.8 156.506 176.633 156.59 176.467L157.873 177.033C157.723 177.283 157.573 177.533 157.39 177.767C156.606 178.75 155.406 179.25 154.106 179.25C152.823 179.25 151.623 178.767 150.84 177.767C150.09 176.833 149.84 175.65 149.823 174.5C149.84 173.333 150.09 172.167 150.84 171.217C151.656 170.2 152.823 169.75 154.106 169.75C155.406 169.75 156.59 170.233 157.39 171.217C157.573 171.467 157.74 171.717 157.873 172ZM163.17 179.25C161.87 179.25 160.67 178.767 159.886 177.783C159.136 176.833 158.87 175.667 158.87 174.483C158.87 173.317 159.153 172.133 159.886 171.217C160.653 170.267 161.87 169.75 163.17 169.75C164.453 169.75 165.67 170.233 166.436 171.217C167.22 172.167 167.47 173.333 167.47 174.483C167.47 175.7 167.203 176.817 166.436 177.783C165.653 178.783 164.486 179.25 163.17 179.25ZM165.37 176.95C165.87 176.283 166.036 175.383 166.036 174.483C166.036 173.617 165.87 172.7 165.37 172.033C164.87 171.367 164.036 171.033 163.17 171.033C162.303 171.033 161.47 171.367 160.986 172.033C160.47 172.7 160.303 173.617 160.303 174.483C160.303 175.383 160.47 176.283 160.986 176.95C161.47 177.617 162.303 177.967 163.17 177.967C164.036 177.967 164.87 177.617 165.37 176.95ZM173.341 169.75C173.774 169.75 174.191 169.8 174.591 169.933V171.217C174.207 171.083 173.741 171 173.241 171.033C172.541 171.05 171.924 171.283 171.507 171.7C170.707 172.45 170.674 173.433 170.674 174.65V179H169.307V170H170.524V171.333C170.707 171.017 170.957 170.733 171.291 170.467C171.874 169.983 172.624 169.767 173.341 169.75ZM182.433 167H183.783V179H182.583V177.85C181.883 178.767 180.783 179.25 179.533 179.25C178.3 179.25 177.167 178.75 176.417 177.8C175.667 176.85 175.417 175.667 175.417 174.483C175.417 173.317 175.683 172.117 176.417 171.2C177.133 170.267 178.283 169.75 179.5 169.75C180.633 169.75 181.7 170.183 182.433 170.967V167ZM181.85 177.033C182.383 176.383 182.583 175.433 182.583 174.483C182.583 173.55 182.383 172.6 181.85 171.95C181.367 171.3 180.567 171 179.717 171C178.817 171 178.017 171.317 177.517 172.017C177.033 172.667 176.85 173.567 176.85 174.483C176.85 175.417 177.017 176.317 177.5 176.95C178 177.65 178.833 178 179.683 178C180.55 178 181.35 177.667 181.85 177.033ZM186.302 167H187.652V168.45H186.302V167ZM186.302 170H187.652V179H186.302V170ZM196.534 170.533C197.768 171.483 197.984 172.917 197.968 174.567V179H196.601V174.567C196.601 173.283 196.468 172.217 195.601 171.567C195.151 171.233 194.568 171.067 193.901 171.1C193.351 171.117 192.818 171.3 192.418 171.65C192.001 172.017 191.734 172.55 191.618 173.15C191.534 173.517 191.518 173.95 191.518 174.383V179H190.151V170H191.368V171.017C191.451 170.917 191.551 170.817 191.651 170.717C192.318 170.117 193.201 169.817 194.018 169.783C194.901 169.733 195.818 170 196.534 170.533ZM206.646 170H207.846V178.967C207.846 180.667 207.479 181.633 206.446 182.4C205.579 183.033 204.579 183.25 203.663 183.25C202.663 183.25 201.663 182.9 201.013 182.217C200.663 181.983 200.313 181.65 200.096 181.267L201.346 180.667C201.446 180.833 201.563 180.983 201.696 181.117C202.179 181.667 202.946 181.933 203.663 181.933C204.413 181.933 205.179 181.733 205.713 181.3C206.346 180.75 206.496 180.167 206.479 178.95V178.05C205.779 178.85 204.746 179.25 203.596 179.25C202.363 179.25 201.229 178.75 200.479 177.8C199.729 176.85 199.479 175.667 199.479 174.483C199.479 173.317 199.746 172.117 200.479 171.2C201.196 170.267 202.346 169.75 203.563 169.75C204.763 169.75 205.913 170.25 206.646 171.133V170ZM205.913 177.033C206.446 176.383 206.646 175.433 206.646 174.483C206.646 173.55 206.446 172.6 205.913 171.95C205.429 171.3 204.629 171 203.779 171C202.879 171 202.079 171.317 201.579 172.017C201.096 172.667 200.913 173.567 200.913 174.483C200.913 175.417 201.079 176.317 201.563 176.95C202.063 177.65 202.896 178 203.746 178C204.613 178 205.413 177.667 205.913 177.033ZM217.216 172.367L215.882 172.683C215.682 172.133 215.266 171.617 214.749 171.35C214.366 171.15 213.899 171.05 213.416 171.05C212.932 171.033 212.466 171.117 212.082 171.3C211.682 171.517 211.416 171.867 211.416 172.233C211.416 172.5 211.499 172.717 211.699 172.917C211.916 173.133 212.232 173.283 212.832 173.45C213.282 173.583 213.849 173.733 214.549 173.917C215.216 174.1 215.766 174.3 216.299 174.75C216.982 175.3 217.299 175.967 217.232 176.767C217.166 177.533 216.732 178.233 216.082 178.65C215.382 179.1 214.466 179.233 213.566 179.233C212.382 179.233 211.316 178.9 210.549 178.083C210.032 177.5 209.716 176.667 209.599 176.05L210.916 175.733C210.982 176.233 211.182 176.8 211.532 177.2C212.049 177.767 212.816 177.95 213.549 177.95C214.166 177.95 214.916 177.817 215.332 177.533C215.649 177.3 215.799 177 215.849 176.65C215.882 176.3 215.749 175.983 215.466 175.75C215.182 175.483 214.832 175.35 214.166 175.15C213.716 175.017 213.216 174.883 212.599 174.717C211.916 174.533 211.349 174.35 210.832 173.933C210.266 173.5 210.016 172.85 210.016 172.25C210.016 171.3 210.682 170.483 211.516 170.1C212.166 169.817 212.816 169.733 213.449 169.75C214.066 169.75 214.749 169.883 215.349 170.183C216.199 170.633 216.949 171.483 217.216 172.367ZM223.847 172.267L222.597 171.683C222.664 171.567 222.764 171.4 222.864 171.283C223.647 170.233 224.814 169.767 226.164 169.767C227.814 169.767 229.164 170.367 229.814 171.767C230.064 172.283 230.164 172.85 230.164 173.367V179H228.964V177.217C228.63 177.867 227.997 178.417 227.38 178.717C226.647 179.083 225.864 179.267 225.064 179.217C224.164 179.183 223.23 178.717 222.747 178.017C222.397 177.483 222.214 177 222.214 176.367C222.214 175.417 222.714 174.583 223.53 174.083C224.514 173.55 225.497 173.467 226.897 173.25L228.764 173C228.68 172.433 228.43 171.933 227.997 171.6C227.514 171.2 226.83 171.05 226.147 171.05C225.314 171.05 224.53 171.333 224.064 171.967C223.98 172.067 223.914 172.167 223.847 172.267ZM228.814 174.15C228.147 174.25 227.547 174.35 226.63 174.5C225.18 174.717 223.597 174.983 223.58 176.3C223.564 177.133 224.297 177.883 225.247 177.967C226.43 178.083 227.93 177.4 228.464 176.217C228.814 175.483 228.814 174.9 228.814 174.15ZM238.706 170.533C239.94 171.483 240.156 172.917 240.14 174.567V179H238.773V174.567C238.773 173.283 238.64 172.217 237.773 171.567C237.323 171.233 236.74 171.067 236.073 171.1C235.523 171.117 234.99 171.3 234.59 171.65C234.173 172.017 233.906 172.55 233.79 173.15C233.706 173.517 233.69 173.95 233.69 174.383V179H232.323V170H233.54V171.017C233.623 170.917 233.723 170.817 233.823 170.717C234.49 170.117 235.373 169.817 236.19 169.783C237.073 169.733 237.99 170 238.706 170.533ZM248.668 167H250.018V179H248.818V177.85C248.118 178.767 247.018 179.25 245.768 179.25C244.534 179.25 243.401 178.75 242.651 177.8C241.901 176.85 241.651 175.667 241.651 174.483C241.651 173.317 241.918 172.117 242.651 171.2C243.368 170.267 244.518 169.75 245.734 169.75C246.868 169.75 247.934 170.183 248.668 170.967V167ZM248.084 177.033C248.618 176.383 248.818 175.433 248.818 174.483C248.818 173.55 248.618 172.6 248.084 171.95C247.601 171.3 246.801 171 245.951 171C245.051 171 244.251 171.317 243.751 172.017C243.268 172.667 243.084 173.567 243.084 174.483C243.084 175.417 243.251 176.317 243.734 176.95C244.234 177.65 245.068 178 245.918 178C246.784 178 247.584 177.667 248.084 177.033ZM31.5333 197.133V201.6C31.5333 202.35 31.5167 202.8 31.7333 203.183C31.9167 203.583 32.3333 203.817 32.7833 203.85C33.25 203.9 33.8 203.883 34.2667 203.8V205C33.6667 205.15 32.8333 205.183 32.25 205.067C31.45 204.917 30.8333 204.55 30.5 203.867C30.1833 203.233 30.1833 202.533 30.1833 201.667V197.133H28.1667V196H30.1833V193.5H31.5333V196H34.2667V197.133H31.5333ZM40.2938 195.75C40.7271 195.75 41.1438 195.8 41.5438 195.933V197.217C41.1604 197.083 40.6938 197 40.1938 197.033C39.4938 197.05 38.8771 197.283 38.4604 197.7C37.6604 198.45 37.6271 199.433 37.6271 200.65V205H36.2604V196H37.4771V197.333C37.6604 197.017 37.9104 196.733 38.2438 196.467C38.8271 195.983 39.5771 195.767 40.2938 195.75ZM43.925 198.267L42.675 197.683C42.7417 197.567 42.8417 197.4 42.9417 197.283C43.725 196.233 44.8917 195.767 46.2417 195.767C47.8917 195.767 49.2417 196.367 49.8917 197.767C50.1417 198.283 50.2417 198.85 50.2417 199.367V205H49.0417V203.217C48.7083 203.867 48.075 204.417 47.4583 204.717C46.725 205.083 45.9417 205.267 45.1417 205.217C44.2417 205.183 43.3083 204.717 42.825 204.017C42.475 203.483 42.2917 203 42.2917 202.367C42.2917 201.417 42.7917 200.583 43.6083 200.083C44.5917 199.55 45.575 199.467 46.975 199.25L48.8417 199C48.7583 198.433 48.5083 197.933 48.075 197.6C47.5917 197.2 46.9083 197.05 46.225 197.05C45.3917 197.05 44.6083 197.333 44.1417 197.967C44.0583 198.067 43.9917 198.167 43.925 198.267ZM48.8917 200.15C48.225 200.25 47.625 200.35 46.7083 200.5C45.2583 200.717 43.675 200.983 43.6583 202.3C43.6417 203.133 44.375 203.883 45.325 203.967C46.5083 204.083 48.0083 203.4 48.5417 202.217C48.8917 201.483 48.8917 200.9 48.8917 200.15ZM58.7844 196.533C60.0177 197.483 60.2344 198.917 60.2177 200.567V205H58.851V200.567C58.851 199.283 58.7177 198.217 57.851 197.567C57.401 197.233 56.8177 197.067 56.151 197.1C55.601 197.117 55.0677 197.3 54.6677 197.65C54.251 198.017 53.9844 198.55 53.8677 199.15C53.7844 199.517 53.7677 199.95 53.7677 200.383V205H52.401V196H53.6177V197.017C53.701 196.917 53.801 196.817 53.901 196.717C54.5677 196.117 55.451 195.817 56.2677 195.783C57.151 195.733 58.0677 196 58.7844 196.533ZM69.2625 198.367L67.9292 198.683C67.7292 198.133 67.3125 197.617 66.7958 197.35C66.4125 197.15 65.9458 197.05 65.4625 197.05C64.9792 197.033 64.5125 197.117 64.1292 197.3C63.7292 197.517 63.4625 197.867 63.4625 198.233C63.4625 198.5 63.5458 198.717 63.7458 198.917C63.9625 199.133 64.2792 199.283 64.8792 199.45C65.3292 199.583 65.8958 199.733 66.5958 199.917C67.2625 200.1 67.8125 200.3 68.3458 200.75C69.0292 201.3 69.3458 201.967 69.2792 202.767C69.2125 203.533 68.7792 204.233 68.1292 204.65C67.4292 205.1 66.5125 205.233 65.6125 205.233C64.4292 205.233 63.3625 204.9 62.5958 204.083C62.0792 203.5 61.7625 202.667 61.6458 202.05L62.9625 201.733C63.0292 202.233 63.2292 202.8 63.5792 203.2C64.0958 203.767 64.8625 203.95 65.5958 203.95C66.2125 203.95 66.9625 203.817 67.3792 203.533C67.6958 203.3 67.8458 203 67.8958 202.65C67.9292 202.3 67.7958 201.983 67.5125 201.75C67.2292 201.483 66.8792 201.35 66.2125 201.15C65.7625 201.017 65.2625 200.883 64.6458 200.717C63.9625 200.533 63.3958 200.35 62.8792 199.933C62.3125 199.5 62.0625 198.85 62.0625 198.25C62.0625 197.3 62.7292 196.483 63.5625 196.1C64.2125 195.817 64.8625 195.733 65.4958 195.75C66.1125 195.75 66.7958 195.883 67.3958 196.183C68.2458 196.633 68.9958 197.483 69.2625 198.367ZM78.5917 198L77.325 198.55C77.2417 198.367 77.125 198.2 77.025 198.05C76.525 197.367 75.7083 197.033 74.825 197.033C73.975 197.033 73.1417 197.367 72.6583 198.05C72.1417 198.717 71.9917 199.617 71.975 200.5C71.9917 201.383 72.1417 202.283 72.6583 202.95C73.1417 203.617 73.975 203.95 74.825 203.95C75.7083 203.95 76.525 203.617 77.025 202.95C77.125 202.8 77.225 202.633 77.3083 202.467L78.5917 203.033C78.4417 203.283 78.2917 203.533 78.1083 203.767C77.325 204.75 76.125 205.25 74.825 205.25C73.5417 205.25 72.3417 204.767 71.5583 203.767C70.8083 202.833 70.5583 201.65 70.5417 200.5C70.5583 199.333 70.8083 198.167 71.5583 197.217C72.375 196.2 73.5417 195.75 74.825 195.75C76.125 195.75 77.3083 196.233 78.1083 197.217C78.2917 197.467 78.4583 197.717 78.5917 198ZM84.3719 195.75C84.8052 195.75 85.2219 195.8 85.6219 195.933V197.217C85.2385 197.083 84.7719 197 84.2719 197.033C83.5719 197.05 82.9552 197.283 82.5385 197.7C81.7385 198.45 81.7052 199.433 81.7052 200.65V205H80.3385V196H81.5552V197.333C81.7385 197.017 81.9885 196.733 82.3219 196.467C82.9052 195.983 83.6552 195.767 84.3719 195.75ZM87.3646 193H88.7146V194.45H87.3646V193ZM87.3646 196H88.7146V205H87.3646V196ZM98.5969 197.2C99.3135 198.117 99.5802 199.317 99.5802 200.483C99.5802 201.667 99.3469 202.85 98.5969 203.8C97.8469 204.75 96.7135 205.25 95.4802 205.25C94.3135 205.25 93.2969 204.833 92.5802 204.05V209H91.2135V196H92.4302V197.133C93.1469 196.25 94.2969 195.75 95.4969 195.75C96.7302 195.75 97.8635 196.267 98.5969 197.2ZM97.4969 202.95C97.9802 202.317 98.1469 201.417 98.1469 200.483C98.1469 199.567 97.9635 198.667 97.4969 198.017C96.9969 197.317 96.1802 197 95.2802 197C94.4302 197 93.6469 197.3 93.1469 197.95C92.6302 198.6 92.4302 199.55 92.4302 200.483C92.4302 201.433 92.6302 202.383 93.1469 203.033C93.6469 203.667 94.4635 204 95.3135 204C96.1635 204 96.9969 203.65 97.4969 202.95ZM103.783 197.133V201.6C103.783 202.35 103.767 202.8 103.983 203.183C104.167 203.583 104.583 203.817 105.033 203.85C105.5 203.9 106.05 203.883 106.517 203.8V205C105.917 205.15 105.083 205.183 104.5 205.067C103.7 204.917 103.083 204.55 102.75 203.867C102.433 203.233 102.433 202.533 102.433 201.667V197.133H100.417V196H102.433V193.5H103.783V196H106.517V197.133H103.783ZM115.544 198.367L114.21 198.683C114.01 198.133 113.594 197.617 113.077 197.35C112.694 197.15 112.227 197.05 111.744 197.05C111.26 197.033 110.794 197.117 110.41 197.3C110.01 197.517 109.744 197.867 109.744 198.233C109.744 198.5 109.827 198.717 110.027 198.917C110.244 199.133 110.56 199.283 111.16 199.45C111.61 199.583 112.177 199.733 112.877 199.917C113.544 200.1 114.094 200.3 114.627 200.75C115.31 201.3 115.627 201.967 115.56 202.767C115.494 203.533 115.06 204.233 114.41 204.65C113.71 205.1 112.794 205.233 111.894 205.233C110.71 205.233 109.644 204.9 108.877 204.083C108.36 203.5 108.044 202.667 107.927 202.05L109.244 201.733C109.31 202.233 109.51 202.8 109.86 203.2C110.377 203.767 111.144 203.95 111.877 203.95C112.494 203.95 113.244 203.817 113.66 203.533C113.977 203.3 114.127 203 114.177 202.65C114.21 202.3 114.077 201.983 113.794 201.75C113.51 201.483 113.16 201.35 112.494 201.15C112.044 201.017 111.544 200.883 110.927 200.717C110.244 200.533 109.677 200.35 109.16 199.933C108.594 199.5 108.344 198.85 108.344 198.25C108.344 197.3 109.01 196.483 109.844 196.1C110.494 195.817 111.144 195.733 111.777 195.75C112.394 195.75 113.077 195.883 113.677 196.183C114.527 196.633 115.277 197.483 115.544 198.367ZM117.573 203.467H119.106V205H117.573V203.467Z" fill="white"/>
<path d="M40.825 119L39.825 115.925H32L31.025 119H28.125L33.9 101H37.975L43.75 119H40.825ZM32.85 113.275H38.975L35.9 103.775L32.85 113.275ZM57.3672 103.8H48.6922V108.6H55.8672V111.4H48.6922V116.175H57.3672V119H45.8672V101H57.3672V103.8ZM73.8922 105.55L71.0422 106.325C70.5922 105.3 70.0922 104.525 69.1672 103.975C68.5172 103.575 67.6672 103.275 66.7922 103.275C65.8922 103.275 65.0422 103.45 64.4172 103.825C63.6922 104.225 63.2922 104.95 63.2922 105.65C63.2922 106.1 63.4672 106.5 63.7672 106.825C64.1672 107.25 65.0672 107.6 65.9922 107.875L69.1672 108.8C70.6422 109.225 71.6172 109.725 72.4422 110.5C73.4672 111.475 74.0422 112.75 74.0422 114.15C74.0422 115.7 73.1672 117.3 71.8172 118.2C70.4922 119.125 68.8422 119.375 67.0172 119.375C64.6422 119.375 62.5922 118.7 61.1672 116.925C60.3422 115.875 59.8922 114.65 59.6172 113.5L62.4672 112.725C62.6422 113.65 62.9422 114.5 63.4422 115.1C64.2422 116.25 65.7422 116.725 67.1172 116.725C68.1672 116.725 69.4422 116.45 70.1672 115.9C70.8422 115.4 71.0672 114.7 71.0672 114.075C71.0672 113.5 70.8422 112.95 70.3922 112.55C69.9172 112.1 69.3172 111.8 68.5172 111.575L65.1922 110.6C63.8922 110.225 62.6922 109.75 61.7922 108.95C60.7922 108.075 60.3422 106.775 60.3422 105.575C60.3422 103.725 61.5422 102.075 63.1172 101.35C64.3672 100.75 65.6172 100.625 66.8172 100.625C68.0672 100.65 69.4172 100.875 70.5672 101.525C72.0672 102.35 73.2172 103.775 73.8922 105.55ZM76.2812 110.775H83.7813V113.025H76.2812V110.775ZM86.6313 106.4C86.5813 104.725 87.3563 103.1 88.5563 102.025C89.6813 101.025 91.2563 100.625 92.7313 100.625C94.4313 100.625 96.0563 101.225 97.1063 102.5C98.0813 103.575 98.6063 105 98.6063 106.45C98.6063 108.725 97.5563 110 95.6563 111.775L90.9313 116.325H98.3563V118.975H86.5313V116.325L94.1313 109.325C95.2813 108.275 95.7063 107.3 95.7063 106.425C95.7063 105.65 95.4313 104.9 94.9313 104.325C94.3313 103.65 93.5063 103.275 92.5813 103.275C91.7813 103.275 91.0313 103.6 90.4813 104.125C89.8813 104.7 89.5063 105.525 89.5063 106.4H86.6313ZM102.259 101H111.734V103.65H104.759L104.484 108.35C105.359 107.75 106.434 107.45 107.409 107.45C108.834 107.45 110.284 107.95 111.359 108.9C112.659 110.075 113.284 111.65 113.234 113.325C113.209 114.95 112.509 116.55 111.384 117.65C110.234 118.75 108.634 119.375 107.034 119.35C105.484 119.375 103.909 118.75 102.784 117.675C102.009 116.95 101.409 115.975 101.109 114.9L103.809 114.175C103.984 114.775 104.309 115.325 104.734 115.75C105.359 116.325 106.184 116.675 107.034 116.675C107.934 116.675 108.784 116.3 109.409 115.7C110.034 115.1 110.409 114.25 110.409 113.325C110.409 112.425 110.009 111.525 109.359 110.925C108.734 110.325 107.909 110 107.034 110C106.209 110 105.409 110.325 104.809 110.875C104.559 111.1 104.334 111.375 104.184 111.65L101.709 110.25L102.259 101ZM127.034 102.675L125.009 104.625C124.334 103.8 123.309 103.275 122.234 103.275C120.934 103.275 119.709 104.025 119.159 105.125C118.734 105.825 118.609 106.575 118.609 107.475V108.95C119.584 108 120.934 107.425 122.334 107.425C123.784 107.425 125.234 107.975 126.334 108.95C127.584 110.125 128.184 111.6 128.159 113.325C128.134 114.95 127.434 116.525 126.284 117.625C125.159 118.75 123.559 119.375 121.934 119.35C120.334 119.375 118.709 118.725 117.584 117.575C116.109 116.15 115.734 114.55 115.734 112.5V107.475C115.734 105.55 116.109 104.075 117.334 102.7C118.634 101.225 120.384 100.6 122.234 100.65C124.109 100.625 125.784 101.3 127.034 102.675ZM123.434 116.05C124.209 115.675 124.759 114.975 124.984 114.175C125.184 113.375 125.084 112.55 124.684 111.825C124.284 111.1 123.609 110.55 122.834 110.325C122.034 110.1 121.184 110.2 120.459 110.6C119.709 111 119.159 111.675 118.934 112.475C118.734 113.25 118.834 114.1 119.234 114.825C119.609 115.525 120.284 116.075 121.034 116.275C121.809 116.525 122.684 116.45 123.434 116.05ZM138.689 113.025C138.789 113.9 139.014 114.775 139.514 115.425C140.164 116.275 141.214 116.725 142.339 116.725C143.464 116.725 144.489 116.275 145.139 115.425C145.289 115.225 145.364 115.05 145.464 114.875L148.264 116.075C148.039 116.475 147.789 116.85 147.489 117.2C146.214 118.675 144.289 119.45 142.339 119.375C140.364 119.3 138.489 118.625 137.264 117.15C136.114 115.725 135.639 114 135.664 112.25C135.714 110.425 136.139 108.725 137.264 107.35C138.489 105.875 140.364 105.125 142.339 105.125C144.314 105.125 146.164 105.85 147.389 107.35C148.514 108.725 148.989 110.475 148.989 112.25C148.989 112.5 148.964 112.775 148.939 113.025H138.689ZM142.339 107.775C141.214 107.75 140.164 108.2 139.514 109.075C139.139 109.55 138.914 110.15 138.789 110.775H145.864C145.739 110.15 145.514 109.55 145.139 109.075C144.489 108.2 143.464 107.75 142.339 107.775ZM162.019 106.475C163.719 107.95 163.994 109.9 163.969 112.3V119H161.119V112.3C161.119 110.775 160.919 109.425 159.969 108.6C159.419 108.1 158.619 107.85 157.669 107.875C156.944 107.9 156.319 108.125 155.794 108.525C155.244 108.975 154.869 109.675 154.719 110.475C154.569 111.175 154.544 112.15 154.544 113.1V119H151.719V105.5H154.219V106.65L154.294 106.575C155.344 105.65 156.744 105.2 158.019 105.15C159.419 105.075 160.944 105.575 162.019 106.475ZM178.7 108.5L176.075 109.65C175.975 109.45 175.85 109.25 175.725 109.075C175.075 108.2 174.025 107.75 172.9 107.775C171.775 107.75 170.725 108.2 170.1 109.075C169.45 109.925 169.25 111.1 169.225 112.25C169.25 113.4 169.45 114.575 170.1 115.425C170.725 116.275 171.775 116.7 172.9 116.7C174.025 116.7 175.075 116.275 175.725 115.425C175.85 115.25 175.95 115.075 176.05 114.875L178.7 116.025C178.475 116.4 178.25 116.775 177.95 117.125C176.75 118.6 174.85 119.4 172.9 119.35C170.95 119.4 169.075 118.625 167.85 117.125C166.725 115.75 166.25 114.025 166.25 112.25C166.25 110.45 166.725 108.75 167.85 107.35C169.125 105.825 170.975 105.125 172.9 105.125C174.875 105.125 176.725 105.875 177.95 107.35C178.25 107.725 178.5 108.1 178.7 108.5ZM187.795 105.15C188.495 105.1 189.195 105.225 189.895 105.475V108.1C189.245 107.85 188.42 107.725 187.545 107.775C186.52 107.825 185.72 108.175 185.195 108.725C184.345 109.575 184.145 110.725 184.145 112.1V119H181.32V105.5H183.82V107.425C184.145 106.875 184.57 106.4 185.145 106C185.92 105.425 186.87 105.175 187.795 105.15ZM201.566 105.5H204.366L198.441 121.15C197.941 122.525 197.291 123.625 196.416 124.25C195.566 124.925 194.616 125 193.516 125H193.266V122.3L193.666 122.35C194.116 122.4 194.691 122.35 194.991 122.15C195.416 121.875 195.866 121.025 196.466 119.4L191.016 105.5H193.866L197.766 115.8L201.566 105.5ZM217.725 107.275C218.775 108.625 219.25 110.425 219.25 112.25C219.25 114.05 218.85 115.8 217.725 117.2C216.6 118.6 214.875 119.375 213.05 119.375C211.575 119.375 210.225 118.95 209.2 118.125V125H206.375V105.5H208.875V106.65C209.95 105.7 211.425 105.125 212.975 105.125C214.825 105.125 216.6 105.875 217.725 107.275ZM215.475 115.475C216.05 114.675 216.275 113.5 216.275 112.25C216.275 111 216.025 109.8 215.45 109C214.8 108.05 213.775 107.65 212.55 107.65C211.475 107.65 210.5 108.025 209.875 108.8C209.175 109.65 208.875 110.925 208.875 112.25C208.875 113.55 209.175 114.85 209.875 115.675C210.55 116.45 211.525 116.85 212.65 116.85C213.725 116.85 214.825 116.425 215.475 115.475ZM230.208 107.725H226.208V113.4C226.208 114.475 226.208 115.225 226.533 115.725C226.833 116.25 227.408 116.575 227.983 116.625C228.658 116.7 229.483 116.675 230.208 116.55V119C229.208 119.275 227.608 119.325 226.658 119.1C225.433 118.775 224.508 118.2 223.983 117.2C223.458 116.175 223.408 114.975 223.408 113.575V107.725H220.508V105.5H223.408V101.75H226.208V105.5H230.208V107.725ZM233.461 100.775H236.286V103.425H233.461V100.775ZM233.461 105.5H236.286V119H233.461V105.5ZM245.956 119.375C243.981 119.375 242.106 118.625 240.881 117.15C239.731 115.725 239.281 114.05 239.281 112.25C239.281 110.4 239.806 108.675 240.881 107.35C242.081 105.9 243.981 105.125 245.956 105.125C247.906 105.125 249.806 105.85 251.006 107.35C252.181 108.775 252.631 110.45 252.631 112.25C252.631 114.125 252.156 115.7 251.006 117.15C249.781 118.65 247.956 119.375 245.956 119.375ZM248.781 115.425C249.431 114.575 249.656 113.4 249.656 112.25C249.656 111.1 249.431 109.9 248.781 109.05C248.131 108.2 247.081 107.775 245.956 107.775C244.806 107.775 243.756 108.2 243.131 109.05C242.481 109.9 242.256 111.1 242.256 112.25C242.256 113.4 242.481 114.575 243.131 115.425C243.756 116.275 244.806 116.725 245.956 116.725C247.081 116.725 248.131 116.275 248.781 115.425ZM265.683 106.475C267.383 107.95 267.658 109.9 267.633 112.3V119H264.783V112.3C264.783 110.775 264.583 109.425 263.633 108.6C263.083 108.1 262.283 107.85 261.333 107.875C260.608 107.9 259.983 108.125 259.458 108.525C258.908 108.975 258.533 109.675 258.383 110.475C258.233 111.175 258.208 112.15 258.208 113.1V119H255.383V105.5H257.883V106.65L257.958 106.575C259.008 105.65 260.408 105.2 261.683 105.15C263.083 105.075 264.608 105.575 265.683 106.475Z" fill="white"/>
<rect x="28" y="35" width="52" height="52" rx="5" fill="#14131F"/>
<path d="M59 77.6673C58.3167 77.6673 57.75 77.1007 57.75 76.4173V45.584C57.75 44.9007 58.3167 44.334 59 44.334C59.6833 44.334 60.25 44.9007 60.25 45.584V76.4173C60.25 77.1007 59.6833 77.6673 59 77.6673Z" fill="#515155"/>
<path d="M64 74.3327H59V47.666H64C67.6833 47.666 70.6667 50.6493 70.6667 54.3327V67.666C70.6667 71.3493 67.6833 74.3327 64 74.3327Z" fill="#515155"/>
<path d="M44.0026 47.666C40.3193 47.666 37.3359 50.6493 37.3359 54.3327V67.666C37.3359 71.3493 40.3193 74.3327 44.0026 74.3327H52.3359C53.2526 74.3327 54.0026 73.5827 54.0026 72.666V49.3327C54.0026 48.416 53.2526 47.666 52.3359 47.666H44.0026ZM46.9193 66.8327C46.9193 67.516 46.3526 68.0827 45.6693 68.0827C44.9859 68.0827 44.4193 67.516 44.4193 66.8327V55.166C44.4193 54.4827 44.9859 53.916 45.6693 53.916C46.3526 53.916 46.9193 54.4827 46.9193 55.166V66.8327Z" fill="#515155"/>
</svg>
