<svg width="65" height="65" viewBox="0 0 70 70" fill="none" xmlns="http://www.w3.org/2000/svg">
<circle cx="35" cy="35" r="35" fill="#9C73F3"/>
<path d="M49.0807 46.9896H47.6224V37.875C47.6224 30.6271 41.7453 24.75 34.4974 24.75C27.2495 24.75 21.3724 30.6271 21.3724 37.875V46.9896H19.9141C19.3161 46.9896 18.8203 47.4854 18.8203 48.0833C18.8203 48.6813 19.3161 49.1771 19.9141 49.1771H49.0807C49.6786 49.1771 50.1745 48.6813 50.1745 48.0833C50.1745 47.4854 49.6786 46.9896 49.0807 46.9896Z" fill="white"/>
<path d="M34.5 21.4681C33.9021 21.4681 33.4062 20.9723 33.4062 20.3743V18.916C33.4062 18.3181 33.9021 17.8223 34.5 17.8223C35.0979 17.8223 35.5938 18.3181 35.5938 18.916V20.3743C35.5938 20.9723 35.0979 21.4681 34.5 21.4681Z" fill="white"/>
<path d="M24.2906 24.3863C24.0135 24.3863 23.7365 24.2842 23.5177 24.0655L22.0594 22.6072C21.6365 22.1842 21.6365 21.4842 22.0594 21.0613C22.4823 20.6384 23.1823 20.6384 23.6052 21.0613L25.0635 22.5197C25.4865 22.9426 25.4865 23.6426 25.0635 24.0655C24.8448 24.2842 24.5677 24.3863 24.2906 24.3863Z" fill="white"/>
<path d="M44.7073 24.3863C44.4302 24.3863 44.1531 24.2842 43.9344 24.0655C43.5115 23.6426 43.5115 22.9426 43.9344 22.5197L45.3927 21.0613C45.8156 20.6384 46.5156 20.6384 46.9385 21.0613C47.3615 21.4842 47.3615 22.1842 46.9385 22.6072L45.4802 24.0655C45.2615 24.2842 44.9844 24.3863 44.7073 24.3863Z" fill="white"/>
</svg>
