<svg width="35" height="35" viewBox="0 0 35 35" fill="none" xmlns="http://www.w3.org/2000/svg">
<circle cx="17.5" cy="17.5" r="17.5" fill="#9C73F3"/>
<path d="M24.5521 23.4948H23.8229V18.9375C23.8229 15.3135 20.8844 12.375 17.2604 12.375C13.6365 12.375 10.6979 15.3135 10.6979 18.9375V23.4948H9.96875C9.66979 23.4948 9.42188 23.7427 9.42188 24.0417C9.42188 24.3406 9.66979 24.5885 9.96875 24.5885H24.5521C24.851 24.5885 25.099 24.3406 25.099 24.0417C25.099 23.7427 24.851 23.4948 24.5521 23.4948Z" fill="white"/>
<path d="M17.2578 10.735C16.9589 10.735 16.7109 10.4871 16.7109 10.1882V9.45898C16.7109 9.16003 16.9589 8.91211 17.2578 8.91211C17.5568 8.91211 17.8047 9.16003 17.8047 9.45898V10.1882C17.8047 10.4871 17.5568 10.735 17.2578 10.735Z" fill="white"/>
<path d="M12.157 12.1922C12.0185 12.1922 11.8799 12.1411 11.7706 12.0318L11.0414 11.3026C10.8299 11.0911 10.8299 10.7411 11.0414 10.5297C11.2529 10.3182 11.6029 10.3182 11.8143 10.5297L12.5435 11.2589C12.7549 11.4703 12.7549 11.8203 12.5435 12.0318C12.4341 12.1411 12.2956 12.1922 12.157 12.1922Z" fill="white"/>
<path d="M22.3654 12.1922C22.2268 12.1922 22.0883 12.1411 21.9789 12.0318C21.7674 11.8203 21.7674 11.4703 21.9789 11.2589L22.7081 10.5297C22.9195 10.3182 23.2695 10.3182 23.481 10.5297C23.6924 10.7411 23.6924 11.0911 23.481 11.3026L22.7518 12.0318C22.6424 12.1411 22.5039 12.1922 22.3654 12.1922Z" fill="white"/>
</svg>
