<svg width="126" height="46" viewBox="0 0 126 46" fill="none" xmlns="http://www.w3.org/2000/svg">
<path d="M42.5215 28.4543L46.2252 27.6549C46.7315 29.1471 47.9305 29.9731 49.5026 29.9731C50.9414 29.9731 52.3803 29.227 52.3803 27.6017C52.3803 26.0562 50.8082 25.5766 49.5559 25.2835L48.7032 25.097C45.7456 24.4575 43.0011 22.9387 43.0011 19.5548C43.0011 15.9576 46.1186 13.6928 49.5825 13.6928C52.6201 13.6928 55.3912 15.4247 56.0573 18.5422L52.4069 19.3416C52.1938 18.6222 51.8207 18.0893 51.3145 17.6896C50.7815 17.3165 50.1687 17.13 49.4759 17.13C48.2236 17.13 46.9446 17.8761 46.9446 19.2883C46.9446 20.8071 48.5966 21.2601 49.7957 21.5265L50.6483 21.713C53.6859 22.3792 56.3504 23.7914 56.3504 27.2819C56.3504 31.1188 53.153 33.4103 49.4493 33.4103C46.3318 33.4103 43.2676 31.6518 42.5215 28.4543Z" fill="white"/>
<path d="M59.3051 25.9496C59.3051 21.9528 62.1029 18.5422 66.3129 18.5422C70.6028 18.5422 73.1874 21.713 73.1874 25.9763V26.9089H63.0888C63.3819 28.7741 64.501 30.2662 66.526 30.2662C67.8583 30.2662 68.8708 29.6267 69.5636 28.5076L72.8943 29.5734C71.8818 32.1047 69.1373 33.4103 66.4994 33.4103C62.2628 33.4103 59.3051 30.2129 59.3051 25.9496ZM66.3129 21.4199C64.5276 21.4199 63.4618 22.7522 63.1421 24.4042H69.3504C69.1106 22.7522 68.0981 21.4199 66.3129 21.4199Z" fill="white"/>
<path d="M76.302 18.9419H79.7392L79.8724 21.0735C80.5652 19.5814 81.7909 18.7554 83.4429 18.7554C83.6827 18.7554 83.9492 18.782 84.189 18.8087C84.4288 18.862 84.6686 18.9153 84.8551 18.9952L84.4554 22.6723C84.0558 22.4857 83.6561 22.4857 83.2298 22.4857C80.9649 22.4857 80.0323 24.0045 80.0323 26.1095V33.0107H76.302V18.9419Z" fill="white"/>
<path d="M87.6918 18.9419H91.1291L91.2356 20.7538C92.1149 19.2617 93.687 18.5422 95.3923 18.5422C98.8562 18.5422 100.535 21.2867 100.535 24.5641V33.0107H96.8045V25.0437C96.8045 23.4183 96.1384 21.8995 94.2999 21.8995C92.5679 21.8995 91.4222 23.2052 91.4222 24.9371V33.0107H87.6918V18.9419Z" fill="white"/>
<path d="M104.312 33.0107V18.9419H108.042V33.0107H104.312ZM106.177 17.2633C105.005 17.2633 104.045 16.3307 104.045 15.1316C104.045 13.9326 104.951 13 106.177 13C107.403 13 108.309 13.8793 108.309 15.1316C108.309 16.3307 107.403 17.2633 106.177 17.2633Z" fill="white"/>
<path d="M111.292 25.9763C111.292 21.793 114.436 18.5422 118.699 18.5422C122.882 18.5422 126 21.6864 126 25.9496C126 30.1596 122.909 33.4103 118.593 33.4103C114.409 33.4103 111.292 30.2129 111.292 25.9763ZM118.646 21.8995C116.434 21.8995 115.102 23.8713 115.102 25.9763C115.102 28.028 116.408 30.053 118.646 30.053C120.857 30.053 122.19 28.0813 122.19 25.9763C122.19 23.898 120.911 21.8995 118.646 21.8995Z" fill="white"/>
<path d="M10.1636 33.6113C9.38284 34.3926 9.37661 35.6711 10.2522 36.3444C12.9392 38.4105 16.2487 39.5474 19.675 39.5459C23.772 39.5441 27.7005 37.9149 30.5962 35.0167C33.492 32.1185 35.1178 28.1886 35.116 24.0916C35.1143 19.9947 33.4851 16.0662 30.5868 13.1704L10.1636 33.6113Z" fill="#D0BDFA"/>
<path d="M6.82331 24.8281L14.5157 17.087C18.1244 13.4555 23.7549 12.778 28.1221 15.4497L11.0305 32.6289C8.15558 29.9644 7.02783 26.3182 6.82331 24.8281Z" fill="#F5E8E3"/>
<path opacity="0.9" d="M31.3552 12.3368C32.1362 11.5557 32.143 10.2773 31.2677 9.60362C28.5816 7.53639 25.2726 6.39806 21.8463 6.39806C17.7493 6.39806 13.8201 8.02558 10.9231 10.9226C8.02614 13.8196 6.39862 17.7487 6.39862 21.8457C6.39862 25.9427 8.02614 29.8718 10.9231 32.7688L31.3552 12.3368Z" fill="#5B0AFF"/>
</svg>
