<svg width="36" height="36" viewBox="0 0 36 36" fill="none" xmlns="http://www.w3.org/2000/svg">
<rect width="36" height="36" rx="5" fill="#EFE8FF"/>
<path d="M14 8V11" stroke="#5B0AFF" stroke-width="1.5" stroke-miterlimit="10" stroke-linecap="round" stroke-linejoin="round"/>
<path d="M22 8V11" stroke="#5B0AFF" stroke-width="1.5" stroke-miterlimit="10" stroke-linecap="round" stroke-linejoin="round"/>
<path d="M9.5 15.0898H26.5" stroke="#5B0AFF" stroke-width="1.5" stroke-miterlimit="10" stroke-linecap="round" stroke-linejoin="round"/>
<path d="M27 14.5V23C27 26 25.5 28 22 28H14C10.5 28 9 26 9 23V14.5C9 11.5 10.5 9.5 14 9.5H22C25.5 9.5 27 11.5 27 14.5Z" stroke="#5B0AFF" stroke-width="1.5" stroke-miterlimit="10" stroke-linecap="round" stroke-linejoin="round"/>
<path d="M21.6976 19.6992H21.7066" stroke="#5B0AFF" stroke-width="2" stroke-linecap="round" stroke-linejoin="round"/>
<path d="M21.6976 22.6992H21.7066" stroke="#5B0AFF" stroke-width="2" stroke-linecap="round" stroke-linejoin="round"/>
<path d="M17.9945 19.6992H18.0035" stroke="#5B0AFF" stroke-width="2" stroke-linecap="round" stroke-linejoin="round"/>
<path d="M17.9945 22.6992H18.0035" stroke="#5B0AFF" stroke-width="2" stroke-linecap="round" stroke-linejoin="round"/>
<path d="M14.2914 19.6992H14.3004" stroke="#5B0AFF" stroke-width="2" stroke-linecap="round" stroke-linejoin="round"/>
<path d="M14.2914 22.6992H14.3004" stroke="#5B0AFF" stroke-width="2" stroke-linecap="round" stroke-linejoin="round"/>
</svg>
