<svg width="28" height="28" viewBox="0 0 28 28" fill="none" xmlns="http://www.w3.org/2000/svg">
<circle cx="14" cy="14" r="13.5" stroke="white"/>
<path d="M19.7207 10.4508L17.9231 11.2313C17.8049 10.9711 17.6393 10.7346 17.4974 10.5218C16.7878 9.55203 15.6289 9.079 14.3754 9.079C13.1691 9.079 11.9865 9.55203 11.3006 10.5218C10.5674 11.4678 10.3546 12.745 10.3309 13.9986C10.3546 15.2521 10.5674 16.5293 11.3006 17.4754C11.9865 18.4214 13.1691 18.8945 14.3754 18.8945C15.6289 18.8945 16.7878 18.4214 17.4974 17.4754C17.6393 17.2625 17.7812 17.026 17.8995 16.7895L19.7207 17.5936C19.5078 17.9484 19.2949 18.3032 19.0348 18.6343C17.9231 20.0297 16.2202 20.7393 14.3754 20.7393C12.5542 20.7393 10.8513 20.0534 9.73963 18.6343C8.6753 17.3098 8.32053 15.6305 8.29688 13.9986C8.32053 12.3429 8.6753 10.6873 9.73963 9.33916C10.8986 7.89641 12.5542 7.25781 14.3754 7.25781C16.2202 7.25781 17.8995 7.94371 19.0348 9.33916C19.2949 9.69394 19.5314 10.0487 19.7207 10.4508Z" fill="white"/>
</svg>
