<svg width="53" height="53" viewBox="0 0 53 53" fill="none" xmlns="http://www.w3.org/2000/svg">
<rect x="0.5" y="0.5" width="51.5" height="51.5" rx="7.5" fill="#0E0D18" stroke="#333142"/>
<path fill-rule="evenodd" clip-rule="evenodd" d="M25.8125 20.5871C29.1816 20.5871 31.9129 23.3184 31.9129 26.6875C31.9129 30.0566 29.1816 32.7879 25.8125 32.7879C22.4434 32.7879 19.7121 30.0566 19.7121 26.6875C19.7121 23.3184 22.4434 20.5871 25.8125 20.5871ZM25.8125 22.8055C23.6685 22.8055 21.9305 24.5435 21.9305 26.6875C21.9305 28.8315 23.6685 30.5695 25.8125 30.5695C27.9565 30.5695 29.6945 28.8315 29.6945 26.6875C29.6945 24.5435 27.9565 22.8055 25.8125 22.8055Z" fill="#ADA6BB"/>
<path d="M32.1347 18.9234C32.931 18.9234 33.5766 19.569 33.5766 20.3653C33.5766 21.1617 32.931 21.8072 32.1347 21.8072C31.3383 21.8072 30.6928 21.1617 30.6928 20.3653C30.6928 19.569 31.3383 18.9234 32.1347 18.9234Z" fill="#ADA6BB"/>
<path fill-rule="evenodd" clip-rule="evenodd" d="M30.9701 14.875C34.6455 14.875 37.625 17.8545 37.625 21.5299V31.8451C37.625 35.4918 34.6919 38.4534 31.0561 38.4995L30.9701 38.5H20.6549L20.5689 38.4995C16.9618 38.4538 14.0462 35.5382 14.0005 31.9311L14 31.8451V21.5299C14 17.8545 16.9795 14.875 20.6549 14.875H30.9701ZM20.6549 17.0933C18.2047 17.0933 16.2183 19.0797 16.2183 21.5299V31.8451C16.2183 34.2953 18.2047 36.2817 20.6549 36.2817H30.9701C33.4203 36.2817 35.4067 34.2953 35.4067 31.8451V21.5299C35.4067 19.0797 33.4203 17.0933 30.9701 17.0933H20.6549Z" fill="#ADA6BB"/>
</svg>
