<svg width="53" height="53" viewBox="0 0 53 53" fill="none" xmlns="http://www.w3.org/2000/svg">
<rect x="0.5" y="0.5" width="51.5" height="51.5" rx="7.5" fill="#0E0D18" stroke="#333142"/>
<path d="M27.0555 22.1437H22.7031V36.7552H27.0407V28.8943C27.0407 28.539 27.1073 28.164 27.1369 28.0209C27.1517 27.8531 27.282 27.3695 27.6254 26.8366C27.9689 26.3036 28.5778 26.0223 28.8394 25.9483C29.0318 25.8965 29.2169 25.8373 29.7794 25.8151C30.2295 25.7973 30.6282 25.9162 30.7713 25.9779C30.9415 26.0495 31.3427 26.2681 31.5855 26.5701C31.8283 26.8721 31.9877 27.2733 32.037 27.4361C32.191 27.8506 32.2443 28.5415 32.2517 28.8351V36.7552H36.7669V27.821C36.832 25.8551 36.2265 24.426 35.9157 23.9572C35.5184 23.2195 34.0918 21.7336 31.5633 21.6922C29.0348 21.6507 27.5045 23.2885 27.0555 24.1126V22.1437Z" fill="#ADA6BB"/>
<rect x="15.3047" y="22.1406" width="4.51521" height="14.6115" fill="#ADA6BB"/>
<circle cx="17.5398" cy="17.5398" r="2.66481" fill="#ADA6BB"/>
</svg>
